<?xml version="1.0" encoding="UTF-8"?>
<svg data-bbox="3.9 0.2 492.2 149.6" viewBox="0 0 500 150" xmlns="http://www.w3.org/2000/svg" data-type="color">
    <g>
        <path d="m94.1 70 5.3-18.6h24.7c13 0 20.9-5.9 24.5-18.4l2-6.9C155.2 10.2 147.7.3 131.3.3H23.9L3.9 70zm37.1-51L127 34.2h-22.6l4.3-15.1h22.5z" fill="#f8ff13" data-color="1"/>
        <path d="m159.8 70 6.6-11.7H197V70h20.1V.2h-39.5L136.5 70zm28.9-50.8h8.3v22.2h-21z" fill="#f8ff13" data-color="1"/>
        <path d="m299.1 32.3 1.8-6.3C305.5 9.9 298 .2 281.6.2h-38.2l-20 69.8h20.9l5.5-19.2h13l5.9 19.2h21.5l-6.3-20.5c7.6-2.3 12.6-8 15.2-17.2M258.9 19h22.5l-4.2 15.1h-22.6z" fill="#f8ff13" data-color="1"/>
        <path fill="#f8ff13" d="m318.7 70 20-69.8h-21L297.8 70z" data-color="1"/>
        <path fill="#f8ff13" d="M190.6 79.9 167 107.8l-9.7-27.9H66.8l-19.9 69.9h90.2l11-38.6 7.3 21.6h13.5l19.5-23-11.5 40h20.9l19.9-69.9z" data-color="1"/>
        <path d="m245.7 79.9-41.2 69.8h23.3l6.6-11.7H265v11.7h20.1V80zm-1.6 41.3L256.7 99h8.3v22.2z" fill="#f8ff13" data-color="1"/>
        <path fill="#f8ff13" d="m355.8 99.9 5.7-20H298l-5.7 20h23L301 149.8h20.9l14.3-49.9z" data-color="1"/>
        <path d="M383.7 99.9h31.7l5.8-19.9h-33.8c-13 0-20.9 5.9-24.5 18.4l-7.4 25.5c-4.7 16.3 2.9 25.8 19.3 25.8h26.3l5.7-19.9h-31.7z" fill="#f8ff13" data-color="1"/>
        <path fill="#f8ff13" d="m475.2 79.9-7.2 25h-23.9l7.1-25h-20.9l-19.9 69.9h20.9l7.1-25h23.9l-7.1 25h21l19.9-69.9z" data-color="1"/>
    </g>
</svg>
