<?xml version="1.0" encoding="UTF-8"?>
<svg data-bbox="-0.001 0 176.001 36.073" xmlns="http://www.w3.org/2000/svg" viewBox="0 0 176 37" height="37" width="176" data-type="color">
    <g>
        <path fill="#0D76D1" d="M20.885 5.434a12 12 0 0 0-2.665-.296 13.5 13.5 0 0 0-3.603.476c-3.285 3.424-4.953 7.615-4.953 12.462a17.46 17.46 0 0 0 4.855 12.31c1.071.34 2.188.513 3.313.515a10.2 10.2 0 0 0 2.978-.44 17 17 0 0 1-2.574-1.91c-3.027-2.734-4.564-6.256-4.564-10.47 0-4.075 1.377-7.519 4.093-10.232a14 14 0 0 1 3.12-2.415" data-color="1"/>
        <path fill="#0D76D1" d="M18.22 3.684a12.9 12.9 0 0 1 4.652.84 14.6 14.6 0 0 1 4.999-.84q.52.002 1.03.041a17.6 17.6 0 0 0-3.2-2.072A17 17 0 0 0 22.89.623a17.1 17.1 0 0 0-6.248 3.138 16 16 0 0 1 1.578-.077" data-color="1"/>
        <path fill="#0D76D1" d="M26.334.343a21.2 21.2 0 0 1 5.329 3.884c2.661.798 5.065 2.474 7.13 5.012l2.767-2.667c-2.039-2.234-4.119-3.892-6.209-4.919A17.65 17.65 0 0 0 27.778 0c-.674 0-1.336.036-1.984.098.18.075.36.16.54.245" data-color="1"/>
        <path fill="#0D76D1" d="M27.475 32.35a12.5 12.5 0 0 1-4.917-1.004 11.4 11.4 0 0 1-4.734 1.004c-.42 0-.84-.021-1.251-.062a16.6 16.6 0 0 0 5.88 3.04 15.2 15.2 0 0 0 5.611-2.978z" data-color="1"/>
        <path fill="#0D76D1" d="M35.254 17.986v.463a31 31 0 0 1-.163 3.197h3.977l-.077.798c-.257 2.721-1.544 5.084-3.825 7.023a12 12 0 0 1-4.569 2.466 17.2 17.2 0 0 1-5.393 3.935q1.038.12 2.083.119c4.93 0 9.045-1.82 12.232-5.406a14.6 14.6 0 0 0 3.007-5.148c.648-2.27.959-4.623.921-6.984v-.463z" data-color="1"/>
        <path fill="#0D76D1" d="M30.002 21.646h3.622q.175-1.593.172-3.197v-.463h-3.794z" data-color="1"/>
        <path fill="#0D76D1" d="M25.7 1.653A17.65 17.65 0 0 0 18.123 0C13.1 0 8.779 1.777 5.275 5.277S0 13.07 0 18.077a17.5 17.5 0 0 0 5.187 12.661c3.437 3.483 7.625 5.25 12.444 5.25 4.93 0 9.046-1.82 12.232-5.407a14.6 14.6 0 0 0 3.007-5.148c.65-2.27.962-4.623.927-6.984v-.463H20.352v3.66h9.066l-.077.799c-.258 2.72-1.545 5.084-3.826 7.022a11.64 11.64 0 0 1-7.691 2.883c-3.316 0-6.436-1.287-9.246-3.807-3.028-2.734-4.564-6.255-4.564-10.47 0-4.074 1.377-7.518 4.092-10.232 2.711-2.76 6.114-4.16 10.114-4.16 4.232 0 7.895 1.867 10.894 5.555l2.788-2.666c-2.039-2.232-4.121-3.89-6.201-4.917" data-color="1"/>
        <path fill="#0D76D1" d="M29.114 9.237h9.677l2.767-2.665h-9.656z" data-color="1"/>
        <path fill="#0D76D1" d="M42.047 17.994h-10.26v3.655h10.26z" data-color="1"/>
        <path fill="#0D76D1" d="M85.33 8.405h1.973v3.902H85.33a5.8 5.8 0 0 0-2.3.46 5.96 5.96 0 0 0-3.158 3.154 5.8 5.8 0 0 0-.46 2.3v9.867h-3.946V18.22a9.6 9.6 0 0 1 .767-3.834 9.8 9.8 0 0 1 2.125-3.1c.91-.894 1.98-1.607 3.155-2.104a9.6 9.6 0 0 1 3.817-.778m-11.854 5.982a9.6 9.6 0 0 1 .767 3.834v7.893a9.6 9.6 0 0 1-.767 3.834 10.3 10.3 0 0 1-2.106 3.135 9.8 9.8 0 0 1-3.101 2.126 9.6 9.6 0 0 1-3.837.766H62.46V32.07h1.973a5.7 5.7 0 0 0 3.484-1.128 5.93 5.93 0 0 0 2.126-2.872h-5.61a9.6 9.6 0 0 1-3.811-.767 9.94 9.94 0 0 1-5.283-5.28 9.92 9.92 0 0 1 0-7.648 9.8 9.8 0 0 1 2.126-3.101 10.2 10.2 0 0 1 3.157-2.103 9.92 9.92 0 0 1 7.648 0 9.9 9.9 0 0 1 5.215 5.215zm-3.101 3.834a5.8 5.8 0 0 0-.463-2.3 5.979 5.979 0 0 0-10.994 0 5.8 5.8 0 0 0-.46 2.3 5.89 5.89 0 0 0 3.637 5.503 6 6 0 0 0 2.323.46h5.962zm81.91-6.946a10.2 10.2 0 0 0-3.135-2.103 9.93 9.93 0 0 0-7.011-.242 9.4 9.4 0 0 0-2.74 1.49V.516h-3.887v27.567h3.898v-9.867a5.8 5.8 0 0 1 .463-2.3 5.94 5.94 0 0 1 3.154-3.16 5.8 5.8 0 0 1 2.301-.46 5.9 5.9 0 0 1 2.322.46 5.9 5.9 0 0 1 1.906 1.271 6 6 0 0 1 1.271 1.883c.31.728.466 1.51.46 2.3v9.868h3.902V18.21a9.6 9.6 0 0 0-.767-3.834 9.8 9.8 0 0 0-2.126-3.101zm-20.861 0a10.3 10.3 0 0 0-3.135-2.103 9.93 9.93 0 0 0-7.011-.242 9.4 9.4 0 0 0-2.74 1.49V.516h-3.89v27.567h3.901v-9.867a5.8 5.8 0 0 1 .46-2.3 5.96 5.96 0 0 1 3.157-3.16 5.8 5.8 0 0 1 2.301-.46 5.92 5.92 0 0 1 5.5 3.614 5.8 5.8 0 0 1 .459 2.3v9.868h3.902V18.21a9.6 9.6 0 0 0-.767-3.834 9.8 9.8 0 0 0-2.126-3.101zm-18.857 3.2a9.92 9.92 0 0 1 0 7.648 10 10 0 0 1-5.26 5.291 9.6 9.6 0 0 1-3.834.767h-5.92v7.893h-3.896v-17.76a9.5 9.5 0 0 1 .767-3.84 9.82 9.82 0 0 1 9.06-5.981c1.313 0 2.612.26 3.823.766 1.167.5 2.23 1.214 3.135 2.103a9.8 9.8 0 0 1 2.125 3.113m-3.134 3.833a5.8 5.8 0 0 0-.46-2.3 6 6 0 0 0-1.271-1.883 5.9 5.9 0 0 0-1.906-1.271 5.9 5.9 0 0 0-2.323-.46 5.8 5.8 0 0 0-2.3.46 5.94 5.94 0 0 0-3.155 3.154 5.8 5.8 0 0 0-.462 2.3v5.963h5.92a6 6 0 0 0 2.323-.46 5.9 5.9 0 0 0 2.655-2.198c.648-.98.99-2.13.981-3.305zm-20.949 9.774h3.857V8.405h-3.857zM172.106 8.45v9.816a5.9 5.9 0 0 1-.46 2.323 5.9 5.9 0 0 1-1.271 1.906c-.541.54-1.18.971-1.883 1.271a5.8 5.8 0 0 1-2.304.46 5.96 5.96 0 0 1-4.228-1.731 5.9 5.9 0 0 1-1.272-1.906 5.9 5.9 0 0 1-.459-2.323V8.45h-3.902v9.816a9.65 9.65 0 0 0 .767 3.814 9.94 9.94 0 0 0 5.283 5.28 9.85 9.85 0 0 0 6.989.24 9.4 9.4 0 0 0 2.74-1.488v.042a5.98 5.98 0 0 1-1.731 4.228 6 6 0 0 1-1.883 1.272 5.85 5.85 0 0 1-2.304.46h-1.973v3.898h1.973a9.5 9.5 0 0 0 3.837-.767 9.8 9.8 0 0 0 3.101-2.125 10.2 10.2 0 0 0 2.106-3.132 9.6 9.6 0 0 0 .767-3.837V8.447z" data-color="1"/>
    </g>
</svg>
