<?xml version="1.0" encoding="UTF-8"?>
<svg data-bbox="0 0 123.495 22.87" viewBox="0 0 123.49 22.87" width="123.49" height="22.87" xmlns="http://www.w3.org/2000/svg" data-type="color">
    <g>
        <g>
            <path d="M29 10.75a5 5 0 0 1-5.21-5.15A5 5 0 0 1 29.08.47a5 5 0 0 1 3.65 1.43l-1.6 1.6a2.44 2.44 0 0 0-2-.89 2.81 2.81 0 0 0-2.81 3 2.76 2.76 0 0 0 2.77 3 2.48 2.48 0 0 0 2.07-1l1.64 1.54a4.86 4.86 0 0 1-3.8 1.6" fill="#603f99" data-color="1"/>
            <path d="M36 10.49V.73h2.37v7.71h3.78v2.05Z" fill="#603f99" data-color="1"/>
            <path d="m52.94 10.49-.76-1.92H48.4l-.71 1.92h-2.57l4.1-9.76h2.28l4.06 9.76Zm-2.62-7.15-1.24 3.35h2.45Z" fill="#603f99" data-color="1"/>
            <path d="M62.21 10.49h-3.64V.73h3.53c2.77 0 5.58 1.16 5.58 4.85 0 3.42-2.78 4.91-5.47 4.91m-.16-7.74h-1.17v5.7H62c1.68 0 3.24-.69 3.24-2.87s-1.57-2.83-3.19-2.83" fill="#603f99" data-color="1"/>
            <path d="M70.9 10.49V.73h2.37v9.76Z" fill="#acd037" data-color="2"/>
            <path d="m84.1 10.49-.76-1.92h-3.77l-.72 1.92h-2.56L80.38.73h2.29l4 9.76Zm-2.62-7.15-1.24 3.35h2.45Z" fill="#acd037" data-color="2"/>
            <path d="M93.09 2.75v7.74h-2.36V2.75H88v-2h7.87v2Z" fill="#acd037" data-color="2"/>
            <path d="M103.56 10.75a5 5 0 0 1-5.31-5.18 5 5 0 0 1 5.31-5.1c3.06 0 5.32 2 5.32 5.1a5 5 0 0 1-5.32 5.18m0-8.16a2.78 2.78 0 0 0-2.78 3 2.8 2.8 0 1 0 5.58 0 2.79 2.79 0 0 0-2.8-3" fill="#acd037" data-color="2"/>
            <path d="m117.87 10.49-2.11-3.87H115v3.87h-2.32V.73h3.73c1.87 0 3.73.72 3.73 3a2.64 2.64 0 0 1-2 2.63l2.55 4.18Zm-1.67-7.85H115v2.27h1.11c.76 0 1.71-.19 1.71-1.19s-.92-1.08-1.62-1.08" fill="#acd037" data-color="2"/>
            <path d="M70.9 10.49V.73h2.37v9.76Z" fill="#acd037" data-color="2"/>
            <path d="M70.9 10.49V.73h2.37v9.76Z" fill="#acd037" data-color="2"/>
            <path d="M70.9 10.49V.73h2.37v9.76Z" fill="#acd037" data-color="2"/>
            <path d="M70.9 10.49V.73h2.37v9.76Z" fill="#acd037" data-color="2"/>
            <path d="M70.9 10.49V.73h2.37v9.76Z" fill="#acd037" data-color="2"/>
            <path d="M70.9 10.49V.73h2.37v9.76Z" fill="#acd037" data-color="2"/>
            <path d="M70.9 10.49V.73h2.37v9.76Z" fill="#acd037" data-color="2"/>
            <path d="m16.45 6.2-.09-.07a.3.3 0 0 0 .09.07" fill="#603f99" data-color="1"/>
            <path d="M13.5 3.52H15A32.7 32.7 0 0 1 8.58 0v3.52Z" fill="#603f99" data-color="1"/>
            <path d="M16.26 9H13.5V6.28h-3a.38.38 0 0 0-.38.38v13.49C14.39 17.61 16.3 13 17.16 9Z" fill="#603f99" data-color="1"/>
            <path d="M3.66 3.52h4.92V0a32.7 32.7 0 0 1-6.4 3.52Z" fill="#acd037" data-color="2"/>
            <path d="M7.32 6.66a.38.38 0 0 0-.38-.38H3.66V9H0c.88 4 2.85 8.74 7.32 11.24Z" fill="#acd037" data-color="2"/>
            <path d="m.8 6.13-.09.07Z" fill="#acd037" data-color="2"/>
            <path d="M28.23 21h-1.44v-5.67h1.28a1.31 1.31 0 0 1 1.44 1.38 1.22 1.22 0 0 1-.8 1.27 1.34 1.34 0 0 1 1 1.43A1.4 1.4 0 0 1 28.23 21M28 15.8h-.69v2H28a.93.93 0 0 0 1-1 .9.9 0 0 0-1-1m.1 2.44h-.79v2.25h.79a1 1 0 0 0 1-1.09 1 1 0 0 0-.99-1.16Z" fill="#603f99" data-color="1"/>
            <path d="M31.2 17v2.54c0 .49.08 1.07.62 1.07s.84-.63.84-1.34V17h.52v4h-.51v-.77a1.07 1.07 0 0 1-1 .9c-.85 0-1-.8-1-1.53V17Z" fill="#603f99" data-color="1"/>
            <path d="M34.78 16.19a.38.38 0 1 1 .35-.38.36.36 0 0 1-.35.38M34.52 21v-4H35v4Z" fill="#603f99" data-color="1"/>
            <path d="M36.35 21v-6h.52v6Z" fill="#603f99" data-color="1"/>
            <path d="M39 21.07c-.55 0-.76-.42-.76-1.05v-2.57h-.54V17h.51v-1.07h.52V17h.7v.43h-.7v2.47c0 .48.14.68.41.68a.8.8 0 0 0 .29-.06v.42a1.1 1.1 0 0 1-.43.13" fill="#603f99" data-color="1"/>
            <path d="M42.59 21.07c-.54 0-.75-.42-.75-1.05v-2.57h-.52V17h.51v-1.07h.52V17h.7v.43h-.7v2.47c0 .48.13.68.41.68a.8.8 0 0 0 .29-.06v.42a1.1 1.1 0 0 1-.46.13" fill="#603f99" data-color="1"/>
            <path d="M45 21.09c-.85 0-1.37-.85-1.37-2.09s.5-2.11 1.37-2.11 1.38.85 1.38 2.11-.53 2.09-1.38 2.09m0-3.75c-.57 0-.83.72-.83 1.65s.26 1.63.83 1.63.84-.71.84-1.63-.28-1.65-.84-1.65" fill="#603f99" data-color="1"/>
            <path d="M50.7 21.1c-1.22 0-1.93-1.27-1.93-3s.72-2.95 1.93-2.95a1.49 1.49 0 0 1 1.32.69l-.36.36a1.08 1.08 0 0 0-.93-.54c-.94 0-1.38 1.09-1.38 2.44s.46 2.44 1.38 2.44a1.13 1.13 0 0 0 1-.62l.35.36a1.53 1.53 0 0 1-1.38.82" fill="#603f99" data-color="1"/>
            <path d="M53.91 21.09c-.85 0-1.37-.85-1.37-2.09s.5-2.11 1.37-2.11 1.38.85 1.38 2.11-.52 2.09-1.38 2.09m0-3.75c-.57 0-.83.72-.83 1.65s.26 1.63.83 1.63.84-.71.84-1.63-.27-1.65-.84-1.65" fill="#603f99" data-color="1"/>
            <path d="M58.37 21v-2.58c0-.49-.08-1.07-.62-1.07s-.84.63-.84 1.34V21h-.53v-4h.51v.77a1.07 1.07 0 0 1 1-.9c.85 0 1 .8 1 1.53V21Z" fill="#603f99" data-color="1"/>
            <path d="M62.12 22.87v-2.58a1 1 0 0 1-.93.8c-.81 0-1.25-.87-1.25-2.09s.44-2.11 1.24-2.11a1 1 0 0 1 .95.83V17h.51v5.85Zm-.82-5.53c-.58 0-.83.72-.83 1.64s.25 1.65.83 1.65.84-.72.84-1.65-.28-1.64-.84-1.64" fill="#603f99" data-color="1"/>
            <path d="M64.44 17v2.54c0 .49.08 1.07.62 1.07s.85-.63.85-1.34V17h.52v4H66v-.77a1.09 1.09 0 0 1-1 .9c-.85 0-1-.8-1-1.53V17Z" fill="#603f99" data-color="1"/>
            <path d="M68.06 19.1c0 .87.29 1.51.87 1.51a.81.81 0 0 0 .74-.59l.39.23a1.21 1.21 0 0 1-1.14.84c-.88 0-1.39-.8-1.39-2.09s.53-2.11 1.38-2.11 1.27.87 1.27 1.93v.28Zm.83-1.76c-.6 0-.82.86-.82 1.32h1.58c0-.78-.24-1.32-.76-1.32" fill="#603f99" data-color="1"/>
            <path d="M72.63 16.9h.09v.54h-.13c-.53 0-.82.79-.82 1.52v2h-.52V17h.5v.86c.16-.67.49-.96.88-.96" fill="#603f99" data-color="1"/>
            <path d="m77.55 21-2-4.68V21h-.51v-5.67h.69l2 4.69v-4.69h.51V21Z" fill="#603f99" data-color="1"/>
            <path d="M79.85 19.1c0 .87.28 1.51.87 1.51a.79.79 0 0 0 .73-.59l.4.23a1.21 1.21 0 0 1-1.15.84c-.87 0-1.39-.8-1.39-2.09s.54-2.11 1.39-2.11 1.3.87 1.3 1.93v.28Zm.83-1.76c-.6 0-.83.86-.83 1.32h1.59c0-.78-.24-1.32-.76-1.32" fill="#603f99" data-color="1"/>
            <path d="M85.94 21h-.62l-.67-3.2L84 21h-.6l-.83-4h.53l.61 3.34.7-3.34h.51l.7 3.34.61-3.34h.53Z" fill="#603f99" data-color="1"/>
            <path d="M90.91 21.1c-1.22 0-1.93-1.27-1.93-3s.72-2.95 1.93-2.95a1.49 1.49 0 0 1 1.32.69l-.35.36a1.11 1.11 0 0 0-.95-.54c-.93 0-1.37 1.09-1.37 2.44s.46 2.44 1.38 2.44a1.13 1.13 0 0 0 1-.62l.35.36a1.53 1.53 0 0 1-1.38.82" fill="#603f99" data-color="1"/>
            <path d="M95.07 21v-2.58c0-.49-.07-1.07-.62-1.07s-.85.63-.85 1.34V21h-.52v-6h.52v2.82a1.06 1.06 0 0 1 1-.88c.85 0 1 .8 1 1.53V21Z" fill="#603f99" data-color="1"/>
            <path d="M98.53 21v-.74a.93.93 0 0 1-1 .85c-.44 0-1-.34-1-1.16 0-1.14.91-1.36 1.56-1.36h.31v-.21c0-.69-.28-1-.71-1a.92.92 0 0 0-.73.43l-.28-.33a1.34 1.34 0 0 1 1.06-.55c.83 0 1.15.56 1.15 1.59V21Zm-.07-2h-.32c-.51 0-1 .15-1 .9 0 .55.29.78.58.78.6 0 .79-.81.79-1.41Z" fill="#603f99" data-color="1"/>
            <path d="M100.16 21v-6h.53v6Z" fill="#603f99" data-color="1"/>
            <path d="M102 21v-6h.53v6Z" fill="#603f99" data-color="1"/>
            <path d="M104.11 19.1c0 .87.29 1.51.88 1.51a.8.8 0 0 0 .73-.59l.4.23a1.23 1.23 0 0 1-1.15.84c-.87 0-1.39-.8-1.39-2.09s.53-2.11 1.39-2.11 1.27.87 1.27 1.93v.28Zm.84-1.76c-.61 0-.83.86-.83 1.32h1.58c0-.78-.23-1.32-.7-1.32Z" fill="#603f99" data-color="1"/>
            <path d="M109.28 21v-2.58c0-.49-.08-1.07-.62-1.07s-.84.63-.84 1.34V21h-.53v-4h.51v.77a1.07 1.07 0 0 1 1-.9c.85 0 1 .8 1 1.53V21Z" fill="#603f99" data-color="1"/>
            <path d="M112.15 22.87a1.53 1.53 0 0 1-1.27-.66l.35-.36a1.12 1.12 0 0 0 .94.55c.7 0 .88-.63.88-1.49v-.65a1 1 0 0 1-1 .83c-.79 0-1.25-.89-1.25-2.12s.43-2.08 1.25-2.08a1 1 0 0 1 .94.8V17h.51v3.89c.06 1.11-.26 1.98-1.35 1.98m0-5.53c-.57 0-.83.72-.83 1.65s.26 1.64.83 1.64.85-.72.85-1.64-.24-1.65-.8-1.65Z" fill="#603f99" data-color="1"/>
            <path d="M115.15 19.1c0 .87.29 1.51.88 1.51a.8.8 0 0 0 .73-.59l.39.23a1.21 1.21 0 0 1-1.14.84c-.88 0-1.39-.8-1.39-2.09s.53-2.11 1.38-2.11 1.27.87 1.27 1.93v.28Zm.84-1.76c-.61 0-.83.86-.83 1.32h1.58c0-.78-.24-1.32-.74-1.32Z" fill="#603f99" data-color="1"/>
            <path d="M119.8 17.7a.75.75 0 0 0-.66-.39.61.61 0 0 0-.58.68c0 .42.21.56.64.72a1.18 1.18 0 0 1 .88 1.16 1.1 1.1 0 0 1-1.08 1.22 1.31 1.31 0 0 1-1.08-.57l.32-.34a.91.91 0 0 0 .77.47.66.66 0 0 0 .62-.74c0-.52-.37-.66-.74-.82a1 1 0 0 1-.79-1.08 1.08 1.08 0 0 1 1.09-1.12 1.15 1.15 0 0 1 1 .47Z" fill="#603f99" data-color="1"/>
            <path d="M121.14 1.89a1.18 1.18 0 1 1 2.35 0 1.18 1.18 0 1 1-2.35 0m2 0a.86.86 0 1 0-1.71 0 .86.86 0 1 0 1.71 0m-1.34-.59h.53c.28 0 .48.12.48.39a.34.34 0 0 1-.2.32l.24.45h-.35l-.18-.35h-.17v.35h-.35Zm.47.57a.16.16 0 1 0 0-.32h-.12v.32Z" fill="#acd037" data-color="2"/>
        </g>
    </g>
</svg>
