<?xml version="1.0" encoding="UTF-8"?>
<svg data-bbox="0 0 1047.5 200" xmlns="http://www.w3.org/2000/svg" viewBox="0 0 1048 200" height="200" width="1048" data-type="color">
    <g>
        <path fill="#2D2D2D" d="M0 7.849C0 2.706 2.706 0 7.849 0H21.38c5.14 0 7.848 2.706 7.848 7.849V60.08c3.789-8.118 12.99-13.802 27.334-13.802h14.343c34.37 0 47.363 14.615 47.363 51.693v92.289c0 5.136-2.708 7.846-7.851 7.846H96.886c-5.14 0-7.846-2.71-7.846-7.846V99.323c0-21.38-4.873-28.686-24.359-28.686H53.586c-19.488 0-24.357 6.764-24.357 28.686v90.937c0 5.136-2.708 7.846-7.848 7.846H7.849c-5.143 0-7.849-2.71-7.849-7.846z" clip-rule="evenodd" fill-rule="evenodd" data-color="1"/>
        <path fill="#2D2D2D" d="M240.323 185.925c-4.058 8.661-13.26 14.075-27.875 14.075h-14.343c-34.372 0-47.361-14.613-47.361-51.69V56.023c0-5.143 2.706-7.849 7.847-7.849h13.532c5.142 0 7.85 2.706 7.85 7.849v90.933c0 21.382 4.869 28.686 24.357 28.686h11.096c19.485 0 24.356-7.304 24.356-28.686V56.023c0-5.143 2.706-7.849 7.848-7.849h13.533c5.142 0 7.848 2.706 7.848 7.849v134.235c0 5.139-2.706 7.847-7.848 7.847h-10.014c-4.873 0-7.037-1.897-8.389-5.414z" clip-rule="evenodd" fill-rule="evenodd" data-color="1"/>
        <path fill="#2D2D2D" d="M303.027 7.849c0-5.143 2.706-7.849 7.849-7.849h13.53c5.143 0 7.851 2.706 7.851 7.849V59.54c4.058-7.579 13.26-13.263 27.875-13.263h14.614c34.642 0 47.631 14.615 47.631 51.693v50.338c0 37.074-12.989 51.69-47.631 51.69h-15.155c-14.345 0-23.818-5.414-27.878-14.075l-2.434 6.768c-1.354 3.519-3.519 5.414-8.39 5.414h-10.013c-5.143 0-7.849-2.71-7.849-7.846zm90.122 91.474c0-21.38-4.872-28.686-24.358-28.686h-12.178c-19.486 0-24.356 7.307-24.356 28.686v47.632c0 21.379 4.87 28.688 24.356 28.688h12.178c19.486 0 24.358-7.309 24.358-28.688z" clip-rule="evenodd" fill-rule="evenodd" data-color="1"/>
        <path fill="#2D2D2D" d="M743.352 85.79c0-11.095-4.87-16.238-21.648-16.238h-7.038c-16.777 0-21.648 5.143-21.648 16.239v4.87c0 10.286 3.245 12.992 20.025 17.321l30.04 7.579c25.71 6.497 31.665 12.448 31.665 36.806v7.579c0 24.898-8.932 40.054-47.903 40.054h-12.179c-38.971 0-47.9-15.156-47.9-40.054v-2.979c0-5.141 2.704-7.849 7.845-7.849h12.719c5.143 0 7.849 2.708 7.849 7.849v3.52c0 11.098 4.875 16.239 21.652 16.239h7.847c16.781 0 21.652-5.141 21.652-16.239v-7.307c0-10.285-3.247-12.991-20.025-17.321l-30.042-7.578c-25.708-6.497-31.663-12.45-31.663-36.806v-5.143c0-24.898 8.929-40.053 47.902-40.053h11.367c38.971 0 47.9 15.155 47.9 40.053v2.978c0 5.142-2.704 7.846-7.847 7.846h-12.721c-5.141 0-7.849-2.704-7.849-7.846z" clip-rule="evenodd" fill-rule="evenodd" data-color="1"/>
        <path fill="#2D2D2D" d="M830.834 130.717v16.239c0 21.378 4.871 28.686 24.358 28.686h12.178c15.695 0 22.461-4.603 23.815-18.132.542-5.142 2.976-7.848 8.119-7.848h13.53c5.144 0 7.85 2.706 7.85 7.848 0 5.955-1.895 14.074-4.06 19.484-7.305 17.864-25.169 23.006-47.36 23.006h-15.967c-38.16 0-51.691-14.886-51.691-51.962V98.51c0-37.075 13.531-52.231 51.691-52.231h15.967c38.16 0 51.692 15.156 51.692 52.231v24.359c0 5.14-2.708 7.848-7.849 7.848zm60.893-31.394c0-21.38-4.873-28.688-24.357-28.688h-12.178c-19.487 0-24.358 7.308-24.358 28.688v10.283h60.893z" clip-rule="evenodd" fill-rule="evenodd" data-color="1"/>
        <path fill="#2D2D2D" d="M952.324 7.849c0-5.143 2.708-7.849 7.849-7.849h13.53c5.142 0 7.85 2.706 7.85 7.849V190.26c0 5.136-2.708 7.846-7.85 7.846h-13.53c-5.141 0-7.849-2.71-7.849-7.846z" clip-rule="evenodd" fill-rule="evenodd" data-color="1"/>
        <path fill="#2D2D2D" d="M1018.27 7.849c0-5.143 2.71-7.849 7.85-7.849h13.53c5.15 0 7.85 2.706 7.85 7.849V190.26c0 5.136-2.7 7.846-7.85 7.846h-13.53c-5.14 0-7.85-2.71-7.85-7.846z" clip-rule="evenodd" fill-rule="evenodd" data-color="1"/>
        <path fill="#FF9300" d="M504.694 139.706h79.579l20.234-33.289H484.38z" clip-rule="evenodd" fill-rule="evenodd" data-color="2"/>
        <path fill="#E86250" d="M536.79 192.305c7.776 12.741 15.526-.016 15.526-.016l16.785-27.615h-49.17z" clip-rule="evenodd" fill-rule="evenodd" data-color="3"/>
        <path fill="#FEC65D" d="M624.794 48.158H463.948c-15.117 0-7.345 12.741-7.345 12.741l12.539 20.55H619.68l12.481-20.536c7.75-12.755-7.367-12.755-7.367-12.755" clip-rule="evenodd" fill-rule="evenodd" data-color="4"/>
    </g>
</svg>
