<?xml version="1.0" encoding="UTF-8"?>
<svg data-bbox="0 0 480 209.81" viewBox="0 0 480 209.81" width="480" height="209.81" xmlns="http://www.w3.org/2000/svg" data-type="ugc">
    <g>
        <g>
            <path d="M58.48 179.11c0-9 7-15.6 16.5-15.6s16.49 6.59 16.49 15.6S84.45 194.7 75 194.7s-16.52-6.64-16.52-15.59m25.93 0c0-5.74-4-9.65-9.43-9.65s-9.43 3.91-9.43 9.65 4 9.64 9.43 9.64 9.43-3.91 9.43-9.64" fill="#2C5AA0"/>
            <path d="M121.51 182.6c0 7.27-5.05 11.92-11.55 11.92a9 9 0 0 1-7-2.8v10.82h-6.71V171h6.42v2.66a9 9 0 0 1 7.29-3c6.5 0 11.55 4.66 11.55 11.94m-6.81 0c0-4-2.54-6.43-5.9-6.43s-5.91 2.42-5.91 6.43 2.54 6.41 5.91 6.41 5.9-2.41 5.9-6.41" fill="#2C5AA0"/>
            <path d="M148.56 184.49H131c.65 2.88 3.09 4.65 6.63 4.65a7.84 7.84 0 0 0 5.81-2.24l3.58 3.87c-2.16 2.46-5.38 3.75-9.56 3.75-8 0-13.23-5-13.23-11.92s5.3-11.94 12.37-11.94c6.8 0 12.06 4.57 12.06 12 .03.54-.06 1.28-.1 1.83m-17.63-3.92h11.42a5.79 5.79 0 0 0-11.42 0" fill="#2C5AA0"/>
            <path d="M176.87 180.92v13.26h-6.74v-12.24c0-3.74-1.72-5.47-4.69-5.47-3.22 0-5.55 2-5.55 6.25v11.46h-6.72V171h6.41v2.71a10.2 10.2 0 0 1 7.68-3.06c5.46.01 9.61 3.21 9.61 10.27" fill="#2C5AA0"/>
            <path d="m181 191.21 2.37-5.25a17.76 17.76 0 0 0 10 3.13c4.13 0 5.81-1.37 5.81-3.22 0-5.64-17.52-1.76-17.52-13 0-5.12 4.13-9.39 12.7-9.39a20.1 20.1 0 0 1 10.47 2.68l-2.16 5.3a16.93 16.93 0 0 0-8.35-2.38c-4.14 0-5.73 1.55-5.73 3.44 0 5.56 17.52 1.73 17.52 12.8 0 5.05-4.17 9.35-12.79 9.35-4.79.03-9.61-1.38-12.32-3.46" fill="#2C5AA0"/>
            <path d="M233 184.49h-17.55c.65 2.88 3.11 4.65 6.64 4.65a7.88 7.88 0 0 0 5.83-2.24l3.57 3.87c-2.16 2.46-5.39 3.75-9.57 3.75-8 0-13.22-5-13.22-11.92s5.3-11.94 12.36-11.94c6.81 0 12.06 4.57 12.06 12 0 .54-.12 1.28-.12 1.83m-17.62-3.92h11.42a5.8 5.8 0 0 0-11.43 0Z" fill="#2C5AA0"/>
            <path d="M261.3 180.92v13.26h-6.73v-12.24c0-3.74-1.71-5.47-4.69-5.47-3.23 0-5.56 2-5.56 6.25v11.46h-6.72V171h6.4v2.71a10.17 10.17 0 0 1 7.67-3.06c5.49.01 9.63 3.21 9.63 10.27" fill="#2C5AA0"/>
            <path d="m265.14 192 2.24-4.82a15.76 15.76 0 0 0 8.05 2.25c3.1 0 4.27-.82 4.27-2.12 0-3.79-14 .08-14-9.16 0-4.4 4-7.51 10.73-7.51a19.1 19.1 0 0 1 8.92 2l-2.24 4.78a13.27 13.27 0 0 0-6.68-1.73c-3 0-4.31 1-4.31 2.16 0 4 14 .12 14 9.25 0 4.32-4 7.37-10.94 7.37a19.9 19.9 0 0 1-10.04-2.47" fill="#2C5AA0"/>
            <path d="M312.82 184.49h-17.54c.65 2.88 3.12 4.65 6.65 4.65a7.85 7.85 0 0 0 5.8-2.24l3.58 3.87c-2.15 2.46-5.39 3.75-9.56 3.75-8 0-13.23-5-13.23-11.92s5.3-11.94 12.37-11.94c6.8 0 12.06 4.57 12.06 12 .05.54-.09 1.28-.13 1.83m-17.61-3.92h11.41a5.78 5.78 0 0 0-11.41 0" fill="#2C5AA0"/>
            <path d="M330.1 164h7v24.5h15.1v5.68h-22.1Z" fill="#2C5AA0"/>
            <path d="M376.14 181v13.22h-6.28v-2.92c-1.25 2.1-3.66 3.22-7.06 3.22-5.43 0-8.67-3-8.67-7s2.9-6.93 9.95-6.93h5.34c0-2.89-1.72-4.57-5.34-4.57a11.07 11.07 0 0 0-6.67 2.17l-2.41-4.73a17.8 17.8 0 0 1 10-2.8c7.06 0 11.14 3.28 11.14 10.34m-6.72 5.9v-2.37h-4.6c-3.14 0-4.14 1.16-4.14 2.71s1.43 2.8 3.79 2.8a5 5 0 0 0 4.95-3.18Z" fill="#2C5AA0"/>
            <path d="M407.46 182.6c0 7.27-5 11.92-11.54 11.92a9.06 9.06 0 0 1-7.28-3v2.66h-6.41v-32h6.71v11.24a9 9 0 0 1 7-2.8c6.49.04 11.52 4.7 11.52 11.98m-6.8 0c0-4-2.54-6.43-5.9-6.43s-5.91 2.42-5.91 6.43 2.55 6.41 5.91 6.41 5.9-2.41 5.9-6.41" fill="#2C5AA0"/>
            <path d="m409.71 192 2.29-4.8a15.84 15.84 0 0 0 8.05 2.25c3.1 0 4.27-.82 4.27-2.12 0-3.79-14 .08-14-9.16 0-4.4 4-7.51 10.72-7.51a19 19 0 0 1 8.91 2l-2.23 4.78a13.25 13.25 0 0 0-6.68-1.73c-3 0-4.31 1-4.31 2.16 0 4 14 .12 14 9.25 0 4.32-4 7.37-10.93 7.37-3.97.03-7.93-1.05-10.09-2.49" fill="#2C5AA0"/>
            <path d="M75.37 149.21a74.6 74.6 0 1 1 73.84-75.37v.65a74.26 74.26 0 0 1-73.76 74.72h-.06" fill="#3e87c8"/>
            <path fill="#f9b233" d="M480 149.21H332.24V.01z"/>
            <path fill="#e04125" d="M314.54.09v149.13H166.8V.09z"/>
            <path fill="#ffffff" d="m205.62 101.86 62.97-62.96 7.12 7.13L212.75 109z"/>
            <path fill="none" d="M480 0v209.81H0V0z"/>
        </g>
    </g>
</svg>
