<?xml version="1.0" encoding="UTF-8"?>
<svg data-bbox="0 0 1200 398" height="398" width="1200" xmlns="http://www.w3.org/2000/svg" data-type="ugc">
    <g>
        <path fill="#FEB300" d="M0 0h1200v398H0z"/>
        <path fill="#241E15" d="m175.482 96.177 2.632 1.491 2.995 1.686 3.204 1.834 3.348 1.896c9.57 5.434 19.073 10.98 28.566 16.545a1474 1474 0 0 0 16.398 9.434 1676 1676 0 0 1 22.625 13.125l2.909 1.713 2.67 1.58 2.372 1.403C265 148 265 148 266 149c.147 1.41.228 2.825.281 4.24l.11 2.774.103 3.067.117 3.213c.34 9.825.549 19.652.714 29.481.114 6.604.273 13.2.54 19.8.257 6.382.394 12.757.45 19.144q.062 3.64.252 7.275c.774 15.422.774 15.422-2.568 22.006-5.931 6.004-13.558 9.452-21.212 12.767-3.487 1.543-6.652 3.372-9.905 5.355l-5.758 3.316-9.812 5.654q-6.716 3.87-13.428 7.743a4963 4963 0 0 1-6.578 3.786c-5.032 2.895-10.046 5.81-15.022 8.801l-2.656 1.583a431 431 0 0 0-4.845 2.936l-2.15 1.278-1.848 1.123c-2.375.876-3.427.538-5.786-.342a101 101 0 0 1-4.824-2.59l-2.84-1.61-3.023-1.737-3.133-1.785a1456 1456 0 0 1-19.84-11.546c-5.436-3.216-10.913-6.357-16.402-9.482a2824 2824 0 0 1-23.75-13.687l-3.018-1.755-2.877-1.679-2.515-1.466L82 265l-1.99-.874c-2.365-1.17-4.126-2.268-6.01-4.126-1.168-3.606-1.013-7.086-.908-10.848l-.003-3.313c.005-3.61.067-7.217.13-10.827q.022-3.756.034-7.512c.028-5.914.09-11.828.171-17.742.098-7.396.141-14.793.186-22.19.085-13.19.22-26.378.39-39.568l2.079-1.157c12.265-6.833 24.516-13.664 36.546-20.905 9.329-5.57 18.71-11.027 28.196-16.325 4.593-2.568 9.15-5.176 13.656-7.898l2.633-1.577q2.445-1.469 4.867-2.977l2.187-1.309 1.89-1.162c3.508-1.243 6.18-.053 9.428 1.487"/>
        <path fill="#FDB302" d="M83 160a81 81 0 0 1 10.29 4.871l3.073 1.723 3.262 1.844 3.383 1.903a2138 2138 0 0 1 26.736 15.346c3.033 1.765 6.073 3.521 9.112 5.278a3881 3881 0 0 1 17.69 10.277 3406 3406 0 0 0 32.329 18.696c20.8 11.865 41.54 23.825 62.125 36.062-1.268 3.805-2.431 4.11-5.871 6.047l-3.139 1.787-3.428 1.916-3.54 2.01q-3.682 2.09-7.37 4.172c-5.573 3.15-11.11 6.363-16.652 9.568l-6.414 3.691q-6.03 3.476-12.025 7.006-3.598 2.117-7.202 4.222a1076 1076 0 0 0-5.086 3.01l-3.109 1.817-2.736 1.615C172 304 172 304 168 304c-2.401-1.082-2.401-1.082-5.047-2.59l-2.947-1.667L157 298l-2.771-1.598a1643 1643 0 0 1-8.479-4.964A1542 1542 0 0 0 121.5 277.5a1815 1815 0 0 1-24.75-14.187l-3.123-1.82c-7.231-4.23-7.231-4.23-10.627-6.493-.286-3.05-.378-5.896-.34-8.948l-.002-2.808c.002-3.074.026-6.147.049-9.22q.009-3.192.013-6.382c.011-5.606.04-11.212.074-16.818.03-5.717.044-11.435.06-17.152q.05-16.836.146-33.672"/>
        <path fill="#FCB302" d="M168 104c3.787.46 6.502 1.651 9.754 3.598l2.795 1.654 3.013 1.81q3.252 1.926 6.504 3.848l3.438 2.036c5.213 3.073 10.475 6.061 15.735 9.052a4532 4532 0 0 1 29.323 16.814l3.065 1.76 2.814 1.635 2.46 1.421c1.982 1.295 3.504 2.632 5.099 4.372a8809 8809 0 0 1-50 29 43467 43467 0 0 0-17.638 10.166l-3.1 1.787-2.72 1.568a87 87 0 0 0-5.12 3.232C171 199 171 199 168.956 198.833c-2.189-.932-4.213-1.976-6.273-3.169l-2.534-1.458-2.713-1.581-2.843-1.641q-4.3-2.487-8.594-4.984l-4.695-2.715a5889 5889 0 0 1-9.137-5.293 3231 3231 0 0 0-11.68-6.734C97.99 158.33 97.99 158.33 88 152c2.661-2.84 5.173-4.869 8.578-6.742l2.73-1.519 2.942-1.614q3.143-1.749 6.285-3.504l3.258-1.817c5-2.813 9.948-5.712 14.894-8.617 10.449-6.126 20.956-12.144 31.49-18.122l3.444-1.96 3.076-1.745c2.19-1.165 2.19-1.165 3.303-2.36"/>
        <path fill="#FCB303" d="M257 159v90c-18.343-9.172-18.343-9.172-27.187-14.437l-2.991-1.762a3950 3950 0 0 1-6.39-3.773c-5.645-3.336-11.302-6.652-16.958-9.969l-5.59-3.285c-6.25-3.674-12.52-7.3-18.884-10.774 2.111-2.273 4.162-3.812 6.867-5.32l2.388-1.346 2.62-1.459c8.863-5 17.665-10.094 26.438-15.25l3.69-2.166 7.357-4.32q8.691-5.108 17.39-10.202l3.103-1.823 2.819-1.65c.816-.477 1.631-.956 2.472-1.449C256 159 256 159 257 159"/>
        <path fill="#100801" d="M759 148v2l1.785.781c7.96 4.38 12.453 13.933 15.215 22.219.865 10.304 1.693 21.973-4 31l-1.285 2.082c-6.675 9.724-15.611 16.834-27.215 19.168-11.443 1.722-22.323.316-32.375-5.937-9.809-7.311-14.318-15.89-18.125-27.313-.837-12.74-.027-23.465 8-34l1.688-2.437c5.441-6.03 11.487-10.35 19.312-12.563l1.96-.617c12.2-3.52 24.162-.45 35.04 5.617m-44 7v2l-1.777.742c-5.465 3.093-9.897 9.893-11.782 15.844-1.934 10.577-.837 20.079 4.559 29.414 2.25 2.918 2.25 2.918 5 5l1.484 1.48c6.056 5.84 13.52 8.631 21.891 9.083 9.754-.432 18.752-4.448 25.684-11.278C766.86 199.28 769.392 191.48 769 181a96 96 0 0 0-2-11h-2l-.25-1.625c-2.236-7.081-7.522-11.658-13.75-15.375-12.783-5.214-23.917-4.858-36 2"/>
        <path fill="#181915" d="m412.566 141.678 2.875-.058 3.121-.026 3.215-.035q3.38-.028 6.76-.04a799 799 0 0 0 10.263-.144q3.287-.02 6.575-.031l3.072-.075c7.493.046 12.667 2.06 18.553 6.731 5.692 6.188 6.29 11.713 6.218 19.832-.259 3.756-1.06 6.084-3.218 9.168l-1.75 2.625c-3.364 3.55-8.406 7.247-13.414 7.473l-2.461-.035-2.477-.028L448 187a458 458 0 0 0 13.625 18.188l1.42 1.809a355 355 0 0 0 6.025 7.495c3.956 4.876 3.956 4.876 3.805 8.508-.29.66-.578 1.32-.875 2-3.666-.23-4.906-.907-7.579-3.52a178 178 0 0 1-2.671-3.292l-1.452-1.774c-3.782-4.66-7.4-9.442-10.947-14.285a197 197 0 0 0-5.39-6.851l-1.553-1.905a278 278 0 0 0-3.043-3.654c-3.396-4.174-3.396-4.174-3.233-7.062C437 181 437 181 438 180c3.708-.17 7.41-.297 11.123-.342 5.415-.19 8.555-1.102 12.877-4.658 3.637-4.001 3.355-8.227 3.398-13.379-.458-3.014-1.484-4.307-3.398-6.62v-2l-2.875-.938C456 151 456 151 454 150c-3.06-.157-6.102-.258-9.164-.316l-2.75-.063c-2.903-.066-5.807-.124-8.711-.183l-5.899-.131q-7.237-.16-14.476-.307l.006 2.84q.03 13.222.045 26.445.008 6.798.024 13.596.015 6.555.02 13.11.002 2.508.01 5.014.01 3.498.008 6.997l.011 2.114c-.01 4.77-.01 4.77-1.124 5.884-2.5.125-2.5.125-5 0-1.715-1.714-1.133-3.892-1.147-6.179l.001-2.246-.01-2.355c-.01-2.583-.011-5.165-.012-7.747l-.01-5.362q-.008-5.628-.008-11.256c0-4.817-.013-9.633-.03-14.45q-.016-5.54-.013-11.08-.002-2.664-.013-5.328c-.01-2.48-.007-4.961-.001-7.442l-.017-2.24c.036-5.799.974-7.541 6.826-7.637"/>
        <path fill="#211E10" d="M837 142c4.706.706 4.706.706 6 2 .089 2.666.115 5.307.098 7.973l-.003 2.141c-.006 2.65-.02 5.3-.033 7.948L843 180h53v-37l5-1c2.469 2.469 2.242 3.87 2.271 7.24l-.012 2.207.01 2.326c.01 2.545.003 5.089-.003 7.633l.005 5.29q.005 5.55-.01 11.097c-.012 4.749-.005 9.497.007 14.245q.009 5.464 0 10.928-.003 2.626.005 5.253c.005 2.445-.003 4.89-.014 7.334l.012 2.207c-.042 5.011-.042 5.011-2.271 7.24l-5-1v-37h-53c.04 12.132.04 12.132.09 24.263l.008 4.546.015 2.405c0 1.929-.05 3.858-.113 5.786-1 1-1 1-3.5 1.125C837 225 837 225 836 224c-.1-2.52-.136-5.013-.13-7.533l-.005-2.39q-.004-3.93.002-7.858 0-2.719-.003-5.437-.001-5.704.006-11.41.006-7.329-.004-14.658-.005-5.616 0-11.231 0-2.704-.002-5.407-.003-3.77.007-7.543l-.007-2.28c.022-5.139.022-5.139 1.136-6.253"/>
        <path fill="#191A15" d="m337.361 141.807 2.814-.049c4.286-.044 8.572-.085 12.859-.108a696 696 0 0 0 6.759-.082 784 784 0 0 1 9.766-.092l3.015-.068c7.072.02 12.558 1.543 18.426 5.592 6.425 6.754 7.476 12.46 7.414 21.664-.791 6.376-4.385 10.252-8.727 14.71-6.704 4.055-13.379 5.067-21.097 4.919l-2.585-.013a998 998 0 0 1-8.068-.093q-2.756-.022-5.513-.04c-4.475-.03-8.949-.09-13.424-.147v37l-4 2c-2.332-1.68-3.817-3.045-4.371-5.935-.126-2.46-.13-4.892-.09-7.354l.003-2.726q.01-2.847.046-5.694c.037-2.913.041-5.824.04-8.736q.015-2.766.036-5.532l.007-2.648c.097-6.143.097-6.143 2.329-8.375 1.978-.252 1.978-.252 4.43-.256l2.783-.02 3.017.002q3.156-.03 6.31-.062 4.981-.036 9.961-.045c3.202-.01 6.403-.043 9.604-.08l2.987.015c6.165-.087 9.88-.911 14.908-4.554 3.593-4.868 3.855-10.156 3-16-2.222-4.527-4.428-6.94-9-9-3.649-.461-7.28-.465-10.953-.477-1.056-.015-2.112-.03-3.2-.047-3.366-.047-6.731-.075-10.097-.101q-5.07-.055-10.14-.123-3.153-.04-6.307-.063l-2.863-.031-2.531-.02c-1.91-.138-1.91-.138-2.91-1.138-.124-2.5-.124-2.5 0-5 1.577-1.576 3.173-1.159 5.362-1.193"/>
        <path fill="#1B1B13" d="m624.506 141.823 2.833-.039 3.075-.022 3.162-.025q3.322-.02 6.643-.032c3.371-.017 6.742-.061 10.113-.105q3.228-.015 6.457-.026l3.037-.053c7.786.024 12.962 1.779 18.924 6.792 5.242 6.26 7.016 10.404 6.687 18.62-.868 6.085-2.96 10.97-7.703 14.985-4.313 2.929-7.738 5.21-13 5.196h-2.67l-2.885-.016-2.95-.005a4110 4110 0 0 1-9.354-.03l-6.332-.014q-7.771-.017-15.543-.049l.031 3.365c.037 4.11.06 8.222.079 12.333q.015 2.672.04 5.343c.025 2.557.036 5.113.045 7.67l.031 2.421c0 1.958-.104 3.914-.226 5.868l-2 2c-3.536-.536-3.536-.536-5-2-.114-3.08-.165-6.135-.168-9.215l-.01-2.806q-.008-2.945-.008-5.889c-.002-3.011-.02-6.022-.039-9.033q-.005-2.854-.006-5.71l-.022-2.742.01-2.538-.005-2.239C618 182 618 182 620 180c1.984-.252 1.984-.252 4.446-.255l2.792-.021 3.027.003 6.324-.063q4.994-.035 9.987-.045c3.21-.01 6.418-.043 9.627-.08l3.002.015c5.777-.082 9.247-.63 13.795-4.554 3.672-4.155 4.655-7.419 4.382-12.824-.82-4.663-3.38-7.31-6.856-10.31-4.848-2.565-8.918-2.433-14.323-2.405l-3.121-.036a1095 1095 0 0 0-9.832-.05 1910 1910 0 0 1-9.875-.072 578 578 0 0 0-6.137-.027l-2.792-.02-2.462-.004C620 149 620 149 618 147v-4c2.372-1.186 3.858-1.145 6.506-1.177"/>
        <path fill="#151916" d="m992.393 141.823 2.834-.039 3.09-.022 3.166-.025q3.33-.02 6.661-.032c3.38-.017 6.76-.061 10.14-.105q3.234-.015 6.47-.026l3.047-.053c7.429.023 12.764 1.523 18.441 6.409 5.265 6.272 7.286 11.296 7.063 19.55-.871 7.202-4.856 11.5-10.207 16.075-5.516 3.8-10.512 3.713-16.992 3.64l-2.871-.008a1907 1907 0 0 1-9.047-.062q-3.074-.016-6.147-.027-7.52-.035-15.04-.098l.015 3.38q.026 6.187.04 12.373.006 2.682.02 5.363.016 3.847.022 7.693l.015 2.436c0 1.919-.05 3.837-.113 5.755-1 1-1 1-3.562 1.063L987 225c-1.71-3.419-1.163-7.332-1.168-11.094l-.01-2.734q-.007-2.865-.007-5.73c-.002-2.93-.02-5.86-.04-8.79l-.005-5.558-.022-2.668c.023-6.197.023-6.197 2.252-8.426 1.985-.252 1.985-.252 4.446-.255l2.793-.021 3.027.003 6.324-.063q4.994-.035 9.987-.045c3.209-.01 6.417-.043 9.626-.08l3.003.015c7.086-.1 10.4-1.395 15.607-6.241 2.697-5.254 2.654-10.643 1.062-16.25-1.169-3.098-1.498-3.842-4.437-5.563L1037 151l-2-1a75 75 0 0 0-4.51-.174l-2.831-.04-3.065-.032-6.379-.1q-5.047-.072-10.093-.13c-3.239-.04-6.477-.092-9.716-.145l-3.065-.026-2.831-.05-2.498-.031C988 149 988 149 986 147c.72-4.755 1.786-5.122 6.393-5.177"/>
        <path fill="#231F0F" d="M912 142c2.094-.465 2.094-.465 5 0 2.515 2.19 4.467 4.805 6.5 7.438l1.823 2.286A713 713 0 0 1 931 159l1.917 2.474c3.727 4.818 7.418 9.661 11.083 14.526 3.85-1.283 5.25-3.607 7.563-6.75l2.675-3.555 1.382-1.85a882 882 0 0 1 6.63-8.72l1.258-1.64A221 221 0 0 1 973 142l5 1c.45 2.59.387 4.372-1.01 6.639-1.508 1.919-3.076 3.769-4.678 5.611q-1.786 2.122-3.566 4.25l-1.868 2.223c-3.104 3.763-6.055 7.64-9.003 11.527l-1.647 2.165A1981 1981 0 0 0 952 181c-.54.55-1.08 1.1-1.638 1.666-2.104 3.605-1.822 7.117-1.839 11.22l-.047 2.6c-.047 2.734-.075 5.467-.101 8.202q-.054 4.116-.123 8.234a707 707 0 0 0-.063 5.121c-.078 5.846-.078 5.846-1.189 6.957-2.5.125-2.5.125-5 0-1-1-1-1-1.03-4.563q.048-2.397.1-4.792.016-2.634.024-5.268c.008-2.764.03-5.523.108-8.286.324-12.215-.76-20.035-9.329-29.101l-1.441-1.468c-2.435-2.588-4.494-5.428-6.62-8.272-2.346-3.1-4.726-6.15-7.25-9.11l-2.25-2.64-2.011-2.281C911 147 911 147 911.293 144.219z"/>
        <path fill="#101820" d="M605 139c2.625-.187 2.625-.187 5 0q.034 16.597.052 33.196.007 7.707.023 15.413.016 7.43.02 14.86.003 2.843.01 5.684.01 3.965.009 7.93l.01 2.398c-.01 5.405-.01 5.405-1.124 6.519-2.5.125-2.5.125-5 0-1.736-1.736-1.132-3.98-1.147-6.295l.002-2.298-.01-2.41q-.013-3.963-.013-7.927l-.01-5.49q-.009-5.762-.007-11.525c0-4.929-.014-9.857-.031-14.786a3687 3687 0 0 1-.013-11.344q0-2.727-.013-5.452c-.01-2.54-.007-5.08 0-7.62-.007-.755-.012-1.51-.018-2.287.023-3.74.13-5.37 2.26-8.566"/>
        <path fill="#101718" d="m485.657 179.753 3.414.004 3.862-.009 4.192.022 4.282.001q4.489.003 8.978.023 5.76.023 11.52.02 4.423.001 8.844.013 2.124.006 4.248.006 2.966.006 5.933.022l3.414.012C547 180 547 180 549 181c.188 2.375.188 2.375 0 5-3.538 2.36-5.008 2.248-9.2 2.243l-3.872.01-4.186-.022-4.284-.002q-4.486-.002-8.973-.023c-3.841-.017-7.683-.02-11.524-.02q-4.421-.001-8.843-.013l-4.251-.006c-1.975-.002-3.95-.012-5.926-.021l-3.411-.012C482 188 482 188 481 187c-.187-2.437-.187-2.437 0-5 2-2 2-2 4.657-2.247"/>
        <path fill="#111617" d="m1065.55 179.88 3.439.007h3.882l4.227.016 4.3.004q5.67.007 11.339.025 5.781.013 11.562.02 11.35.016 22.701.048l2 5c-1.805 2.367-2.696 2.958-5.694 3.374l-3.29-.001-3.732.018-4.034-.027q-2.068-.001-4.136.001-4.332 0-8.665-.029c-3.702-.022-7.404-.023-11.107-.016q-4.269.003-8.539-.013-2.048-.006-4.095-.004c-1.908 0-3.816-.013-5.724-.028l-3.29-.014c-2.694-.26-2.694-.26-5.694-2.26 1.07-5.957 1.07-5.957 4.55-6.121"/>
        <path fill="#13151A" d="m621.018 180.88 2.685.007h3.033l3.299.016 3.358.004q5.335.01 10.67.03 3.605.008 7.212.014 8.862.017 17.725.05v4c-9.199 1.096-18.374 1.326-27.625 1.562l-4.778.13q-5.798.16-11.597.307l.031 3.365q.052 6.166.078 12.333.015 2.672.041 5.343c.025 2.557.036 5.113.045 7.67l.031 2.421c0 1.958-.104 3.915-.226 5.868l-2 2c-3.536-.535-3.536-.535-5-2-.102-3.09-.14-6.159-.133-9.25l-.003-2.813q0-2.95.005-5.902c.006-3.022 0-6.044-.006-9.066q0-2.859.004-5.719l-.006-2.759c.028-7.425.028-7.425 3.157-7.611"/>
        <path fill="#13181D" d="m1068.979 217.741 3.802-.02 4.126.013q2.108-.002 4.214-.006 4.418-.003 8.837.011c3.78.011 7.56.005 11.34-.007q4.35-.009 8.703 0 2.091.002 4.182-.005c1.946-.005 3.893.004 5.839.014l3.36.005C1126 218 1126 218 1128 220l-1 5h-65l-1-5c2.72-2.72 4.175-2.254 7.979-2.259"/>
        <path fill="#1D1A11" d="M1062 142q12.465-.07 24.93-.104 5.788-.014 11.575-.047 5.583-.032 11.166-.039 2.132-.004 4.265-.021a833 833 0 0 1 5.962-.016l3.432-.014C1126 142 1126 142 1128 144c-.536 3.536-.536 3.536-2 5-1.953.105-3.91.139-5.865.145l-3.802.02-4.142.003-4.218.01a3967 3967 0 0 1-8.855.007c-3.788 0-7.575.014-11.363.031q-4.358.015-8.717.013-2.094 0-4.19.013c-1.951.01-3.902.006-5.854 0l-3.368.005C1063 149 1063 149 1061 147c.375-2.625.375-2.625 1-5"/>
        <path fill="#1B1A12" d="m488.973 141.87 3.873-.01 4.217.007 4.293-.003q4.504-.003 9.009.005 5.785.007 11.571-.004 4.434-.004 8.869 0 2.133.001 4.268-.002 2.978-.002 5.955.007l3.43.002C547 142 547 142 548 143c.125 2.5.125 2.5 0 5-1.802 1.803-4.543 1.128-6.972 1.13l-3.873.01-4.217-.007-4.293.003q-4.505.003-9.009-.005-5.785-.007-11.572.003-4.434.005-8.868 0-2.134 0-4.268.003a1592 1592 0 0 1-5.955-.007l-3.43-.003C483 149 483 149 482 148c-.125-2.5-.125-2.5 0-5 1.803-1.802 4.544-1.127 6.973-1.129"/>
        <path fill="#232012" d="m489.887 217.855 3.741-.02q2.03 0 4.06-.003l4.147-.01q4.348-.009 8.696-.007c3.719 0 7.438-.014 11.157-.03q4.283-.016 8.565-.013 2.058-.002 4.115-.014c1.915-.01 3.83-.005 5.746 0l3.305-.005C546 218 546 218 548 220c-.375 2.625-.375 2.625-1 5q-12.49.035-24.982.052-5.799.007-11.599.024-5.592.015-11.184.02-2.139.002-4.276.01-2.985.01-5.97.008l-3.439.007C483 225 483 225 482 224a100 100 0 0 1 0-5c2.713-1.357 4.85-1.135 7.887-1.146"/>
        <path fill="#161711" d="m385 179 2 2c-2.75 4.875-2.75 4.875-5 6a68 68 0 0 1-4.266.205l-2.67.06-2.884.051-2.951.063q-4.677.097-9.354.184l-6.332.13c-5.18.108-10.362.207-15.543.307l-1 35h-4v-40h2v-2h49z"/>
        <path fill="#211D08" d="m406 144 3 1v78h2l-.007-2.84q-.03-13.222-.045-26.445-.007-6.798-.023-13.596-.016-6.555-.02-13.11-.003-2.508-.01-5.014-.01-3.498-.009-6.997l-.01-2.114c.01-4.77.01-4.77 1.124-5.884 3.03-.089 6.037-.115 9.066-.098l2.754.005c2.914.005 5.828.018 8.743.03q2.954.008 5.912.014 7.262.017 14.525.049v2h-40l.035 16.371.014 10.24q.008 8.136.026 16.27.016 6.555.02 13.11.003 2.508.01 5.014.01 3.498.009 6.997l.01 2.114c-.01 4.77-.01 4.77-1.124 5.884-2.5.125-2.5.125-5 0-1.72-1.72-1.12-3.909-1.124-6.201l.01-2.256v-2.365c0-2.592.009-5.184.016-7.776l.005-5.376q.006-7.09.024-14.18.014-7.229.02-14.457.016-14.194.049-28.389"/>
        <path fill="#101720" d="M897 142h4v81h-4v-37l-2-1q.177-8.944.372-17.89.066-3.045.125-6.09.088-4.368.187-8.735l.05-2.768c.152-6.403.152-6.403 1.266-7.517"/>
        <path fill="#332A0E" d="M1037 180c-4.847 2.51-9.567 2.347-14.895 2.414l-2.87.059c-3.016.06-6.032.106-9.048.152l-6.146.117c-5.014.098-10.027.177-15.041.258l-1 40h3l1-37 44-1v-2c4.43-2.092 4.43-2.092 7.313-1.625L1045 182c-4.548 3.133-7.728 5.13-13.288 5.114h-2.608l-2.803-.016-2.88-.005c-3.036-.005-6.072-.018-9.109-.03q-3.086-.008-6.173-.014-7.57-.017-15.139-.049l.016 3.38q.026 6.187.039 12.373.008 2.682.02 5.363c.013 2.565.018 5.129.023 7.693l.015 2.436c0 1.919-.051 3.837-.113 5.755-1 1-1 1-3.562 1.063L987 225c-1.71-3.419-1.163-7.332-1.168-11.094l-.01-2.734q-.007-2.865-.007-5.73c-.002-2.93-.02-5.86-.04-8.79q-.005-2.779-.005-5.558l-.022-2.668c.023-6.197.023-6.197 2.252-8.426 2.011-.285 2.011-.285 4.51-.335l2.831-.07 3.065-.044 3.139-.066q3.288-.066 6.577-.118c3.364-.054 6.728-.124 10.093-.197l6.379-.12 3.065-.062 2.831-.041 2.499-.043C1035 179 1035 179 1037 180"/>
        <path fill="#141916" d="M333 142h48l2 4c-4.892 2.575-9.662 2.272-15.043 2.23h-2.924a1322 1322 0 0 1-6.1-.024c-3.12-.018-6.24-.02-9.36-.02q-2.965-.007-5.928-.018l-2.838-.003-2.62-.02-2.31-.011C334 148 334 148 332 147z"/>
        <path fill="#DEA51E" d="m770.125 250.938 3.32.027L776 251c1.187 3.561 1.097 6.439 1.063 10.188l-.028 3.855L777 268c-4.361.984-8.24 1.762-12.445-.058-2.18-1.504-3.89-2.88-5.555-4.942-.5-3.375-.5-3.375 0-6h2l.375-2.437.625-2.562c2.765-1.383 5.046-1.096 8.125-1.063"/>
        <path fill="#413102" d="M605 139c2.625-.187 2.625-.187 5 0q.034 16.597.052 33.196.007 7.707.023 15.413.016 7.43.02 14.86.003 2.843.01 5.684.01 3.965.009 7.93l.01 2.398c-.01 5.405-.01 5.405-1.124 6.519-2.5.125-2.5.125-5 0-1.736-1.736-1.132-3.98-1.147-6.295l.002-2.298-.01-2.41q-.013-3.963-.013-7.927l-.01-5.49q-.009-5.762-.007-11.525c0-4.929-.014-9.857-.031-14.786a3687 3687 0 0 1-.013-11.344q0-2.727-.013-5.452c-.01-2.54-.007-5.08 0-7.62-.007-.755-.012-1.51-.018-2.287.023-3.74.13-5.37 2.26-8.566m0 2c-1.528 3.055-1.08 6.223-1.022 9.57l.03 2.366c.032 2.587.073 5.173.113 7.76l.072 5.372q.096 7.077.202 14.154.104 7.22.2 14.438.195 14.17.405 28.34h4v-82z"/>
        <path fill="#1F1D10" d="m563.576 191.861 2.361.006 2.41-.003q2.528 0 5.054.006 3.881.005 7.763-.007 2.448 0 4.898.004l2.361-.006c5.462.024 5.462.024 6.577 1.139.125 2.5.125 2.5 0 5-1 1-1 1-4.419 1.113q-2.277 0-4.554-.015l-2.417-.005c-2.558-.005-5.115-.018-7.673-.03l-5.19-.014q-6.374-.017-12.747-.05a129 129 0 0 1-1-6c1.788-1.787 4.195-1.128 6.576-1.138"/>
        <path fill="#5E460B" d="m334.91 179.76 2.355.013h2.67l2.884.032 2.951.009c3.118.011 6.236.036 9.354.062q3.165.015 6.332.027 7.772.033 15.543.098v1h-42v2h-2v40h4l-.016-3.198q-.026-5.85-.039-11.701-.008-2.536-.02-5.072-.017-3.637-.023-7.276l-.015-2.304c0-1.817.051-3.634.113-5.45 1-1 1-1 4.785-1.113q2.531 0 5.063.016l2.686.004q4.264.01 8.529.031l5.767.014q7.085.016 14.17.049v1h-39v37l-4 2c-2.332-1.68-3.817-3.045-4.371-5.936-.125-2.46-.13-4.891-.09-7.354l.003-2.726q.01-2.847.046-5.693c.037-2.913.041-5.824.041-8.737q.014-2.766.035-5.531l.007-2.648c.128-8.098.128-8.098 4.24-8.616"/>
        <path fill="#2B2007" d="M837 142c2.063.438 2.063.438 4 1l-3 1v79h3v-36h2a6590 6590 0 0 1 .055 15.753q.008 2.682.02 5.363c.013 2.565.018 5.129.023 7.693l.015 2.436c0 1.919-.051 3.837-.113 5.755-1 1-1 1-3.5 1.125C837 225 837 225 836 224c-.1-2.52-.136-5.013-.13-7.533l-.005-2.39q-.004-3.93.002-7.858 0-2.719-.003-5.437-.001-5.704.006-11.41.006-7.329-.004-14.658-.005-5.616 0-11.231 0-2.704-.002-5.407-.003-3.77.007-7.543l-.007-2.28c.022-5.139.022-5.139 1.136-6.253"/>
        <path fill="#E6AC16" d="m880 252-.625 2.375L879 257l2 2c.3 1.875.3 1.875.313 4l.05 2.125L881 267c-3.693 2.462-6.715 2.792-11 2-3-2-4.613-3.4-5.477-6.973-.254-3.578.205-5.664 2.352-8.527 4.4-2.112 8.329-1.835 13.125-1.5"/>
        <path fill="#463003" d="M1083 252c3.22 2.176 3.91 3.693 5 7.438 0 3.562 0 3.562-1.5 6.437-3.3 2.804-5.178 3.274-9.5 3.125-2.793-1.338-3.873-2.562-6-5-.632-3.869-.299-6.782 2-10 3.214-2.296 6.13-2.484 10-2"/>
        <path fill="#3E2A00" d="M503 251.438c3.883.728 5.462 1.502 8 4.563.715 3.144.715 5.855 0 9-2.538 3.06-4.117 3.834-8 4.562-4.136-.776-5.55-2.176-8-5.562-.625-3.5-.625-3.5 0-7 2.45-3.387 3.864-4.787 8-5.563"/>
        <path fill="#201C18" d="M184 194v3h2v2h-4v2h-2q-.755 2.437-1.5 4.875l-.844 2.742c-.745 2.292-.745 2.292-.656 4.383-4.394-1.596-8.29-3.78-12.312-6.125l-1.956-1.129q-2.368-1.37-4.732-2.746v-3c3.333-3 3.333-3 6-3v2h3v2l8-2v-2c6.75-3 6.75-3 9-3"/>
        <path fill="#503E0E" d="m485.657 179.753 3.414.004 3.862-.009 4.192.022 4.282.001q4.489.003 8.978.023 5.76.023 11.52.02 4.423.001 8.844.013 2.124.006 4.248.006 2.966.006 5.933.022l3.414.012C547 180 547 180 549 181c.188 2.375.188 2.375 0 5-3.538 2.36-5.008 2.248-9.2 2.243l-3.872.01-4.186-.022-4.284-.002q-4.486-.002-8.973-.023c-3.841-.017-7.683-.02-11.524-.02q-4.421-.001-8.843-.013l-4.251-.006c-1.975-.002-3.95-.012-5.926-.021l-3.411-.012C482 188 482 188 481 187c-.187-2.437-.187-2.437 0-5 2-2 2-2 4.657-2.247M485 181l-1 4c1.052 1.276 1.052 1.276 3.436 1.12l3.277-.006h3.701l4.028-.016 4.098-.004q5.403-.007 10.806-.025 5.51-.014 11.02-.02 10.817-.016 21.634-.049l1-5z"/>
        <path fill="#DEA721" d="M824 251h12l1 4-1 1a236 236 0 0 0-1 7h-6v2h7v5c-2.38 1.19-3.915 1.133-6.562 1.125l-2.442.008C825 271 825 271 824 270a63 63 0 0 1-.098-4.254l.01-2.588.025-2.72.014-2.733q.02-3.353.049-6.705"/>
        <path fill="#2B2000" d="M632 252c9.222 0 9.222 0 13 3 2 3 2 3 2 6.438-1 3.562-1 3.562-3.562 6C640 269 640 269 632 269z"/>
        <path fill="#E2AE2A" d="M257 159v90l-10-5 4-1 4 3v-83l-6 2v2c-4.625 2.125-4.625 2.125-8 1q3.717-2.254 7.438-4.5l2.142-1.3c5.307-3.2 5.307-3.2 6.42-3.2"/>
        <path fill="#E4AF2B" d="M1052 170h1c.323 4.634-.136 7.287-3 11l-3 1-.75 1.938c-1.25 2.062-1.25 2.062-4.625 3.25L1038 188l-1.974.544c-2.091.47-3.92.576-6.06.57h-2.365l-2.523-.016-2.606-.005c-2.74-.005-5.481-.018-8.222-.03q-2.79-.008-5.582-.014c-4.556-.01-9.112-.03-13.668-.049v35h-3l1-37 9.125-.078q4.403-.06 8.807-.13 3.047-.042 6.093-.063c2.93-.022 5.858-.068 8.788-.12l2.725-.003c6.882-.158 12.22-1.808 17.485-6.352 2.622-3.281 4.738-6.164 5.977-10.254"/>
        <path fill="#523E0D" d="m1065.55 179.88 3.439.007h3.882l4.227.016 4.3.004q5.67.007 11.339.025 5.781.013 11.562.02 11.35.016 22.701.048l2 5c-1.805 2.367-2.696 2.958-5.694 3.374l-3.29-.001-3.732.018-4.034-.027q-2.068-.001-4.136.001-4.332 0-8.665-.029c-3.702-.022-7.404-.023-11.107-.016q-4.269.003-8.539-.013-2.048-.006-4.095-.004c-1.908 0-3.816-.013-5.724-.028l-3.29-.014c-2.694-.26-2.694-.26-5.694-2.26 1.07-5.957 1.07-5.957 4.55-6.121M1064 181l-1 5q11.853.035 23.705.052 5.504.007 11.007.024 5.31.015 10.62.02 3.015.005 6.028.018h3.7l3.263.007c2.78-.003 2.78-.003 5.677-1.12v-4z"/>
        <path fill="#2D1C05" d="M257 160h2v90c-4 1-4 1-6.035.04l-2.028-1.415c-2.41-1.657-4.125-2.688-6.937-3.625v-2h-2l1-2 13 7z"/>
        <path fill="#0E1820" d="M989 143q8.94-.075 17.877-.11 3.036-.015 6.072-.04c2.922-.025 5.844-.037 8.766-.045l2.71-.032c5.512 0 11.426.042 16.575 2.227l1 3c-5.75 1.125-5.75 1.125-8 0a74 74 0 0 0-4.45-.205l-2.79-.06-3.018-.051-3.085-.063q-4.89-.097-9.782-.184l-6.621-.13q-8.127-.162-16.254-.307z"/>
        <path fill="#D29F25" d="m902 140 1 3h2q.106 15.764.155 31.528.022 7.32.071 14.639.048 7.06.059 14.122.008 2.696.032 5.393c.022 2.514.025 5.028.024 7.542l.032 2.262c-.017 2.913-.05 5.01-1.644 7.5C902 227 902 227 898 227v-2l4-2q.141-15.372.207-30.746.03-7.137.095-14.275.063-6.885.078-13.772.01-2.63.043-5.26c.029-2.451.033-4.902.031-7.354l.044-2.206c.026-2.258.026-2.258-.498-5.387-1.875-2.015-1.875-2.015-4-3z"/>
        <path fill="#0E171E" d="M620 143h46l-1 4h-45z"/>
        <path fill="#2F2502" d="M620 142a5123 5123 0 0 1 20.233-.11 2172 2172 0 0 0 6.882-.04c3.299-.025 6.598-.036 9.897-.045l3.103-.032h2.911l2.55-.014c2.76.274 4.905 1.107 7.424 2.241v1l-7 1v-3h-46zm-2 1h2v4l1.726-.045q8.88-.227 17.763-.437 3.315-.08 6.631-.166 4.762-.122 9.525-.23l3.002-.083 2.79-.06 2.456-.061C666 146 666 146 669 147v3q-10.413-.14-20.825-.317-3.544-.059-7.09-.105c-3.39-.045-6.78-.103-10.17-.164l-3.218-.035-2.972-.06-2.624-.04C620 149 620 149 618 147z"/>
        <path fill="#1F1A18" d="M112 274c5.589.488 9.491 1.933 14.313 4.75l1.876 1.016c2.979 1.707 4.647 2.913 6.229 6L135 288c-1.25 1.5-1.25 1.5-3 3h-4v-2h-2v-2h-3v-3l-3.312-.312c-3.544-.661-4.62-.89-6.688-3.688h2l-1.5-1.875C112 276 112 276 112 274"/>
        <path fill="#111822" d="m335 181 1 3h2l-1 39h-4v-40h2z"/>
        <path fill="#493303" d="M1096 252c8 0 8 0 10.5 1.125 1.5 1.875 1.5 1.875 1.875 4.813-.375 3.062-.375 3.062-1.5 5.187L1106 265c.783 2.235.783 2.235 2 4-1.875-.312-1.875-.312-4-1l-2-3-3-1v5h-3z"/>
        <path fill="#3F3717" d="m406 144 3 1v78l-3 1z"/>
        <path fill="#423509" d="m1065.632 217.76 3.378.013h3.822l4.144.032 4.23.009c3.711.007 7.423.027 11.136.05 3.787.02 7.574.029 11.36.039q11.149.033 22.298.098v1h-62l-1 5 63-1 1-3c.562 1.937.562 1.937 1 4-1 1-1 1-3.588 1.12l-3.493-.007h-3.943l-4.293-.016-4.367-.004q-5.759-.007-11.516-.025-5.873-.014-11.744-.02-11.527-.016-23.056-.048c-.625-2.375-.625-2.375-1-5 2-2 2-2 4.632-2.241"/>
        <path fill="#C29523" d="M625 187h43l-1 2h-40v34h-2z"/>
        <path fill="#E3AB23" d="M1059 144h2l2 4q12.243.141 24.487.207 5.685.03 11.37.095 5.486.063 10.97.078 2.095.01 4.188.043c1.954.029 3.908.03 5.861.031l3.372.027c2.89-.22 2.89-.22 4.635-2.51L1129 144c-.875 4.75-.875 4.75-2 7h-67z"/>
        <path fill="#0F171E" d="M946 183h1v40h-4q-.111-7.34-.165-14.679a757 757 0 0 0-.061-4.99 717 717 0 0 1-.067-7.186c-.015-.74-.03-1.48-.047-2.242-.001-4.478.574-7.337 3.34-10.903"/>
        <path fill="#352402" d="M655 252c8.636 0 8.636 0 11 2 1.39 4.47.764 6.81-1 11 .287 2.242.287 2.242 1 4-1.937-.812-1.937-.812-4-2l-1-3h-4v4h-2z"/>
        <path fill="#2D1C01" d="M85 143v2h-3v2h-3v2h-4l1 107h2l.375 1.875c.497 2.316.497 2.316 2.625 4.125-4 0-4 0-7-2-.37-1.995-.37-1.995-.36-4.492l-.013-2.865.032-3.151v-3.311c.001-3.626.025-7.25.048-10.876q.009-3.763.013-7.525c.01-5.936.034-11.871.064-17.807.037-7.42.053-14.839.07-22.258Q73.903 167.857 74 148a805 805 0 0 1 4.375-2.5l2.46-1.406C83 143 83 143 85 143"/>
        <path fill="#322201" d="M541 252c7 0 7 0 9.438 1.125C552 255 552 255 552.313 258.063 552 261 552 261 551 263h-2l1.5 1.875C552 267 552 267 552 269h-3l-2-5h-4v5h-2z"/>
        <path fill="#291F0F" d="M197 215c6.906 3.35 13.573 6.798 20 11l-3 1-2.375-1.437c-2.872-1.71-4.353-1.843-7.625-1.563l-1 2 6 2v3h3v2l4-1v3h3v2h4l1 3c-4.226-1.286-7.85-2.89-11.66-5.117-1.562-.91-1.562-.91-3.154-1.84l-3.249-1.918-3.26-1.895c-4.832-2.834-9.357-5.644-13.677-9.23 3.024.588 6.018 1.227 9 2l1-4-2-1z"/>
        <path fill="#AD8620" d="M479 220h3l1 4 63 1v2h-64l-1-3h-2z"/>
        <path fill="#D3A32E" d="M843 187h53v37h-1v-36h-51v39h-6v-2l4-1z"/>
        <path fill="#1C1A18" d="M204 116c3.375.313 3.375.313 7 1l2 3 3 1v2l1.813.438c1.749.45 3.474.99 5.187 1.562-.75 1.938-.75 1.938-2 4-2.547 1.072-3.713 1.095-6.36.223l-2.39-1.16-2.422-1.153L208 126v-3h-3v-3l-5-1 4-1z"/>
        <path fill="#191910" d="M1064 219h63l-1 4-1.639-.487c-2.76-.6-5.314-.675-8.14-.718l-3.517-.06-3.782-.051-3.884-.063q-5.1-.082-10.2-.153-5.208-.077-10.416-.161-10.211-.162-20.422-.307z"/>
        <path fill="#251C03" d="M1045 182c-4.548 3.133-7.728 5.13-13.288 5.114h-2.608l-2.803-.016-2.88-.005c-3.036-.005-6.072-.018-9.109-.03q-3.086-.008-6.173-.014-7.57-.017-15.139-.049l.016 3.38q.026 6.187.039 12.373.008 2.682.02 5.363c.013 2.565.018 5.129.023 7.693l.015 2.436c0 1.919-.051 3.837-.113 5.755-1 1-1 1-3.562 1.063L987 225l1-2h3l1-37 44-1v-2c3.426-1.618 5.38-2.34 9-1"/>
        <path fill="#27200E" d="M464 172c.687 2.49 1 4.379 1 7h2c-1.207 3.62-2.741 4.374-6.012 6.148-2.999 1.285-5.746 1.587-8.988 1.852l1-2h3v-4h-16c0 3.61.03 5.73 1 9-2.562-2.25-2.562-2.25-5-5 .128-2.31.366-3.366 2-5 3.709-.17 7.41-.297 11.123-.342 5.4-.19 8.605-1.055 12.877-4.658z"/>
        <path fill="#352607" d="M381 143c4.515.531 7.347 2.366 11 5l-3 1 2 10-1.625-2.25c-3.201-3.706-5.866-6.345-10.765-7.136-2.905-.172-5.786-.22-8.696-.223l-3.203-.05c-3.362-.049-6.724-.07-10.086-.091q-3.428-.042-6.855-.09-8.385-.11-16.77-.16l-1-2 1.72.013q8.856.066 17.714.097 3.305.016 6.61.04c3.168.025 6.335.036 9.503.045l2.986.032h2.79l2.45.014c2.466-.267 4.092-1.009 6.227-2.241z"/>
        <path fill="#533D0F" d="M798 252c2.625.375 2.625.375 5 1l1 3-5-1 1 2.313c1 2.687 1 2.687 1 5.687h2v-3h3l-1 9c-6.44.364-6.44.364-8.742-1.133-1.843-2.736-1.405-4.694-1.07-7.93l.292-3.222C796 254 796 254 798 252"/>
        <path fill="#4E3704" d="m773 252 2 1v3l-1.934-.035-2.504-.028-2.496-.035c-2.058-.135-2.058-.135-3.066 1.098q-.062 3.5 0 7l8 2v-5h-3v-2h6c.293 6.055.293 6.055 0 8-3.541 2.36-4.828 2.573-9 2-3.375-2.125-3.375-2.125-6-5-.632-3.869-.299-6.782 2-10 3.226-2.305 6.12-2.253 10-2"/>
        <path fill="#2A240E" d="M457 143c4.495 1.254 7.591 2.786 11 6l1 3h-3c.523 2.763 1.109 5.326 2 8 .26 8.217.26 8.217-1 12h-2l.105-2.703.082-3.547.106-3.516c-.318-3.508-1.032-4.646-3.293-7.234v-2l-2.875-.875C456 151 456 151 454 149h4v-4l-2-1z"/>
        <path fill="#352802" d="m992.44 141.855 2.863-.02 3.118-.003 3.189-.01q3.349-.007 6.698-.007c3.413-.002 6.826-.02 10.238-.04l6.5-.005 3.094-.022 2.902.01 2.54-.005c2.754.282 4.903 1.117 7.418 2.247v1l-3.858-.494c-5.156-.57-10.245-.633-15.428-.603l-2.853.004c-2.975.005-5.95.018-8.924.03q-3.045.008-6.092.014-7.422.017-14.845.05v3l43 1v1q-9.345.074-18.69.11-3.18.015-6.36.04c-3.044.024-6.087.036-9.13.045l-2.885.03-2.67.001-2.355.014C988 149 988 149 986 147c.725-4.788 1.806-5.125 6.44-5.146"/>
        <path fill="#463204" d="m876 252 2 1v3h-9c-.723 4.481-.723 4.481-1 9l8 1v-4h-3v-3h6c.293 6.055.293 6.055 0 8-3.518 2.345-4.858 2.58-9 2-2.875-2-4.63-3.49-5.484-6.973-.252-3.746.178-5.667 2.609-8.527 3.286-1.714 5.22-1.906 8.875-1.5"/>
        <path fill="#6A5218" d="M750 252h3v16c-6.875-5.875-6.875-5.875-8-7l-1 7-3 1v-16l5.273 4.59c1.683 1.48 1.683 1.48 3.727 2.41z"/>
        <path fill="#332301" d="m920 252 2 1v3l-1.934-.035-2.504-.028-2.496-.035c-2.058-.135-2.058-.135-3.066 1.098-.25 2.958-.25 2.958 0 6 2.565 2.565 4.477 2.54 8 3v-4l-3-1v-2h6c.293 6.055.293 6.055 0 8-3.513 2.342-4.865 2.496-9 2-2.875-1.437-2.875-1.437-5-4-.715-3.144-.715-5.856 0-9 3.281-3.957 5.98-4.558 11-4"/>
        <path fill="#2C210E" d="M97 157c15.745 8.262 15.745 8.262 23 13l-3 1c-1.69-.96-3.354-1.966-5-3a125 125 0 0 0-6-2l1 7a940 940 0 0 1-5.812-2.812l-3.27-1.583C95.434 167.24 93.82 166.127 92 164h4v2h3l2-5-4-1z"/>
        <path fill="#0D171B" d="M897 142c2.063.438 2.063.438 4 1l-1 1a177 177 0 0 0-.21 7.21l-.087 4.462a1113 1113 0 0 0-.104 7.057c-.028 2.266-.074 4.53-.122 6.794l-.01 2.131c-.124 4.905-.124 4.905-1.997 7.313L896 180a6590 6590 0 0 1-.055-15.753q-.008-2.682-.02-5.363c-.013-2.565-.018-5.129-.023-7.693l-.015-2.436c0-1.919.051-3.837.113-5.755z"/>
        <path fill="#E8AB12" d="M507 255c2 2 2 2 2.313 4.938C509 263 509 263 507.875 264.875c-2.756 1.654-4.726 1.519-7.875 1.125-1.875-1.187-1.875-1.187-3-3-.423-2.821-.387-4.34 1.063-6.812 2.993-1.835 5.515-1.5 8.937-1.188"/>
        <path fill="#E6AD20" d="M697 251a100 100 0 0 1 5 0c1 1 1 1 1.098 4.816a763 763 0 0 1-.035 4.746l-.014 2.444q-.02 2.997-.049 5.994l-5 1c-1.655-3.31-1.1-6.991-1.062-10.625l.013-2.43q.02-2.972.049-5.945"/>
        <path fill="#483405" d="M446 252h10v3h-7v4h7v2h-7v5h7l1 3h-11z"/>
        <path fill="#0D1816" d="M440 181h16v4c-3.135 1.858-5.375 2.201-9 2l-1 3c-1 1-1 1-3 2v-2h-2c-2.338-3.713-1.961-4.194-1-9"/>
        <path fill="#463202" d="M331 252h11l-1 3h-7v4h6v2h-6v5h7l1 3h-11z"/>
        <path fill="#543C02" d="M520 252h3l1 13h4l1-13h3c.108 2.082.186 4.166.25 6.25l.14 3.516C532 265 532 265 530.146 267.39 528 269 528 269 525.438 269.5c-2.438-.5-2.438-.5-4.079-2.11-1.812-3.186-1.656-5.5-1.547-9.14l.083-3.547z"/>
        <path fill="#432F01" d="M1015 252h11l-1 3h-7v4h6v2h-6v5h7l1 3h-11z"/>
        <path fill="#EBAD12" d="M1079.5 254.75c3.5.25 3.5.25 5.5 2.25.313 3.5.313 3.5 0 7-3 2-3 2-6.625 1.688C1075 265 1075 265 1074 264c-.187-3.437-.187-3.437 0-7 2-2 2-2 5.5-2.25"/>
        <path fill="#473101" d="M825 252h10v3h-7v4h6v2h-6v5h7l1 3h-11z"/>
        <path fill="#30230A" d="m208 282 2 1v2h-4v2c-12 6-12 6-14.312 7.063-2.219 1.232-2.764 2.626-3.688 4.937l1 1 1.828-.621 2.422-.817 2.39-.808A85 85 0 0 1 202 296c-2.495 2.816-5.266 4.41-8.562 6.188l-2.942 1.605C188 305 188 305 186 305v-3h-2c0-2 0-2 1-3l-4-1 2.156-1.253q4.83-2.81 9.656-5.622l3.393-1.973 3.252-1.894 3-1.746A127 127 0 0 0 208 282"/>
        <path fill="#141919" d="m456 203 3 2-1 3 2.2.129c3.836 1.193 5.404 3.645 7.613 6.809l1.232 1.67C472 220.694 472 220.694 472 223c-2.734.293-2.734.293-6 0-2.266-2.012-2.266-2.012-4.25-4.687l-2.016-2.637c-2.768-4.271-4.026-7.574-3.734-12.676"/>
        <path fill="#CD9815" d="M623.358 139.886h2.73l2.951.016 3.018.004q4.785.01 9.568.031l6.477.014q7.95.016 15.898.049v2l-46 1 2 6-3-1v-7c2.352-1.176 3.737-1.121 6.358-1.114"/>
        <path fill="#9E700B" d="M729 252h5v14h2l-2 6-5-1z"/>
        <path fill="#3A2B03" d="m844 252 5 5a206 206 0 0 0 5 4v-9h2v16l-8-8-1 9h-3z"/>
        <path fill="#B78A1C" d="M1052 170h1c.323 4.634-.136 7.287-3 11l-3 1-.75 1.938c-1.602 2.642-3.18 2.921-6.085 3.676-4.209.75-8.43.628-12.692.581l-2.997-.008a1970 1970 0 0 1-9.414-.062q-3.204-.016-6.408-.027-7.827-.034-15.654-.098v-1l3.82-.028c4.705-.04 9.408-.106 14.112-.18q3.047-.042 6.093-.063c2.93-.022 5.858-.068 8.788-.12l2.725-.003c6.882-.158 12.22-1.808 17.485-6.352 2.622-3.281 4.738-6.164 5.977-10.254"/>
        <path fill="#382804" d="M981 252h3v16c-6.875-5.625-6.875-5.625-8-9h-2v9h-2v-15c6.875 5.875 6.875 5.875 8 7z"/>
        <path fill="#412800" d="M620 252h3v16c-6.324-5.059-6.324-5.059-8-7v-2h-2v10h-2v-16c6.875 5.875 6.875 5.875 8 7z"/>
        <path fill="#634707" d="M894 253c2.866 2.48 4.162 5.122 5.688 8.563l1.324 2.94C902 267 902 267 902 269l-4-1v-3h-7l-1 4h-2c.476-6.028 3.197-10.767 6-16"/>
        <path fill="#1F1708" d="M682 253c2.866 2.48 4.162 5.122 5.688 8.563l1.324 2.94C690 267 690 267 690 269c-1.937-.375-1.937-.375-4-1l-1-2c-3.03-.658-3.03-.658-6-1l-1 4h-3c1.646-5.685 4.29-10.767 7-16"/>
        <path fill="#D4A223" d="M634 255c6.625-.25 6.625-.25 10 2 .396 3.1.498 5.122-1.062 7.875-2.94 1.707-5.617 1.313-8.938 1.125z"/>
        <path fill="#0F181E" d="m838 189 3 1v33h-3z"/>
        <path fill="#533B02" d="M413 253h2q1.509 3.151 3 6.313l1.688 3.55C421 266 421 266 421 269h-3l-1-3-6-1-2 4h-2c.628-3.95 1.865-7.199 3.563-10.812l1.378-2.958z"/>
        <path fill="#261D12" d="M90 259c1.943.904 3.88 1.824 5.813 2.75l3.269 1.547c2.882 1.682 4.248 2.86 5.918 5.703.688 2.75.688 2.75 1 5h-6v-2l-2.812.188C94 272 94 272 92.125 270.5L91 269l2.438-1.375c2.65-1.372 2.65-1.372 3.562-3.625l-5-1v-2h-2z"/>
        <path fill="#412C02" d="M369 252h10l-1 3h-6v4h6v2h-7v5h7l1 3h-10z"/>
        <path fill="#E5AF23" d="M602 138h8v1l-2.437.375L605 140c-1.545 3.09-1.18 6.36-1.205 9.754l-.03 2.425q-.047 3.976-.081 7.954l-.063 5.507q-.083 7.254-.153 14.51-.077 7.4-.161 14.8-.162 14.524-.307 29.05h-1z"/>
        <path fill="#473708" d="M618 182h1v41h4l1-35h1q.074 7.635.11 15.271.015 2.598.04 5.197c.025 2.487.036 4.974.045 7.462l.032 2.355c0 1.906-.105 3.812-.227 5.715l-2 2c-3.536-.536-3.536-.536-5-2a271 271 0 0 1-.098-9.285l.005-2.82c.005-2.986.018-5.972.03-8.958q.009-3.027.014-6.056.017-7.44.049-14.881"/>
        <path fill="#1F1D10" d="M391 161h1c1.333 10.558 1.333 10.558 0 15l2 1c-1.488 3.787-3.62 5.774-7 8l-3-1 1-3-2 1c-2.008-.281-4.01-.61-6-1 3-2 3-2 6.5-3.75 3.7-2.123 5.08-4.15 6.5-8.25.488-2.679.766-5.28 1-8"/>
        <path fill="#412E03" d="M1127 253v2h-7v4l2.875-.125C1126 259 1126 259 1128 261c.313 3 .313 3 0 6-3.85 2.567-5.586 1.833-10 1l-1-3h8v-2l-3.437-1.437C1118 260 1118 260 1117 259c-.25-2.437-.25-2.437 0-5 3.85-2.567 5.586-1.833 10-1"/>
        <path fill="#3A2301" d="M715 251.813c3 .188 3 .188 5 1.188v2h-7v4l3.438.437c3.562.563 3.562.563 4.562 1.563.292 2.771.364 4.414-1.125 6.812-2.65 1.679-4.807 1.392-7.875 1.188l-2-4h8v-2l-7-2c-.625-3.375-.625-3.375-1-7 2-2 2-2 5-2.188"/>
        <path fill="#422B03" d="M1044 253v2h-7l1 3 3.5 1.375L1045 261c.938 2.688.938 2.688 1 5-2.237 1.988-3.554 2.946-6.562 3.313C1037 269 1037 269 1034 267v-2h8l-1-3c-3.008-1.225-3.008-1.225-6-2-1.312-4.414-1.312-4.414 0-6.875 3.103-1.745 5.627-.825 9-.125"/>
        <path fill="#422D04" d="M590 252h3l1 13h5l1-13h2c.081 2.083.14 4.166.188 6.25l.105 3.516c-.313 3.457-.95 4.75-3.293 7.234-3.375-.312-3.375-.312-7-1-2.421-3.632-2.21-5.383-2.125-9.687l.055-3.575z"/>
        <path fill="#382502" d="M932 252h10l-1 3h-7v4h7v2h-7v5h7l1 3h-10z"/>
        <path fill="#DBA421" d="m922 254 1 3-1 2h-5l1.5 1.25C920 262 920 262 920 266c-5.4.36-5.4.36-7.875-1.125-1.63-2.717-1.455-4.772-1.125-7.875 2-2 2-2 5.5-2.187C920 255 920 255 922 256z"/>
        <path fill="#8C6A17" d="M960 252h5v17l-5 1z"/>
        <path fill="#E7A91B" d="m1117 259 9 4-1 3-8-1c1.036 1.707 1.036 1.707 3 3 3.645-.235 3.645-.235 7-1l1-6 4 2c-.687 2.875-.687 2.875-2 6-3.603 2.202-6.849 2.193-11 2v-2l-3-1c-.093-3.34.172-5.688 1-9"/>
        <path fill="#EDB426" d="m406 141 3 1-2 2a91 91 0 0 0-.319 7.57l-.03 2.366c-.031 2.587-.048 5.173-.065 7.76q-.028 2.685-.059 5.372c-.051 4.718-.09 9.436-.128 14.154-.04 4.813-.091 9.626-.141 14.438q-.144 14.17-.258 28.34h-1q-.034-16.01-.052-32.023-.007-7.433-.023-14.867-.016-7.169-.02-14.336-.003-2.742-.01-5.482-.01-3.825-.009-7.651l-.01-2.313c.01-5.214.01-5.214 1.124-6.328"/>
        <path fill="#ECB625" d="M482 217q12.634-.034 25.27-.052 5.866-.007 11.733-.023 5.66-.016 11.32-.02 2.162-.003 4.322-.01c2.016-.008 4.032-.008 6.048-.009l3.479-.006C547 217 547 217 550 218v6l-4 2 .563-2.937L547 220c-1.065-1.29-1.065-1.29-3.55-1.12l-3.439.006h-3.882l-4.227.016-4.3.005q-5.67.006-11.339.024-5.781.014-11.562.02-11.35.016-22.701.049z"/>
        <path fill="#423101" d="m940 182 3 1v41h-2z"/>
        <path fill="#4A3404" d="M571 252h11l-1 3h-7v4h6v2h-6v8l-3-1z"/>
        <path fill="#523E0A" d="M677 169c.75 1.625.75 1.625 1 4-1.916 4.083-3.399 5.71-7.482 7.679-5.123 1.782-9.999 1.603-15.362 1.395l-3.06-.08a1337 1337 0 0 1-9.596-.306q-3.27-.096-6.54-.186-7.98-.227-15.96-.502v-1l1.744-.011c6.003-.042 12.005-.111 18.007-.197q3.358-.042 6.716-.063c3.222-.021 6.444-.068 9.666-.12l3.021-.003c5.919-.124 9.308-.715 13.846-4.606 1.466-1.608 1.466-1.608 2.375-3.25z"/>
        <path fill="#1B191C" d="M135 114h2l-1 8-8 2v3l-4 1v2h-2c-.25-5.625-.25-5.625 2-9 2.55-1.154 5.14-2.027 7.785-2.937L134 117z"/>
        <path fill="#E0A922" d="M170.48 103.953c3.669 1.524 6.968 3.507 10.332 5.61l2.1 1.286c1.7 1.044 3.394 2.097 5.088 3.15l-4 1v-2h-3v-2a303 303 0 0 0-4.688-1.562l-2.637-.879c-2.984-.623-4.774-.439-7.675.442l-3 2-2.438.937c-2.586.932-2.586.932-4.5 2.625-2.626 1.83-4.918 2.08-8.062 2.438 3.966-3.318 8.105-6.11 12.5-8.813l1.972-1.271c2.688-1.648 4.812-2.903 8.008-2.963"/>
        <path fill="#D4A01C" d="M930 252h2v17h10l-1-2a109 109 0 0 0-7-1v-5h6v1h-5v3h7a88 88 0 0 1 1 5c-1.666 1.666-3.66 1.171-5.937 1.188l-2.715.042C932 271 932 271 930 269c-1.37-5.738-.943-11.24 0-17"/>
        <path fill="#4E3804" d="M1098 254c2.875-.125 2.875-.125 6 0l2 2-.562 2.813c-.534 3.887.38 5.046 2.562 8.187v2c-1.875-.312-1.875-.312-4-1-2-3-2-3-2-6h-4z"/>
        <path fill="#4C3604" d="M475 252c3.781.742 3.781.742 5.75 3.063L482 257l1.313-2.5L485 252h3c-1.835 4.718-1.835 4.718-3.062 6.813-1.423 3.318-1.58 6.602-1.938 10.187h-3l-.078-1.687c-.446-5.996-1.973-10.08-4.922-15.313"/>
        <path fill="#452C01" d="M992 252c1.89.277 1.89.277 4 1 1.75 3.563 1.75 3.563 3 7 2.011-2.56 3.628-5.046 5-8l3 1-7 15c-2.64-3.52-4.072-6.232-5.687-10.25l-1.325-3.266z"/>
        <path fill="#4D3502" d="M1053 252h11v3h-4v14h-3v-14h-3z"/>
        <path fill="#2C2209" d="M154 190q2.657 1.435 5.313 2.875l2.988 1.617C165 196 165 196 168 198c3.59-.378 6.697-1.584 10-3l-1 2h-2v2c-3.088 1.765-4.233 2-8 2v-2h-3v-2l-1.875 1.5C160 200 160 200 158 200v2l-4-2 5-3-2-2-3 1z"/>
        <path fill="#473201" d="M350 252h3v14h7v3h-10z"/>
        <path fill="#4D3708" d="M427 252h11l-1 3h-3v13l-3 1v-14h-4z"/>
        <path fill="#463103" d="m388 252 3 1a252 252 0 0 1 3 7l2 1 .375-2.25c.58-2.551 1.362-4.477 2.625-6.75h3c-1.366 3.542-2.91 6.926-4.625 10.313l-1.352 2.675L395 267c-2.02-2.586-3.714-5.131-5.187-8.062l-1.043-2.036C388 255 388 255 388 252"/>
        <path fill="#1C1918" d="M185 105c2.793.441 5.313 1.104 8 2 .688 2.063.688 2.063 1 4l5 1v2c-2.906 1.257-4.796 2-8 2l-1-6-6 1a100 100 0 0 1 0-5z"/>
        <path fill="#D9A01B" d="M456 252c1.031 3.27.964 5.86.563 9.25l-.31 2.703L456 266h-7v-5h7v-2h-7v-4h7z"/>
        <path fill="#121920" d="m385 179 2 2c-.907 1.976-.907 1.976-3 4-3.153.594-6.283.464-9.48.39-.928-.005-1.856-.01-2.813-.017-2.965-.022-5.93-.072-8.894-.123q-3.015-.03-6.03-.055A1918 1918 0 0 1 342 185v-1l3.073-.06c3.763-.076 7.526-.165 11.289-.257q2.442-.059 4.885-.105c2.341-.046 4.682-.104 7.023-.164l2.206-.035c3.694-.108 5.372-.278 8.524-2.379 2.688-.125 2.688-.125 5 0z"/>
        <path fill="#D7A220" d="M572 251h11l-2 11h-6v8h-4l1-2 2 1v-8h6v-2h-6v-4h7v-2l-9-1z"/>
        <path fill="#E0A724" d="M376 177h8l-1 2c-2.866.955-4.765 1.15-7.747 1.205l-2.911.06-3.135.051-3.216.063q-5.089.097-10.178.184l-6.897.13q-8.458.161-16.916.307v-2h44z"/>
        <path fill="#D0A52F" d="m985 142 3 1-.562 1.938L987 147c1.585 1.585 3.229 1.164 5.428 1.205l2.851.06 3.1.051 3.157.063q5.013.097 10.027.184l6.779.13q8.328.162 16.658.307v1h-50z"/>
        <path fill="#D1A230" d="M330 144h2l1 4 48 1v1h-51z"/>
        <path fill="#2D230A" d="M157 298c3.791 1.45 7.387 3.152 11 5-3 1-3 1-7 1l-1 4 4 1v2l4 1c-3 1-3 1-6.562-.687-2.826-1.711-4.395-3.069-5.438-6.313h2z"/>
        <path fill="#202012" d="M928 156.688c2.479 1.627 3.661 2.635 5 5.313-.053 2.77-.497 5.255-1 8h-2l-3-9c-2.015-.734-2.015-.734-4-1v-3c3-1 3-1 5-.313"/>
        <path fill="#E6B121" d="M379 254v9h-6v2h5v1h-7v-5h7v-2h-6v-4c5.875-1 5.875-1 7-1"/>
        <path fill="#27220C" d="M973 142c2.625.375 2.625.375 5 1 .318 3.2.195 4.687-1.531 7.457l-1.969 2.356-1.969 2.394L971 157l-2-4 4-1 .438-1.875C974 148 974 148 975 146l-6 2c1.152-2.468 2.048-4.048 4-6"/>
        <path fill="#EEB31E" d="m523 252 2 1v11h2v-12h2v13l-5 1c-1-1-1-1-1.098-3.941l.035-3.622.028-3.628z"/>
        <path fill="#D8A11D" d="m799 255 5 1v2l3 1v11l-10 1 1-3 7 1 1-9h-3v3h-2c-1.257-2.906-2-4.796-2-8"/>
        <path fill="#DDA31F" d="m876 252 4 1-.625 1.875L879 257l2 2c.27 2.688.087 5.291 0 8l-5 2 1-2h2v-8h-7v-3l-3-1c6.75-.125 6.75-.125 9 1v-3z"/>
        <path fill="#11151A" d="M975 146c-2 6-2 6-5 8v3l-7 3-1-2 2-1a401 401 0 0 0 3-6c2.221-3.424 3.678-5 8-5"/>
        <path fill="#191A1E" d="M112 274h4l2 5h5l-2 5c-3.688-.498-5.605-1.1-8-4h2l-1.5-1.875C112 276 112 276 112 274"/>
        <path fill="#372507" d="M199 226c3.377.537 6.697 1.11 10 2v3h3v2l4-1v3h3v2h4l1 3c-5.832-1.597-10.705-4.522-15.875-7.562l-2.664-1.538c-4.773-2.783-4.773-2.783-6.461-3.9z"/>
        <path fill="#4C3402" d="M698 252h3v17h-3z"/>
        <path fill="#322203" d="M798 252c2.625.375 2.625.375 5 1l1 3-5-1v6h-2l1 5h-3q.173-2.938.375-5.875c.07-1.09.14-2.181.21-3.305C796 254 796 254 798 252"/>
        <path fill="#E9AD18" d="M766 257c2.063.438 2.063.438 4 1l-1 3h4v5h-6v-3h-2a100 100 0 0 1 0-5z"/>
        <path fill="#272515" d="m953 170 2 2c-.228 6.275-.228 6.275-3.062 8.938-.64.35-1.28.7-1.938 1.062v-2l-2-1 .5-1.812c.611-2.301.611-2.301.5-5.188z"/>
        <path fill="#443001" d="M645 255c2 3 2 3 1.813 6.563C646 265 646 265 643 267l-2-2 2-2c.167-3.083.167-3.083 0-6l-9-2v-1c7.661-1.473 7.661-1.473 11 1"/>
        <path fill="#30270C" d="M1045 168c1.125 3.75 1.125 3.75 0 6l6-2c-.312 2.375-.312 2.375-1 5l-3 2v-3l-6 1v2l-4-1 2.875-2.187c2.8-2.311 4.11-4.261 5.125-7.813"/>
        <path fill="#2F2507" d="M683 156c2.608 2.608 2.358 3.862 2.438 7.5-.092 6.293-1.657 11.42-5.438 16.5l-3 1-1-3 1.875-.75c2.66-1.564 3.05-2.36 4.125-5.25.295-2.774.507-5.47.625-8.25l.117-2.258c.094-1.83.177-3.661.258-5.492"/>
        <path fill="#2C2602" d="M897 142c2.063.438 2.063.438 4 1l-3 1-1 36h-1a6590 6590 0 0 1-.055-15.753q-.008-2.682-.02-5.363c-.013-2.565-.018-5.129-.023-7.693l-.015-2.436c0-1.919.051-3.837.113-5.755z"/>
        <path fill="#BA9128" d="M540 251h10v2l-9-1v17h2v-5h4v2h-2l-1 4h-4z"/>
        <path fill="#322707" d="M469 152c3.026 2.763 3.914 4.763 4.203 8.926.155 11.177.155 11.177-3.203 16.074l-1-3 1-2c.099-2.45.139-4.864.125-7.312l.008-3.989c-.11-3.058-.411-5.738-1.133-8.699"/>
        <path fill="#4A3503" d="m1043 260 3 2c-.312 2.375-.312 2.375-1 5-3.246 2.164-4.243 2.376-8 2l-3-2v-2h8l-1-4z"/>
        <path fill="#D29D1E" d="M543 255c2-.043 4-.04 6 0 1 1 1 1 1.063 3.563L550 261l-7 1z"/>
        <path fill="#DAA01B" d="M340 259c2 1 2 1 2.75 2.875C343 264 343 264 341 267l-7-1v-5h6z"/>
        <path fill="#3F2600" d="M917 259h6c.293 6.055.293 6.055 0 8-3.435 2.29-4.985 2.178-9 2l2-3h4v-4l-3-1z"/>
        <path fill="#3E2900" d="m611 253 6 5v3h-2v-2h-2v10h-2z"/>
        <path fill="#D9AA1C" d="M96 147v2l-2 1 1 5 5 1v2l3 1-2 1a100 100 0 0 1-6.625-3.937l-1.852-1.17A697 697 0 0 1 88 152c4.839-5 4.839-5 8-5"/>
        <path fill="#E2AB1C" d="M753 252h2l1 16-4 2-3-3 1-2 2 2z"/>
        <path fill="#5E4306" d="m678 261 1 3h7l1-3c3 5.75 3 5.75 3 8-1.937-.375-1.937-.375-4-1l-1-2c-3.03-.658-3.03-.658-6-1l-1 4h-3c1.875-5.75 1.875-5.75 3-8"/>
        <path fill="#3C2501" d="m876 252 2 1v3h-9l-3 7h-1c-.312-3.25-.312-3.25 0-7 3.367-3.862 5.976-4.558 11-4"/>
        <path fill="#3B2801" d="m773 252 2 1v3h-9l-3 7h-1c-.368-6.498-.368-6.498 1.375-8.875 3.306-2.289 5.631-2.291 9.625-2.125"/>
        <path fill="#2D2110" d="M464 172c.687 2.49 1 4.379 1 7h2l-1 3-3 1v-2l-5-1c1.443-3.366 3.333-5.51 6-8"/>
        <path fill="#1C1B1D" d="M165 97h2l1 7h-4v2h-2v-2h-2l-1-4 6-1z"/>
        <path fill="#2F2202" d="m972 253 7 6-3 1-2-1v9h-2z"/>
        <path fill="#D59F1D" d="m845 252 3 1v2h3v-3h3v9c-4.554-2.277-5.972-4.047-9-8z"/>
        <path fill="#DDA91E" d="M140 193c5.18 1.468 9.344 3.815 13.875 6.625l2.086 1.273q2.523 1.545 5.039 3.102c-3.719 1.117-3.719 1.117-6.25.063L153 203v-2l-6-2v-2l-6-1z"/>
        <path fill="#D7A120" d="M462 184v3c-3.402 2.094-6.053 2.18-10 2l1 5a141 141 0 0 1-5-5v-2l1.793-.148c4.398-.417 8.176-.902 12.207-2.852"/>
        <path fill="#0E151C" d="M668.848 144.902 675 145l2 6-8-1v-3l-3-1c1-1 1-1 2.848-1.098"/>
        <path fill="#E7AB20" d="M677 259h2c-1.11 3.487-2.263 6.775-4 10h3l1-4h6v1h-5l-1 5-5-1c-1-3-1-3-.223-5.043l1.16-2.144 1.153-2.168z"/>
        <path fill="#D6A322" d="M769.5 254.75c3.5.25 3.5.25 5.5 2.25v2h-5l-1 2v-3h-3l-1 5h2v2l-3-1c-.125-3.375-.125-3.375 0-7 2-2 2-2 5.5-2.25"/>
        <path fill="#E3A717" d="m970 251 5 1-1 3-1-1-1 14c-2.386-4.772-3.258-7.496-2.562-12.75l.308-2.422z"/>
        <path fill="#1C1C12" d="m456 203 3 2-1 3 5 1v2h-2v3h2l-1 4c-4.143-4.833-6.37-8.536-6-15"/>
        <path fill="#1C1B1B" d="M237 161h2l3 6-6 2v2h-2c-.23-3.367-.34-5.414 1.375-8.375z"/>
        <path fill="#12171B" d="M913 144c3.554.296 4.803.803 7.375 3.375L922 150l-1 3-4-1v-4l-3 1z"/>
        <path fill="#3B2804" d="m208 282 2 1v2h-4v2a915 915 0 0 1-5.687 2.938l-3.2 1.652c-2.775 1.257-5.116 1.97-8.113 2.41 3.68-2.907 7.623-5.32 11.625-7.75l2.063-1.285c1.733-1.052 3.52-2.016 5.312-2.965"/>
        <path fill="#E0AA22" d="M1099 255h6a88 88 0 0 1 1 5c-1 1-1 1-4.062 1.063L1099 261z"/>
        <path fill="#4A3505" d="M715 251.813c3 .188 3 .188 5 1.188v2h-7v6h-2c-.625-3.375-.625-3.375-1-7 2-2 2-2 5-2.188"/>
        <path fill="#DAA521" d="M388 156c3.227 3.227 3.43 3.514 3.438 7.75-.129 5.14-1.53 8.07-4.438 12.25h-1v-5h3z"/>
        <path fill="#CB991A" d="M974 259h2c1.508 1.75 1.508 1.75 3.125 4l1.633 2.25L982 267l-6-1-1 3-3-1h2z"/>
        <path fill="#D0A122" d="m1044 253 3 2-3 3 2 1-1 3-8-4v-3h7z"/>
        <path fill="#E7A91B" d="M479 220h3l1 6h22v1h-23l-1-3h-2z"/>
        <path fill="#352908" d="M677 169c.75 1.625.75 1.625 1 4-1.92 4.09-3.796 6.22-7.937 7.875-3.09.988-5.8 1.431-9.063 1.125 2.352-1.568 4.394-2.665 6.938-3.812 4.362-2.142 6.878-4.82 9.062-9.188"/>
        <path fill="#DAA124" d="M1045 147c2.875.688 2.875.688 6 2 2.761 4.865 3.129 10.311 3.063 15.813l-.028 2.957L1054 170h-1l-.297-2.852c-1.007-9.34-1.007-9.34-5.703-17.148z"/>
        <path fill="#372100" d="m741 253 4 3v3h-2v10h-2z"/>
        <path fill="#332809" d="M133 284c3.46 1.25 6.147 2.675 9 5l-2.312.313c-2.909.744-3.761 1.485-5.688 3.687l-2 1-3-3 5-1z"/>
        <path fill="#FDB404" d="M636 257h5l1 7h-6z"/>
        <path fill="#E2A91A" d="M904 201h1c.087 3.77.14 7.541.188 11.313l.076 3.248.029 3.115.048 2.872C905 224 905 224 903.73 225.833 902 227 902 227 898 227v-2l6-2z"/>
        <path fill="#E0A71C" d="M449 177h10c-3 3-3 3-4.993 3.34-.738-.015-1.477-.03-2.237-.047l-2.432-.03c-.833-.024-1.667-.05-2.526-.076l-2.56-.04c-2.084-.036-4.168-.09-6.252-.147v-1h11z"/>
        <path fill="#3A2804" d="m110 280 2.563.875c3.46 1.133 6.93 2.143 10.437 3.125v3h3v2h2l-1 2q-4.255-2.462-8.5-4.937c-.81-.47-1.622-.938-2.457-1.42l-2.324-1.358-2.158-1.254L110 281z"/>
        <path fill="#392701" d="M751 252h2v16c-3-2-3-2-3.687-4.125L749 262h2z"/>
        <path fill="#3E2C03" d="M541 252c6.4-.492 6.4-.492 9.438 2l1.562 2-2 3-1-3-6-1v6h-1z"/>
        <path fill="#45320A" d="m441.16 179.902 3.902.035c1.29.01 2.581.018 3.91.027L452 180v1h-12c0 3.61.03 5.729 1 9-2.563-2.25-2.563-2.25-5-5 .227-4.09 1.101-4.973 5.16-5.098"/>
        <path fill="#352A09" d="M391 161h1c1.333 10.558 1.333 10.558 0 15l2 1-2 4c-2-3-2-3-2-6h-2l.938-2.5c1.18-3.891 1.644-7.462 2.062-11.5"/>
        <path fill="#1A1918" d="M121 173h3v2h2v3h-2v2l-5-1-1-3h2z"/>
        <path fill="#F6B211" d="m941 259 3 1v5c-3.069 1.534-5.7.55-9 0v-3l2.438-.375L940 261z"/>
        <path fill="#EAAD20" d="M658 255a100 100 0 0 1 5 0c1 1 1 1 1.063 3.563L664 261h-6z"/>
        <path fill="#574515" d="M413 253h2c2.125 6.75 2.125 6.75 1 9h-4c-1.033-2.788-1.045-3.868-.062-6.75z"/>
        <path fill="#E4AA23" d="m942 252 1 4h-2v3h-7v-4h7z"/>
        <path fill="#D39F1D" d="M775 194c.976 3.383.859 5.566 0 9h-2v3h-2l1 3-4 3-2-1 1.207-1.687c3.456-4.978 5.908-9.554 7.793-15.313"/>
        <path fill="#301E00" d="M496 256h2l-.25 3.313c-.157 3.678-.157 3.678 2.063 5.5L502 266l3 2c-3.496.318-5.397.396-8.375-1.562-2.185-3.278-1.989-5.58-1.625-9.438z"/>
        <path fill="#402B06" d="M180 205q2.85 1.364 5.688 2.75l3.199 1.547c3.013 1.648 5.506 3.478 8.113 5.703l-2 1c-3.46-1.408-6.589-3.526-9.75-5.5l-2.984-1.844L180 207z"/>
        <path fill="#3B2906" d="m176 97 2.195 1.207c4.896 2.683 9.784 5.35 14.805 7.793-3.623 1.208-4.641.543-8-1v-2l-7-1v-3h-2z"/>
        <path fill="#E1A723" d="M258 265v2h-3l-.625 1.875c-2.363 3.652-6.197 3.869-10.25 4.75L242 274c4.022-3.503 10.394-9 16-9"/>
        <path fill="#D8A21F" d="M712 261c3.125.375 3.125.375 6 1v4c-5.75.125-5.75.125-8-1 0-2 0-2 2-4"/>
        <path fill="#DEA416" d="m1064 254 1 2-2 1v11h-3v-13z"/>
        <path fill="#574511" d="m894 253 3 3-1 2v5h-3c-1.187-1.625-1.187-1.625-2-4 1.375-3.25 1.375-3.25 3-6"/>
        <path fill="#473204" d="m992 252 4 1c1.75 3.563 1.75 3.563 3 7h2v2h-3l-1 2z"/>
        <path fill="#312708" d="m124 173 12 6c-3.935.984-4.453.887-8 0-2.187.38-2.187.38-4 1v-2h2v-3h-2z"/>
        <path fill="#E3A721" d="M948 168h4c-1.527 3.436-3.6 6.12-6 9-1.937-.812-1.937-.812-4-2l-1-3 3 1v2h2v-4l2-1z"/>
        <path fill="#DEA920" d="m240 274 2 1c-2.233 2.433-4.493 4.022-7.375 5.625-.75.425-1.5.85-2.273 1.29-2.455 1.132-4.69 1.662-7.352 2.085 2.618-2.955 5.676-4.758 9.063-6.75l3.222-1.922z"/>
        <path fill="#C09225" d="M613 259h2v2l3 1 1 3h-2v-2h-2l.125 2.875C615 269 615 269 613 271l-2-2h2z"/>
        <path fill="#241B03" d="M1097 253h6v1h-5v8h4v2h-3v4h-2z"/>
        <path fill="#D9A320" d="m965 163 1 2c-.926 1.945-.926 1.945-2.312 4.125l-1.364 2.195L961 173h-2l-2 4h-3z"/>
        <path fill="#35210A" d="M178 108h5l1 2h6l1 6q-2.69-1.431-5.375-2.875l-3.023-1.617C180 110 180 110 178 108"/>
        <path fill="#443201" d="M770 259h6v8l-3 1v-7h-3z"/>
        <path fill="#D59E21" d="m795 253 2 1-.219 2.52-.281 3.293-.281 3.269c-.256 2.929-.256 2.929-.219 5.918-2.162-2.346-2.981-3.522-3.11-6.762.12-.965.238-1.93.36-2.925l.328-2.95C794 254 794 254 795 253"/>
        <path fill="#2F2001" d="M1083 252v2l-3.375.875c-3.628.817-3.628.817-5.625 3.125-.648 2.57-.648 2.57-1 5h-1c-.368-6.498-.368-6.498 1.375-8.875 3.304-2.287 5.646-2.212 9.625-2.125"/>
        <path fill="#1B1E14" d="m444 187 5 4-1 5c-4.677-1.477-4.677-1.477-6.312-4.125L441 190h3z"/>
        <path fill="#352906" d="M968 148c0 4.589-2.406 8.189-5.379 11.566A115 115 0 0 1 959 163l-2-1q2.467-3.22 4.938-6.437l1.42-1.854c3.529-4.596 3.529-4.596 4.642-5.709"/>
        <path fill="#E9AC1C" d="M721 153v2l-2 2v3h-8l2-3h2v-2c3.75-2 3.75-2 6-2"/>
        <path fill="#382809" d="M675 146c4.875 2.625 4.875 2.625 6 6h-6l-1 3-5-5 8 1z"/>
        <path fill="#DEA71B" d="M192 303v4h-6v2l-6 1c2.798-3.291 7.597-7 12-7"/>
        <path fill="#463503" d="M912 142c2.25-.375 2.25-.375 5 0 2.313 3 2.313 3 4 6l-3-1-1-2c-2.025-.652-2.025-.652-4-1l1 6c-1.562-1.187-1.562-1.187-3-3 .313-2.687.313-2.687 1-5"/>
        <path fill="#372406" d="M116 274q2.911 1.397 5.813 2.813l3.269 1.582c2.484 1.366 4.098 2.478 5.918 4.605-2.887-.712-5.768-1.428-8.625-2.25l-2.352-.64c-2.752-1.51-3.133-3.182-4.023-6.11"/>
        <path fill="#E5AD21" d="m980 251 4 1h-3v9l-6-5 2-1 2 1z"/>
        <path fill="#604C10" d="m666 254-1 6-.687-1.937c-1.166-2.335-1.166-2.335-3.938-2.813L658 255v6l4 1h-5v-8c5.625-1.125 5.625-1.125 9 0"/>
        <path fill="#DCA51C" d="m666 260 1 3-1 2h2l-1 6c-1.875-.25-1.875-.25-4-1-1.25-2.062-1.25-2.062-2-4l5 3-1.125-2.812L664 263z"/>
        <path fill="#E8AC1B" d="M891 265h7l-1 2h-3l-2 5-4-3 2-1z"/>
        <path fill="#DFA721" d="M196 225c4.972 1.764 9.434 4.394 14 7-1.883.582-1.883.582-4 1a83 83 0 0 1-4-3 100 100 0 0 0-6-2z"/>
        <path fill="#D19B20" d="m681 177 1 3a141 141 0 0 1-5 5h-2v2h-6l1.688-1.25c1.678-1.27 3.32-2.59 4.937-3.937C678 180 678 180 680 180z"/>
        <path fill="#352807" d="M232 139c4.979.474 8.067 1.91 12 5v2c-4.308-1.566-8.062-3.683-12-6z"/>
        <path fill="#1F1A03" d="M894 257c1.938.688 1.938.688 4 2 .75 2.625.75 2.625 1 5h-8l1-4 1 3h3z"/>
        <path fill="#CB9A17" d="M552 256h2c.37 6.4.37 6.4-1.5 9.438L551 267l-2-4h2z"/>
        <path fill="#11181F" d="M961 159c2 3 2 3 2 6h-3v2h-2l-1 4-2-1c1.499-3.113 3.212-6.045 5-9z"/>
        <path fill="#38270A" d="m172 95-4 4v-2h-3v2l-6 1c8.1-6.75 8.1-6.75 13-5"/>
        <path fill="#564111" d="M620 252h1l-.035 2.047-.028 2.703-.035 2.672c.09 2.36.429 4.323 1.098 6.578-1.937-.687-1.937-.687-4-2-.75-2.625-.75-2.625-1-5l2 1z"/>
        <path fill="#504018" d="M682 253c2.9 2.395 3.502 4.312 4 8l-5 1v-4h2v-3l-2-1z"/>
        <path fill="#342106" d="m187 196 3 2-10 6-1-4 3 1v-2h4z"/>
        <path fill="#2C2007" d="m387 175 1 4c-1.562 1.563-1.562 1.563-4 3-3.75-.312-3.75-.312-7-1 3.259-2.172 6.592-4.071 10-6"/>
        <path fill="#3A2906" d="m226 166 2 1c-1.187 2-1.187 2-3 4-2.687.25-2.687.25-5 0v2l-4-1a546 546 0 0 1 4.875-3.062l2.742-1.723z"/>
        <path fill="#E4AA1E" d="m244 157-12 6v-5l4 1 1-2c3-1 3-1 7 0"/>
        <path fill="#E1A722" d="m216 288 2 1c-1.75 2-1.75 2-4 4h-4v2l-4-1a546 546 0 0 1 4.875-3.062l2.742-1.723z"/>
        <path fill="#4A3201" d="M934 266h7l1 3h-10l2-1z"/>
        <path fill="#2C1F01" d="M521 253h1l.078 2.266c.209 6.14.209 6.14 2.985 11.422L527 268c-1.666.043-3.334.04-5 0-1-1-1-1-1.098-4.16l.035-3.902.028-3.91z"/>
        <path fill="#231E05" d="m411 259 1 3h4v-2h2v4h-8z"/>
        <path fill="#E1A61D" d="M636 256q3.5-.061 7 0c1 1 1 1 1.063 4.063L644 263l-2 1c-1.062-2.375-1.062-2.375-2-5l1-2h-5z"/>
        <path fill="#D4A22B" d="m799 255 5 1-1 7h-2c-1.257-2.906-2-4.796-2-8"/>
        <path fill="#3A2505" d="M107 163q2.411 1.146 4.813 2.313l2.707 1.3c2.27 1.27 3.772 2.453 5.48 4.387-2.77-.666-5.487-1.405-8.187-2.312l-2.106-.676C108 167 108 167 107.262 164.895z"/>
        <path fill="#E2AB21" d="m193 117 13 7v1l-7-1-1-3c-2.504-1.219-2.504-1.219-5-2z"/>
        <path fill="#E7AE18" d="m168 104 5 1 1 3h-8zm-5 5 2 1-2 1z"/>
        <path fill="#B38A28" d="M371 261h7l-1 2h-4v2h5v1h-7z"/>
        <path fill="#121724" d="m450 195 3 1 1 7h-2c-1.687-1.75-1.687-1.75-3-4 .313-2.25.313-2.25 1-4"/>
        <path fill="#342514" d="M447 187c2.4 2.88 4.473 5.564 6 9h-5l1-5h-2z"/>
        <path fill="#312105" d="M220 176h7c-3.812 3.35-7.333 5.17-12 7v-2h2v-2h3z"/>
        <path fill="#111719" d="M953 170c2 2 2 2 2.125 4.625L955 177l-2 1-2-2 1-2h-2v-2z"/>
        <path fill="#221E0E" d="m666 143 7 1v1l-7 1zm-1 3 4 1v3l-4-1z"/>
        <path fill="#DCA522" d="M386 144c3.124.073 5.26.274 7.547 2.52 1.353 1.805 2.545 3.412 3.453 5.48l-1 3-2.187-3.25c-2.251-3.17-4.63-5.476-7.813-7.75"/>
        <path fill="#342608" d="M117 126c-1.25 1.5-1.25 1.5-3 3h-4v2l-4-1a265 265 0 0 1 3.813-2.562l2.144-1.442C114 125 114 125 117 126"/>
        <path fill="#E1AA1D" d="M180 310c0 2 0 2-1.5 3.563-3.499 2.011-6.49 2.103-10.5 2.437 9-6 9-6 12-6"/>
        <path fill="#DFA921" d="m204 295 2 1a346 346 0 0 1-4.75 3.563l-2.672 2.003C196 303 196 303 193.672 302.715L192 302a785 785 0 0 1 5.875-3.562l3.305-2.004z"/>
        <path fill="#543F06" d="m508 263 2 3c-2.55 2.354-3.71 2.983-7.25 3.188L500 269c2.24-3.36 3.342-3.687 7-5z"/>
        <path fill="#3A2906" d="M243 262v3c-2.75 2.25-2.75 2.25-6 4l-4-1z"/>
        <path fill="#DBA826" d="m342 252 1 4c-2.862 1.43-4.934.6-8 0v2h5v1h-6v-4h7z"/>
        <path fill="#503303" d="m388 252 3 1c1.188 3.063 1.188 3.063 2 6l-2 2c-3-5.625-3-5.625-3-9"/>
        <path fill="#DD9F1C" d="m765 212 1 3c-1.625 2.688-1.625 2.688-4 5-2.75.313-2.75.313-5 0z"/>
        <path fill="#E1AC1A" d="M396 174c1 4 1 4-.437 6.75L394 183l-4-1z"/>
        <path fill="#2D2406" d="M381 143c4.515.531 7.347 2.366 11 5-1.766.648-1.766.648-4 1-1.922-.96-1.922-.96-3.75-2.375l-1.86-1.398L381 144z"/>
        <path fill="#EEAF19" d="M508 267v3l-2 2c-2.451-.395-4.639-1.213-7-2l1-2 2.875.063c3.032.163 3.032.163 5.125-1.063"/>
        <path fill="#C8951A" d="M397 262c.934 3.01 1.044 3.867 0 7h-4l-1-6 3 3z"/>
        <path fill="#D1A128" d="M847 259c3.243 2.39 5.509 4.205 7 8-2.993-.998-3.948-1.752-6-4v5h-1z"/>
        <path fill="#523E03" d="M646 258h1c-.312 3.375-.312 3.375-1 7l-3 2-2-2 2-2q1.025-1.987 2-4z"/>
        <path fill="#2B1D03" d="m613 256 4 2v3h-2v-2h-2v7h-1q-.04-2.22-.062-4.437l-.036-2.497C612 257 612 257 613 256"/>
        <path fill="#392404" d="M205 220c4.308 1.566 8.062 3.683 12 6l-3 1a113 113 0 0 1-5-3c-2.191-.696-2.191-.696-4-1z"/>
        <path fill="#EBAA20" d="m710 160 1 4h-2l-1 4-4 1c3.75-6.75 3.75-6.75 6-9"/>
        <path fill="#E4A924" d="M91 153h4v2l5 1v2l3 1-2 1c-2.383-1.18-2.383-1.18-5.125-2.875l-2.758-1.68L91 154z"/>
        <path fill="#402608" d="M249 149h4v5c-4.625 2.125-4.625 2.125-8 1l6-4z"/>
        <path fill="#3A2B03" d="M95 136v3c-2.75 2.25-2.75 2.25-6 4l-4-1z"/>
        <path fill="#E6AB21" d="m206 281 4 1q-1.932 1.257-3.875 2.5l-2.18 1.406C202 287 202 287 200 287l1-4h5z"/>
        <path fill="#372108" d="m252 268-11 6v-2h2v-3c6.75-2.125 6.75-2.125 9-1"/>
        <path fill="#59410E" d="M918 261h3q.062 3.5 0 7c-1 1-1 1-4.062 1.063L914 269l2-3h4v-4z"/>
        <path fill="#563D05" d="M1071 258h3l.375 2.875c.342 3.212.342 3.212 2.625 5.125l-3 1c-1.5-1.125-1.5-1.125-3-3-.187-3.187-.187-3.187 0-6"/>
        <path fill="#231702" d="M483 258c1.231 3.694.644 6.206 0 10h-2v-9z"/>
        <path fill="#634906" d="M981 252h1v10h-2l-1 2-3-4h4z"/>
        <path fill="#FBB10A" d="m913 259 6 3v3l-5-1z"/>
        <path fill="#E2AC18" d="M93 260h7l2 5c-3.775-1.09-6.47-1.908-9-5"/>
        <path fill="#D9AC2F" d="M449 255h6v4h-6z"/>
        <path fill="#E4AC28" d="M619 252h1v9l-6-5 2-1 3 1z"/>
        <path fill="#493004" d="M798 252q2.514.428 5 1l1 3-5-1-1 3a88 88 0 0 1-1-5z"/>
        <path fill="#322508" d="m154 190 8 4-8 2z"/>
        <path fill="#3C2C02" d="m973 142 5 1v5l-2 1v-5l-5 1z"/>
        <path fill="#1C1C18" d="m137 288 2 4-2 3-4-2 2-3h2z"/>
        <path fill="#E2A822" d="m644 267-1 3c-3.982 1.054-6.982.841-11 0v-1q2.438-.503 4.875-1l2.742-.562C642 267 642 267 644 267"/>
        <path fill="#EBAF1C" d="M776 254h1v14l-3-1h2l-.5-3.812c-.85-6.487-.85-6.487.5-9.188"/>
        <path fill="#453008" d="M485 252h3c-1.074 2.915-1.778 4.778-4 7l-3-1c1.813-3 1.813-3 4-6"/>
        <path fill="#CC9C19" d="m470 176 1 2c-1.125 2.563-1.125 2.563-3 5-2.687.813-2.687.813-5 1l2.938-3.437 1.652-1.934A50 50 0 0 1 470 176"/>
        <path fill="#332109" d="M237 161c-1.152 2.468-2.048 4.048-4 6v-2l-5 1c6.129-5 6.129-5 9-5"/>
        <path fill="#E3AD1C" d="m918 143 5 1 2 8c-2.964-2.808-5.445-5.183-7-9"/>
        <path fill="#2F2806" d="M199 120h6v3h3v2c-3.775-1.09-6.47-1.908-9-5"/>
        <path fill="#C99B1B" d="M543 264h4v2h-2l-1 4h-4l1-2 2 1z"/>
        <path fill="#4B3503" d="M914 252c5.75-.125 5.75-.125 8 1v3l-8-1z"/>
        <path fill="#2F2607" d="m242 246 1 5a101 101 0 0 1-6-2l-1-2c3-1 3-1 6-1"/>
        <path fill="#D9A119" d="M546 218h4v6l-4 2 .563-2.875c.724-3.024.724-3.024-.563-5.125"/>
        <path fill="#E4A71C" d="m466 211 5 1 1 7c-2.667-2.49-4.557-4.634-6-8"/>
        <path fill="#D8A528" d="M187 199v3l-4 1v3l-4-2z"/>
        <path fill="#392806" d="M216 173v2c-3.25 2.32-6.059 3.437-10 4 2.644-2.923 5.894-6 10-6"/>
        <path fill="#33260B" d="M111 175c6.75.75 6.75.75 9 3v2c-3.775-1.09-6.47-1.908-9-5"/>
        <path fill="#302708" d="M244 157c-1.37 3.161-1.99 3.993-5 6v-2l-2-1c4.75-3 4.75-3 7-3"/>
        <path fill="#101718" d="M389 149h3c1.125 4.75 1.125 4.75 0 7l-3-1z"/>
        <path fill="#382308" d="M122 131c-3.124 2.523-6.38 4.273-10 6v-2c3.318-3.224 5.342-4.532 10-4"/>
        <path fill="#E0A822" d="m182 298-9 5 1-4c5.28-2.36 5.28-2.36 8-1"/>
        <path fill="#594006" d="m1117 265 7 1 1 3-7-1z"/>
        <path fill="#563A02" d="M678 261h1c.125 5.75.125 5.75-1 8h-3c1.875-5.75 1.875-5.75 3-8"/>
        <path fill="#282002" d="m1001 260 2 1-3 7c-2-3-2-3-2-6h3z"/>
        <path fill="#DDAE1A" d="M721 261h2v6l-5 2 2-3a75 75 0 0 0 1-5"/>
        <path fill="#2B1A00" d="m392 259 1 3h4l-2 5c-2.624-3.061-3-3.732-3-8"/>
        <path fill="#F2B01E" d="M1121 256h6l1 5-7-3z"/>
        <path fill="#4B3300" d="M1053 252h11v3l-1.562-.437c-3.123-.721-6.264-1.136-9.438-1.563z"/>
        <path fill="#3C2D09" d="M623 218h1v7l-4 1-1-3h4z"/>
        <path fill="#E5AE20" d="M178 215c3.775 1.09 6.47 1.908 9 5-3.123-.486-5.996-.999-9-2z"/>
        <path fill="#36260A" d="M199 182v3c-2 1.688-2 1.688-4 3l-3-2z"/>
        <path fill="#121816" d="m930 162 3 1-1 7h-2a177 177 0 0 1-1-7z"/>
        <path fill="#12181B" d="M383 146c1.938.313 1.938.313 4 1l1 3-2 1c-2.125-.937-2.125-.937-4-2z"/>
        <path fill="#372604" d="m179 299 1 2c-2.25 2.063-2.25 2.063-5 4l-4-1z"/>
        <path fill="#4C3202" d="M890 261c1.125 1.75 1.125 1.75 2 4-.875 2.25-.875 2.25-2 4h-2c.875-5.75.875-5.75 2-8"/>
        <path fill="#5C4103" d="m710 265 7 1 1 3h-6z"/>
        <path fill="#E7A71D" d="M1071 254h2l-2 8h-2c-.2-3.716-.152-4.772 2-8"/>
        <path fill="#2A200F" d="M76 256h2l.375 1.875c.497 2.316.497 2.316 2.625 4.125h-4c-1.062-1.875-1.062-1.875-2-4z"/>
        <path fill="#DCA621" d="m478 252 6 2-2 4c-2.248-2.052-3.002-3.007-4-6"/>
        <path fill="#DFAA23" d="M168 209c3.46 1.25 6.147 2.675 9 5l-7-1v-2h-2z"/>
        <path fill="#2F270D" d="M935 176h4l2 4-2 2c-4-4.875-4-4.875-4-6"/>
        <path fill="#402B07" d="M392 149c2.799 2.528 4.458 4.204 5 8l-2 1v-4l-3-1z"/>
        <path fill="#181F15" d="M673 145h2l2 6-5-1z"/>
        <path fill="#E5AA1C" d="m621 140-1 3h-2l2 6-3-1v-7c2-1 2-1 4-1"/>
        <path fill="#191920" d="M192 112h7v2l-7 1z"/>
        <path fill="#2B2307" d="m193 107 6 3-3 2-3-1z"/>
    </g>
</svg>
