<?xml version="1.0" encoding="UTF-8"?>
<svg data-bbox="0 0 144 36" viewBox="-1.08 -1.08 146.16 38.16" height="267" width="1024" xmlns="http://www.w3.org/2000/svg" data-type="color">
    <g>
        <path d="M60.7 9.2v17.5h5.6c2.2.1 4.3-.6 6.1-1.9 1.9-1.6 3.1-4.1 3.1-6.8 0-1.8-.6-3.5-1.5-5-.8-1.1-1.8-2.1-3-2.7-1.5-.7-3.1-1.1-4.8-1.1zm-8.4.1v17.5H55V9.3zm27.7 0v17.5h11.3v-2.5h-8.5v-5.2h7.7v-2.5h-7.7v-4.8h8.5V9.3zm16 0v17.5h2.7V13.7h.1l5.4 13.1h2.3l5.5-13.1v13.1h2.7V9.3h-3.8l-5.6 13.5-5.6-13.5zm24.4 0v17.5h2.7V9.3zm13.3 0-7.1 17.5h2.8l1.6-4.1h8.5l1.6 4.1h2.9l-7.1-17.5zm-70.4 2.6h2.8c1.5 0 3.1.4 4.3 1.4a6.23 6.23 0 0 1 2.2 4.8c0 1.2-.3 2.4-1 3.4-.4.5-.8 1-1.3 1.4-1.2.9-2.8 1.4-4.3 1.3h-2.7zm71.9.1 3.3 8.3h-6.6z" fill="#420098" data-color="1"/>
        <path d="M9.6 0 0 18l9.6 18h3.3L3.3 18l9.6-18Zm6.8 0-3.6 18 3.6 18h3l-3.6-18 3.6-18Zm6.9 0 3.6 18-3.6 18h3l3.6-18-3.6-18Zm6.5 0 9.6 18-9.6 18h3.3l9.6-18-9.6-18Z" fill="#420098" data-color="1"/>
    </g>
</svg>
