<?xml version="1.0" encoding="UTF-8"?>
<svg data-bbox="0 -0.258 392.137 390.511" height="390" width="392" xmlns="http://www.w3.org/2000/svg" data-type="shape">
    <g>
        <path d="M144 0c7.696.471 15.357.95 23 2h2l1-2h3v2h2l1-2q8.65-.037 17.297-.055 2.943-.008 5.884-.02 4.23-.017 8.46-.023l2.655-.015h2.486l2.18-.007C217.087.005 218.945.465 221 1c1.666.038 3.334.046 5 0v2l3.25-.625c3.898-.39 4.538-.137 7.75 1.625 3 .5 3 .5 6 0l1.813-2c2.627-2.402 3.48-2.272 6.937-2.25L256 0l-1 9 4 1V8l5 1 1 3 2 1v-2l-2-1h3v2l4-1v2h-2v2l10 1v2q2.654 1.472 5.313 2.938l2.988 1.652c2.685 1.494 2.685 1.494 5.699 2.41l2.438 2c2.302 2.094 2.302 2.094 4.562 2.438 3.13.88 4.762 3.27 7 5.562 1.634 1.053 3.292 2.073 5 3l1-1h2l1.313 2.938c2.652 4.675 6.64 7.467 10.812 10.746 7.031 5.665 12.725 12.105 17.953 19.445 1.805 2.145 1.805 2.145 4.656 2.148L353 72v2l-2 1 3 4 2-1 .875 3.375c.817 3.628.817 3.628 3.125 5.625 1.585 2.791 3.068 5.629 4.563 8.469 1.327 2.598 1.327 2.598 3.437 4.531q1.026 1.988 2 4l2 3v-2h4v6l-1-2h-3l.875 1.898 1.125 2.477 1.125 2.46C376 118 376 118 376 120l3 1v6h2l.379 2.598c.62 3.397 1.512 6.55 2.558 9.84 1.418 4.506 2.793 9.012 4.063 13.562l3-2c.8 3.287 1.097 4.71 0 8l-2 1 1 2c.04 2.333.043 4.667 0 7l2 1-.562 2.063c-.588 2.982-.588 2.982.026 6.147.544 3.844.665 7.488.669 11.368l.003 2.1q0 2.18-.006 4.357-.005 3.334.007 6.668 0 2.125-.004 4.25l-.004 3.88C392 214 392 214 391 217c-.249 4.148-.249 4.148 1 8h-3v6h3l-1 2h-3l.07 1.828.055 2.422.07 2.39c-.215 2.604-.937 4.094-2.195 6.36-1.178 3.533-2 6.454-2 10.188 0 2.924-.488 4.355-2 6.812l-1-2v10l-3-2-2 7h-2l.688 1.75c.312 2.25.312 2.25-1 4.313L372 284l-2 3-1.426 1.828c-1.836 2.533-3.284 5.165-4.762 7.922l-1.605 2.984L361 302h2l1-4 3 3-1 2c-2.322.407-4.657.744-7 1v2h-2l-.812 2.313C355 311 355 311 353.375 312.438c-1.706 1.615-1.706 1.615-1.562 4.75L352 320l-2-2a129 129 0 0 0-8.437 9c-2.93 3.393-6.11 6.135-9.563 9a133 133 0 0 0-4.508 5.547c-1.77 1.724-3.085 2.06-5.492 2.453v2a99 99 0 0 1-5.25 3.875c-3.591 2.499-6.675 5.024-9.75 8.125a201 201 0 0 1-6 3 124 124 0 0 0-6 4v1l-2.75.875c-3.764 1.282-3.764 1.282-7.25 3.125-1.158 2.947-1.158 2.947-1 6-5.6.127-5.6.127-7.937-.617-2.707-.502-3.882.192-6.313 1.43-4.214 2.02-8.19 3.192-12.75 4.187v2l-3 1v-2h-2v2h-5l1 6-2-1c-.625-2.062-.625-2.062-1-4-2.686.97-4.846 1.882-7.125 3.625C236 390 236 390 233 390l-2-2-3 2c-2.822.247-2.822.247-6.292.243l-3.933.01-4.252-.023h-4.351q-4.557-.003-9.114-.024-5.853-.024-11.706-.02-4.491-.001-8.982-.013l-4.318-.006q-3.01-.005-6.02-.022l-3.464-.011C163 390 163 390 162 389a88 88 0 0 0-5 1v-3l-2.125.125c-3.302-.144-5.77-1.007-8.875-2.125-4.987-1.806-4.987-1.806-10-1l-2-2c-2.67-1.78-4.976-2.891-7.937-4.062l-2.59-1.036c-2.153-.785-4.249-1.368-6.473-1.902a206 206 0 0 1-5-2v-2a665 665 0 0 0-4.312-1.5l-2.426-.844c-2.35-.795-2.35-.795-5.262-.656l-2-3c-2.074-1.622-2.074-1.622-4.437-3.125l-2.372-1.57c-2.24-1.44-2.24-1.44-5.191-2.305l-5-5c-2.724-1.682-3.739-2-7-2l-.773-1.762c-1.352-2.466-2.844-4.086-4.852-6.05l-2.176-2.13a154 154 0 0 0-6.011-5.308c-3.6-3.099-6.844-6.453-10.063-9.937l-1.445-1.55c-1.91-2.097-3.555-4.009-4.813-6.564-.805-2.068-.805-2.068-3.867-2.699v-3h-4c-1.765-3.088-2-4.233-2-8-1.063-1.896-1.063-1.896-2.5-3.625-2.5-3.18-2.5-3.18-2.5-5.375l-2-1c-2.418-3.627-3.852-6.454-5-10.687L21 280l-2-1a161 161 0 0 1-3-7h-2c-.826-2.892-1-4.887-1-8a73 73 0 0 0-1.5-4.75l-.844-2.422L10 255l-2 2 .14-1.73C8.483 247.605 6.524 241.187 4 234l-1 2-2-6h2v-2H1l.563-3.562c.516-3.982.072-7.47-.563-11.438l1-2H0l.5-3.25c.588-3.78.588-3.78.5-7.75l.035-4.625.028-5.375.025-2.734.01-2.641.016-2.398C1 180.02.57 178.127 0 176c.037-4.744.615-8.468 4-12H2l1-4 1 1-.187-3c-.016-3.738 1.035-6.464 2.46-9.875 1.042-3.046 1.234-6.043 1.418-9.242C8 137 8 137 10 135c.4-2.323.74-4.657 1-7l3-1 .25-3.031c.727-5.091 3.293-8.999 5.867-13.364C22.547 106.322 23.594 102.92 24 98l2.375-.687c2.771-1.077 2.771-1.077 3.875-3.563.792-2.905 1.334-5.769 1.75-8.75h3c1.43-1.43 1.43-1.43 2.625-3.312.425-.615.85-1.23 1.29-1.864C40.157 77.883 40.157 77.883 41 75a148 148 0 0 1 3.324-3.344c2.217-2.191 4.36-4.44 6.489-6.719l2.394-2.535C55.399 59.965 55.399 59.965 55 56l2.75-.875c2.572-.89 4.863-1.84 7.25-3.125v-2c1.477-1.252 2.958-2.502 4.492-3.684C71.268 44.882 71.268 44.882 73 42h2l2-1 1-3c3.563-1.687 3.563-1.687 7-3l-1-3 1.773.637c2.221.575 2.221.575 4.079-.492C94.364 28.842 94.364 28.842 97 24h7l1-3 5-1 1-3 1.941-.227c6.044-.918 9.18-2.345 13.54-6.582C128 9 128 9 130.624 9.25L133 10a208 208 0 0 0 5-2c3.313-.125 3.313-.125 6 0V3c2 1 2 1 3 3l1-2 3 1 1-1V3l-8-1zm107 1 2 4h2V1zm-98 1c3.228 2.152 4.284 2.2 8 2-3.088-1.765-4.233-2-8-2m91 4c3.05 1.011 3.05 1.011 6 0l-1-3c-1.968 0-3.505 1.843-5 3m-55.062 2.5L188 11l2.188-1.062c3.242-1.081 4.571-.887 7.812.062l2.938.688c3.95 1.692 6.656 3.724 9.062 7.312.875 5.15-.593 9.133-2.332 13.91-.778 2.435-.914 4.549-.668 7.09 2.744 1.83 4.849 2.116 8.063 2.063C219 41 219 41 222 42l1-1 2 2c2.657.682 2.657.682 5.625 1.125l3.04.508L236 45c-.833-2.167-.833-2.167-3-3l9 1 1-2v2l-5 2v1l1.766.227c6.628 1.063 11.813 3.37 17.668 6.628 2.603 1.508 2.603 1.508 5.566.145v2c6.754 3.65 6.754 3.65 14 6.063 3 .937 3 .937 4.313 3L282 66c2.126 1.124 2.126 1.124 5.063 2C290 69 290 69 291 70l-1 2a259 259 0 0 0 3.813 2.563l2.144 1.44c2.157 1.348 2.157 1.348 5.043-.003 3 3.625 3 3.625 3 7 1.46 2.12 1.46 2.12 3.375 4.188l1.898 2.167C310.844 91.23 310.844 91.23 313 91l.813 1.813c1.172 2.16 2.38 3.545 4.187 5.187l3-1-1-1 2-2v-4c1.438-1.625 1.438-1.625 3-3l1-2 2.25-.25c4.033-1.1 5.237-3.47 7.75-6.75h1v3h2l.313 1.625c.649 2.559.649 2.559 2.312 5.375 1.375 3 1.375 3 1.063 5.375L342 95c4.43 1.813 4.43 1.813 9 1l-1 3c1.235 2.23 1.235 2.23 3 4h2v-2h2c-2 3-2 3-4 4l1 2-2 1 1 4 1.375-1.5C356 109 356 109 358 109v4l4-1v2l-5 1v3l5-1 2 3h2v-2l3-1-4-4 2-2-3-1-.125-2.375C362.002 99.865 356.63 93.381 352 87l-1.687-2.937L349 82h-2l-.687-2.125C344.5 75.908 342.003 72.001 338 70a183 183 0 0 1-3.562-4.625c-3.467-4.431-7.085-7.74-11.653-11C321 53 321 53 320 51a76 76 0 0 0-5-1l-3-1v-4l-6 3v3c-1.16 4.542-2.564 6.867-6 10a259 259 0 0 0-4 5c-3.9-.578-6.012-2.535-9-5-1.311-.709-2.638-1.395-4-2l2-4-2-2c-3.118.646-3.118.646-4 3-3.875-1.75-3.875-1.75-5-4h2c2.48-3.306 4.04-6.023 5-10a102 102 0 0 1 3-3v-2c3.875-1 3.875-1 5-1l1 4h2l-1.062 2.188c-1.042 3.124-.829 4.694.062 7.812 1.708-1.634 2.935-2.87 4-5l4 1c-.645 3.485-2.101 6.028-4 9 1.915-.122 1.915-.122 4-1 1.88-2.356 1.88-2.356 3-5l-1-2h4v-2l3-1-2-4-2 1-1-2h-3v-3a1223 1223 0 0 0-5.375-3l-3.023-1.687C289.188 29.85 289.188 29.85 287 30l-4-4-3-1-2 1-1-3c-1.845-1.08-1.845-1.08-4.187-1.875l-2.75-1.02L267 19l-3.25-1.262C255.222 14.511 246.934 12.624 238 11c-3.705-.864-7.346-1.946-11-3v2h-2V8l-3.125-.437A406 406 0 0 1 212 6v2h-2V6l-2.187 1.125c-3.556 1.106-4.43.259-7.813-1.125-6.29-.98-6.29-.98-11.062 2.5M250 6v2l3-1zm-63 1 2 2V7zm-14 0q-2.219.227-4.437.438c-4.05.425-7.689 1.325-11.563 2.562v3l-3 1 5 1c-3.906.223-6.415-.529-10-2h-4l-1 2-2.121-.645c-3.66-.452-5.596.456-8.941 1.957l-3.098 1.364A212 212 0 0 0 123 21l4 3-2 1-1-3h-5l1 2-2 1-1-2-1 2h-3c-2.018.828-2.018.828-4.062 1.938l-2.098 1.09L105 29l-2 1v3l-3-1c-2.438 1.098-2.438 1.098-4.937 2.75l-2.59 1.61c-3.33 2.196-3.33 2.196-6.473 4.64v2l-1.937.375L82 44l-1 2c-2.257 1.483-4.626 2.705-7 4v5l-5-1 1 2c-1.375 2.5-1.375 2.5-3 5l-1 2-1-2-2-1-1.215 1.398A640 640 0 0 1 48.82 75.801C46.814 77.955 46.814 77.955 46 81l-2 2v1l-2 1.313L40 87v4l6 2 1-3h2c1.508-2.263 2.785-4.508 3.875-7 1.584-2.816 3.82-4.75 6.125-7 2.384-2.436 2.384-2.436 4-5-.126-2.264-.126-2.264-1-4l1 3c2.624-1.419 4.644-2.52 6.438-4.937C71 63 71 63 73.812 61.187c2.756-1.89 4.215-3.278 6.25-5.812 2.414-2.97 4.25-4.179 7.938-5.375l1.375-1.375c2.046-2.046 4.41-3.266 6.93-4.652 1.81-.99 1.81-.99 3.757-2.535C102 40 102 40 105.189 38.438 108.096 37.3 108.096 37.3 109 35a88 88 0 0 1 5-1c2.33-.959 2.33-.959 4-4l3 1c2.167-.875 2.167-.875 4-2l2 2-3 4c1.355 2.537 1.355 2.537 3 5h2l-1 3h2v4l-3.25-.687c-3.663-.665-3.663-.665-6.125 1.062L119 49l-1 1-2-1v3h-2l1-3-6-3c-1.417 1.576-1.417 1.576-2 4 1.068 2.57 2.465 4.653 4 7h-2l1 4c6.925.641 12.362-.758 18-5 1.135-3.121 1.135-3.121 1-6l2-1-2 4c2.606.93 3.642 1.15 6.25.063L137 52v-2l3 1a88 88 0 0 0 4-2c2.324-.697 4.657-1.37 7-2l-1-2 2-2h3v2q3.188-.463 6.375-.937l3.586-.528c2.946-.37 2.946-.37 5.039-1.535v-2l2 2c2.348.022 2.348.022 4.938-.375 2.74-.347 5.294-.625 8.062-.625v-2l2.25.563c2.7.429 4.196.288 6.75-.563l-1-3h-5l-1-3-2 1c-2.291-2.988-3.802-5.407-5-9l1.5-1.937c1.781-1.948 1.781-1.948 1.188-4.313L182 17h2v-2l3-1-1-1.75C185 10 185 10 185 6c-4.156-.099-7.914.279-12 1m-19 3-1 2h2zm-4 1 2 2v-2zm40 2 1 2Zm11 0-1 2h2zm-6 2-1 2h2zm-8 2-1 3 3-1zm-2 5 1 3 3-2zm19 0 1 3 3-1-2-2zm-23 3 1 3v-3zm22 2 2 1 1 2v-3zm-13 4 1 2 1-2zm5 0 1 3Zm5 0 1 3 2-2zm5 2-4 5 4 1 2-4zm-6 3-3 3 2 1 3-2zm-80 1 1 2Zm168 0 1 2Zm-170 2 2 2v-2zm3 0 1 3Zm-10 1 1 2 2-2zm-4 2-1 2 3-1zm203 1-1 2h2zm-157 1-1 2 3-1zm-46 1v2l2-1zm93 0 4 2-1-2zm-19 1v2l2-1zm24-1c-.768 1.794-.768 1.794-1 4 1.114 2.082 1.114 2.082 2.813 4 1.684 2.049 3.092 3.797 4.222 6.203L211 61c2.555.812 2.555.812 5 1-.478-4.21-1.09-6.865-4-10l-3-2 7-3v-1l-2.117.035-2.758.028-2.742.035C206 46 206 46 204 45m15 2c1.141 3.423 2 4.148 5 6h3v-3l2-1zm-32-2-1 3-1-2-2 1 1 2-3.375-.562c-3.45-.755-3.45-.755-5.625.562v2l2.25-.125c2.75.125 2.75.125 4.813 1.25 1.92 1.115 1.92 1.115 4 .313 2.429-1.803 3.54-3.783 4.937-6.438zm7 3c-2.335 1.834-2.335 1.834-4 4l4 1 1-2c2.063-1.125 2.063-1.125 4-2-2.293-.86-2.293-.86-5-1m24 1v2l2-1zM95 50l-1 3h2l1-3zm73 0-1 4 5 4 2-1c-1.289-2.875-2.614-4.925-5-7zm61 0-1 2 3-1zm54 0-1 2 3 1-1-3zm-130 2c.195 1.95.195 1.95 1 4 2.582 1.721 3.85 2 7 2-.523-2.763-1.109-5.326-2-8-2.463 0-3.852.855-6 2m24-1 1 2Zm20 0 2 2v-2zm-46 1 1 2Zm90 0 1 2 2-1zm-78 1 1 2Zm53 0 1 3h2v-2zm-116 1v3l-5 2c2.173 2.173 3.01 2.648 6 3 2.217-.65 2.217-.65 4-2l1-3c-1.312-1.562-1.312-1.562-3-3zm103 0 1 3Zm33 0 3 3-1-3zm-72 1 1 2Zm24 1 3 2 2-2v-2c-2.324-.185-2.324-.185-5 2m39-1 1 2Zm22 0v2h-2l1 2 3-1v-3zm45 0-1 4 3-1zM87 55l-6 5q1.402 1.909 2.813 3.813l1.582 2.144c1.527 2.04 1.527 2.04 3.242 3.617C90 71 90 71 91 74l-4-1 1 2-1.937.313L84 76l-1 3a499 499 0 0 1-4 3v2l-3 1-1.5 1.5C73 88 73 88 70 89l-1 1-1-2-2 1 1 3-2 1 2 3c-2.53 2.711-4.666 4.43-8 6l-2.812 2c-3.484 2.186-6.225 3.049-10.188 4 2.622 2.154 4.644 3.4 8 4l.188 2.375L55 117c2.476 1.375 2.476 1.375 5 2 4.53-4.26 8.191-9.529 10.125-15.437L71 101l1.777-.86c2.913-1.494 4.524-3.483 6.66-5.953 4.864-5.559 4.864-5.559 7.5-8.062 2.13-1.972 2.13-1.972 3.126-4.312C91 80 91 80 93.063 79.063L95 78c.656-2.527.656-2.527 1-5l2-1-1-4c-1.947.842-1.947.842-3 2v-3l2-1-3.375-1.187c-2.818-1.202-3.476-1.554-5.062-4.313C87 58 87 58 87 55m53 1-1.25 1.438c-2.393 2.136-4.635 2.088-7.75 2.562l-1 2c3.256.943 3.256.943 7 1 3.002-2.167 3.002-2.167 5-5v-2zm7 0a141 141 0 0 0-5 5v2c1.915-.122 1.915-.122 4-1 1.771-2.48 1.771-2.48 3-5zm31 0 1 2Zm5 0c-2.398 2.637-2.398 2.637-3 6l-2 1 7 2-1-4h1v-5zm-90 1v4l2-3zm14 0-1 4h-3v3l-2-1-1 2c-2.062.625-2.062.625-4 1 1.363 2.04 1.363 2.04 3 4h2l2-2 1 2c5.47-2.881 5.47-2.881 10-7l-5-1-1-5zm81 0c-1.023 4.397-1.168 6.989 1 11 1.52 1.773 1.52 1.773 3 3l6-2-2.437-2.187C192.977 63.975 192.32 62.728 192 59l-2 1zm16 0 1 2 1-2zm35 0 4 2-1-2zm14 0v2h-5l1 3 7-1 1-3zM65 58l-1 2 3-1zm141 0v3h2l-1-3zm20 0 1 3v-3zm4 0v5l5 1 2-5c-3.26-1.97-3.26-1.97-7-1m7 2 1 3h2v-2zm20 0 1 2Zm35 0-1 2h2zm-130 0-2 2h3zm2 1 1 2 1-2zm36-1c-2.108.319-2.108.319-4 1l2 4h3l1-3zm19 1 1 2Zm43 0 1 2 1-2zm-50 1-1 2 3 1v-3zm41 0 1 2 1-2zm3 0 1 3Zm4 0 1 3Zm-107 1 1 5 1.75.375C158 69 158 69 160 70.125c2.44 1.067 3.541.753 6-.125l-1-2h-5v-2zm15-1-1 5c3.38 0 5.835-.875 9-2v-2l-2.875.063C170 63 170 63 168 62m9 1 1 2Zm28 0-1 3-2 1v2h2l1 2c1.628-2.323 1.628-2.323 3-5l-1-3zm35 0-1 2h2zm4 0-3 3c3.264 1.883 6.244 2.673 10 3l2-2-2-4c-2.756.498-2.756.498-5 2zm19 0v3h3l-1-3zM76 64l-2 4 3 1 1 2 3-3zm193 0-1 2 2 2 3-1q-1.47-1.53-3-3zm-87 1-1.875 2.875C178 71 178 71 176 73c1.164 1.381 1.164 1.381 4.375 1.25 3.554.093 3.554.093 5.563-1.75L187 71c-.781-2.496-.781-2.496-2-5zm71 0 1 2 1-2zm8 0 1 3Zm-122.187 2.438c-.929.515-1.857 1.03-2.813 1.562l3 4 1.875-1.875L145 67c-3.072-1.401-3.072-1.401-6.187.438M230 66l-4 4 2 3h2l2-2 2-1-1-3zm-100 1 1 2Zm143 0 1 2Zm-156 1-1 2h2zm49 0 1 2Zm33 0v2l-3 1 2 2h3l1-3-1-2zm-73 1 4 1Zm134 0-1.25 1.875c-2.28 2.769-4.325 3.25-7.75 4.125h-2l-1 3 9 1 .813-2.312c1.145-2.593 2.184-3.776 4.187-5.688v-2zM79 70l1 4 2-3zm35 0c-.224 2.925-.224 2.925 1 5l4-1c-1.363-2.04-1.363-2.04-3-4zm38-1-5 1 1 3v3h4v-3h2zm2 1 2 2v-2zm58 2c2.917 1.984 4.124 1.988 7.75 1.625L223 73l1 2h5c-.967-2.102-.967-2.102-3-4-5.41-1.242-8.798-1.211-14 1m29-2 1 2 2-1zm12 0-1 2 3-1zm12 0-1 4 2 1 3-4zM69 71l2 7 4 1c-.348-1.975-.348-1.975-1-4l-2-1a102 102 0 0 1-3-3m30 0 2 2 1-2zm34.375 1.5L132 74l2 2 3-2v-3c-2.124-.226-2.124-.226-3.625 1.5M143 71l1 2 1-2zm65 0-1 2h2zm26 0-1 4h2l1-3zm46 0v2l2-1zm-124 1v2l2-1zm-74 1v3l3-1v-2zm15 0 2 2v-2zm45 0-1 2h2zm46-2v2l-3 1h6l-2-1zm-92 3 1 2Zm24 0-2 3 2 1v-2l4-1zm10 0 1 3 1-3zm132 0v4l1-2 2-1zm-151 1v3l2-2zm130 0 2 2c2.603-.32 2.603-.32 5-1-2.49-.687-4.379-1-7-1m-50 1v2h5v2h2v-4zm9 0-2 5 3 1 2-3v2l4 1v-2l2 2c1.963.033 3.928.058 5.89.004 2.775-.005 5.396.453 8.11.996-1.267-2.534-2.407-2.978-5-4l-2 1-1-2c-4.67-1.313-10.132-2-15-2m73 0 1 2Zm14 0-.937 2.438C285 81 285 81 284 82c-2.062-.437-2.062-.437-4-1l-1 3c3.287.8 4.71 1.097 8 0v3h6l.813 2.938L295 93l3 1 2-2 3-1c-3.798-4.552-7.614-9.003-12-13h-3zm-183 1a622 622 0 0 0-4.5 3.375l-2.531 1.898L95 84v2l-1.875.75C90.541 88.01 90.541 88.01 89 92l9 1-1-6 1 2c2.879-.679 5.643-1.532 8.438-2.5 3.169-1.072 6.25-1.966 9.562-2.5-2.474-2.474-4.693-2.967-8-4-2-1-2-1-4-3m17 0 1 2 1-2zm65-1-2.164.5c-2.827.498-5.347.566-8.211.5-4.342-.047-8.354.24-12.625 1l-2 5 2.598-.219c10.485-.85 10.485-.85 14.527-.781 2.947.152 2.947.152 5.875-1a65 65 0 0 1 4.188-.062L192 81l-1-2-2-.5-2-.5zm72 1 1 2Zm7 0 1 2 2-1zm11 0 1 2Zm5 0 1 2 1-2zm-167 1 1 2Zm110 0-2 2c2.943 2.487 5.217 3.513 9 4.188l2.563.48c2.688.422 2.688.422 6.437.332v-2l4-1c-1.185-1.604-1.185-1.604-3-3-2.542-.25-2.542-.25-5 0-2 0-2 0-5.437-.5-3.459-.57-3.459-.57-6.563-.5m-73 1v5l1-2c2.063-1.125 2.063-1.125 4-2zm42 0v2l3-1zM73 80l1 2Zm83 1-1 2 4-2zm-11.562.438L143 83l-2 1v-2l2-1-11 2 2 4 2-2c1.668.324 3.335.66 5 1 3.221-.383 3.221-.383 6-1v-3l1 2 2-1-1-3c-2.986-.339-2.986-.339-4.562 1.438M241 85q3.124.757 6.25 1.5l3.516.844c3.337.789 3.337.789 7.234.656v-2h2l-1 3h2l1-4c-6.338-5.831-14.263-4.491-21 0M58 83l-2 4 7 5 3-2c-.113-1.959-.113-1.959-1-4-2.41-1.247-2.41-1.247-5-2zm68 1-1 2h2l1 3 2-2 2 1v-4zm56 0v1l11 1 1-2zm-60 1v3l3 2v-4zm141 0-1 4h10v2l5-2c-.858-2.193-.858-2.193-3.187-3.187-3.32-.96-5.464-.483-8.813.187zm-85-1v2l-2.625-.625c-3.325-.617-3.325-.617-6.125.598-3.73 1.179-6.722 1.19-10.625 1.09-5.346-.08-10.354.076-15.625.937l1 3h-2v-2c-13.167 1.477-13.167 1.477-24 8h2v2l-4 1-1 4h-2v-2l-3 1 .496 2.879c.67 4.686.613 9.334.567 14.058l-.014 2.65q-.02 3.207-.049 6.413c2.962-.613 4.38-1.254 7-3l-1-4 3-1 1-3 2-2-2-2h2v-2l2.313 1c2.678 1.174 2.678 1.174 5.687 1l2 1 1-2c3.063-.625 3.063-.625 6-1v2c2.075 1.224 2.075 1.224 5 1v-2l6 1v5h-2v2l-2 1 4 2-.312 3.688c-.034 3.762.219 4.2 2.812 7.312l2.5 2-7 2v2.375c0 3.055-.016 4.673-1 7.625h-2l-2.375 2.563L141 154c-2.312-.187-2.312-.187-4-1l-1 2-1-4-4 4c-3-3.75-3-3.75-3-6l-1.875.5C124 150 124 150 122 150l-1 1-.078-1.898-.172-2.477-.14-2.46c-.402-2.353-.402-2.353-2.657-3.454L116 140l1-3-2-2-2-2-2 2 1 1h-1v35l3 1 3-2c6.836-1.448 11.885-1.37 18 2 3.277 1.745 3.277 1.745 7 2l1.75 2.875c2.821 3.919 4.565 4.317 9.25 5.125 3.292.168 3.292.168 6 0l1-2 3.813-.187c6.673-.557 11.645-4.34 17.187-7.813 3.54-1.923 7.11-2.953 11-4v2l5 1v-2h2l1 2c1.925 1.15 1.925 1.15 4 1l3 2 3-1v-2l2-1 1 2-2 1 3 1 .375 1.938L215 178c2.457 1.233 2.457 1.233 5 2l1 1c3.88.895 6.182 1.273 10 0l1 1 7-2-3-3 2-1v2h2l1-7h2v-2c2.313-.187 2.313-.187 5 0l3 3c3.48.366 6.606-.224 10-1v-2l2-1 1 3 1.938-.562L268 170l1 1q1.99.544 4 1v-3l1 2 3-1-1-2 3 2-1 5 5 1v-73c-3.217-1.072-4.053-.936-7.187-.062L272 104l1-8-11-2v-2a824 824 0 0 0-5.437-1.062l-3.06-.598L251 90l-1 1-2-2h-3v2h-2l-1-3-2.379-.184c-4.521-.36-9.006-.727-13.496-1.379-3.09-.432-6.01-.51-9.125-.437-2 0-2 0-3.75-.5-2.334-.604-2.334-.604-5.125-.5-3.125 0-3.125 0-6.25-.562-2.758-.42-4.293-.394-6.875.562l-1 1c-5.67.46-10.7.232-16-2m-67 5 1 4c2.934-.267 2.934-.267 6-1 2.277-2.815 2.277-2.815 2-6-3.304 0-6.021 1.676-9 3m223-2v3l3 1 1-2-1-2zm-55 1-3 3 3.438.375L283 92l1 2 2-4zm-171 1v2l3 1v-2zm161 0-1 2 3-1zM38 90l1 2Zm61 0v2h2v-2zm5 0c-.12 12.712.142 25.316 1 38l3 1c.058-4.23.094-8.458.125-12.687l.05-3.631.02-3.506.032-3.222c-.234-3.043-1.1-5.148-2.227-7.954 1-3 1-3 3.063-4.187L111 93l-5-2-1 2zm225 1 1 2Zm-53 1v1h5v-1zM98 93l.07 2.45.055 3.237.07 3.2c-.199 3.172-.935 5.227-2.195 8.113-.707 3.64-1 7.29-1 11l4 1c3.978-7.956 2.099-20.23 2-29zm165 0 2 2c2.108-.319 2.108-.319 4-1zm30 0 1 9 5-2-1-2h-1v-4zM36 94l1 2 1-2zm60 0-1 4h-2l1 5 3 1V94zm231-1c-2.23 1.235-2.23 1.235-4 3v2l-2 1c.503 5.152 3.122 8.772 5.875 13l2.68 4.188 1.276 1.98A229 229 0 0 1 335 125l6-1-.687-2.312L340 119c1.438-1.812 1.438-1.812 3-3l-2.75-.75c-3.99-1.535-6.33-3.411-8.25-7.25l-2 1 .75-2.187c.567-2.992.567-2.992-1.687-5.626L327 99l1.5-1.375c1.726-1.501 1.726-1.501 1.5-3.625zm14 2v2l2-1zM54 96l-1 5h3l1-4zm221 0 1 2h2v-2zm-161 0v2l-3-1-1 4 6-2v-3zm164 2 1 3h2l2 1-1-5c-2.075-.15-2.075-.15-4 1m-171 0 1 2Zm228 0v2l2-1zM25 99l1 2Zm13 0-1 6h2c.681-1.892.681-1.892 1-4zm235 0v4h4l-2-4zm65 0-1 2 2 2 1-4zm-292 1c-1.245 2.49-.777 3.41 0 6l4-1-2-1c-.625-2.062-.625-2.062-1-4zm251 1v3l2-3zm35 0-1 3h2zm14 1-1 2h2zm-316 1 1 2Zm14 0-1 4 3 1-1-5zm254 0 1 2Zm41 0c-2.307 2.715-2.307 2.715-1.625 5.188L338 110l3-1-1-6zm-248 1-3 4 3 1 2-4zm202 0 1 4Zm52 1 1 2 1-2zm-316 1q-1.444 2.809-2.875 5.625l-1.617 3.164c-1.56 3.16-1.56 3.16-2.578 6.422C21 124 21 124 19 127c.317 3.64.317 3.64 1 7l1.313-1.5C23 131 23 131 26 131c3.415-7.437 3.415-7.437 6.688-14.937 1.03-2.406 2.105-4.742 3.312-7.063h-4l-1-3zm287 0 1 2Zm15 0 1 2Zm-37 2 1 2Zm9-1-2 2 3 2 1-3zm44 1 1 2Zm-39 2 1 2Zm-233 1 1 2Zm3 0 1 2Zm215 0a515 515 0 0 0-.125 5.813l-.07 3.269c-.035 3.112-.035 3.112 2.195 5.918 2.817-3.185 4-5.709 4-10-2.25-2.918-2.25-2.918-5-5zm11 0-1 4h3l-1-4zm13 0v7l6 2c.681-1.892.681-1.892 1-4l-2-2a89 89 0 0 1-2-4c-1.224-.075-1.224-.075-3 1m32 0-3 2 3 1zm-307 2-2 3 7 3 2-3c-3.254-2.259-3.254-2.259-7-3m31-1c-1.542 1.375-1.542 1.375-3 3v5l6 1-1-2h-3l3-3h-2v-2l2-1zm13 1 1 3v3l2-1v-5zm8 1 1 2Zm215 0 1 2Zm-260 3 .5 1.813c.63 2.757.5 5.363.5 8.187l-3-1c-2.424 2.08-2.424 2.08-3.312 5.063L43 133c-3.062 1.25-3.062 1.25-6 2l-1-1a1049 1049 0 0 0-5-4l-2 5 2.813 1.188c3.413 1.94 4.499 3.342 6.187 6.812l3-1c2.063.563 2.063.563 4 2 1.25 3.125 1.25 3.125 2 6 2.139-2.139 2.427-3.133 3-6l-3-1-1.5-1.562c-1.515-1.784-1.515-1.784-4.5-1.438l1-4v3l1.813.313c2.47.776 3.51 1.758 5.187 3.687l2-3-2-4 2-3 2 2c1.108-1.883 1.108-1.883 2-4l-1-2 2-1h-2l1-2 2 1c1.43-2.354 2.087-3.48 1.625-6.25L58 119l-3.375-.437C51 118 51 118 49 117m99 0 1 2Zm155 1h2l-.937 2.313A111 111 0 0 0 302 126c2.08-.41 2.08-.41 4-2 .688-2.697.82-5.202 1-8-1.462-.092-1.462-.092-4 2m51-1 1 2Zm-233 1 1 3Zm224.438 3.375-3.004 1.898c-2.516 1.498-2.516 1.498-3.434 3.727l4-1v3c4.43-1.208 6.981-2.517 10-6l1 2 3-2-2-4-2 1v-2c-3.102 0-4.98 1.725-7.562 3.375M88 119v3l-2 1 3 3c1.333-2.667.671-4.167 0-7zm5 0 1 2Zm35 0-1 3h3l2 5 2-2c-.32-2.603-.32-2.603-1-5zm234 0-1 2h2zm-224 1c-1.61 2.376-1.61 2.376-3 5l1 2 4-4 2 1 1-3zm228 1c-.652 2.025-.652 2.025-1 4v-4l-3 1q.966 2.938 1.938 5.875l1.09 3.305c.871 2.728.871 2.728 1.972 4.82l2-3c-1.393 3.367-2.979 4.986-6 7l1 2h6l1 4 1-1 1 3-3 1v2l-2.687-1.562c-3.513-1.525-4.76-1.587-8.313-.438v2l-4-2v2c-2.629-1.522-4.844-2.844-7-5-1.85 3.81-2.285 5.946-1 10a133 133 0 0 0 3 6l1-2h2l-1.062 2.313c-1.262 2.735-1.262 2.735.062 5.687l-2 3 1 3v3c.438 2.565.834 4.669 2 7a441 441 0 0 1-1 4 121 121 0 0 0-.187 6.125l-.043 3.195c-.047 2.833-.047 2.833 2.23 4.68 2 .043 4 .04 6 0a69 69 0 0 1 4 1h2c2.671.3 5.334.656 8 1-.947-2.158-.947-2.158-3-4h2l2-2c.082 2.208.14 4.416.188 6.625l.105 3.727c-.393 4.899-1.72 8.3-5.48 11.523L368 221l2.5 1.25L373 224v4h2v3l-3 1c-.924 1.862-.924 1.862-1 4l2 3h2l-1.5 1.875c-1.692 1.964-1.692 1.964-1.5 4.125h-2l-1-2-1 3-3 1c-.733 2.015-.733 2.015-1 4h3l-2 2h2v3l3 1v4h-2l-1-2v2l-3-1v4l5-1c-1 1-1 1-3.437 1.125C363 264 363 264 361 263l1 4h-2l1 2h1v3l-1-2c-3.03-.658-3.03-.658-6-1l1.063 2.25c1.009 2.961.817 3.87-.063 6.75l-18-9 2-10 3-1h-4l-1.312 2.625a460 460 0 0 1-3.313 6.5c-1.124 2.35-1.887 4.337-2.375 6.875h-2c-1.29 2.395-2.165 4.56-2.937 7.188L326 284l-3 1 1 3-2-1a415 415 0 0 0-3.5 3.813l-1.969 2.144c-1.83 2.018-1.83 2.018-1.531 5.043l2.23-.691 2.957-.872 2.918-.878c3.023-.584 4.954-.37 7.895.441v-3l1 3 2.875 1.875c3.302 2.246 4.695 3.423 6.125 7.125-.152 1.992-.152 1.992-.5 4.125-.933 3.753-.933 3.753.938 5.875l1.562 1v-2l2-1 1-3 2-1v-1l1.875-1.25c2.496-2.055 3.025-3.765 4.125-6.75l2-1c2.78-4.339 2.78-4.339 4.5-9.125.753-2.824 2.674-4.637 4.5-6.875v-2l-2-1c-.625-2.062-.625-2.062-1-4l2-1 1 2 1-3 3 1 .313-3.375L370 268l3-2c.47-2.098.47-2.098.5-4.437.166-4.197.166-4.197 1.984-6.188L377 254c1.107-3.58 1.107-3.58 0-7l2-1-3-1v-2l4 2-1-4 2-1h-2v-7l2 1c3.158-5.768 3.486-11.076 3.79-17.598.198-3.2.676-6.244 1.21-9.402.21-3.895.21-3.895-1-7 .087-1.879.242-3.755.438-5.625.717-7.72.733-14.702-.438-22.375l-.331-2.184c-.359-2.336-.731-4.67-1.106-7.004l-.37-2.404-.377-2.326-.33-2.087c-.818-3.355-2.046-5.555-4.486-7.995.375-2.625.375-2.625 1-5h-2l.563-1.812c.658-2.352.658-2.352-.563-5.188l-6-1 .473-2.117.59-2.758.597-2.742c.572-2.393.572-2.393-.66-4.383h-2l-1-3c-1.224-.075-1.224-.075-3 1m-266 0 1 4Zm-26 1 1 4 1-3zm52 0v3l2-2zm17 0 1 2Zm173 0 1 2 1-2zm-277 1-2 5 3 1 1-6zm80 0v2l2-1zm-23 1 3 3-1-3zm232 0 1 2Zm-249 1 1 2Zm48 0 1 2 1-2zm13 0-2 4c1.985-.267 1.985-.267 4-1l1-3zm182 0 1 2 1-2zm14 0 2 2v-2zm-43 1v7l2 1 .438 2 .562 2 3 1 .375 3.375c.272 3.656.272 3.656 2.625 5.625h2l1 4h2l.375-3.437L308 145l2-1a101 101 0 0 0 2-6 88 88 0 0 0-5-1l-1 1c-2.062-.437-2.062-.437-4-1l1-2a76 76 0 0 0-1-5h-2l-1-2-3 2zm36 0-.875 2.438C327 131 327 131 325 132l5 2 2-4zm-182 1 1 2Zm-85 1c-1.206 2.332-2.165 4.496-3 7h8c.412-3.847.412-3.847-1.375-5.75-1.548-1.453-1.548-1.453-3.625-1.25m36 0-2 3 4-2zm25 0v3l2-1zm199 0-1 2 3-1zm15 0 1 2 1-2zm3 0-1 3 1 2h2v-5zm-248 0-2 1c-.467 2.126-.467 2.126-.625 4.563l-.227 2.503L89 138c-2.766-1.027-5.135-2.087-7.625-3.687L79 133l-3 1 1.242 1.723c4.944 7.084 4.944 7.084 5.945 11.152.798 3.068 1.219 4.361 3.813 6.125h3l.375-2.75c.562-2.924 1.155-4.718 2.625-7.25l1.375-2.5c1.642-2.527 3.425-4.452 5.625-6.5h-5l1-3zm28 1v2l-2 1c1.695 1.668 1.695 1.668 4 3 2.698-.222 2.698-.222 5-1-2.676-2.185-2.676-2.185-5-2l-1-3zm239-1-2.012.84-2.675 1.097-2.637 1.09c-2.558.93-4.998 1.515-7.676 1.973l-1-2c-.77 2.345-.77 2.345-1 5 1.334 1.835 1.334 1.835 3 3h-3l1 5 5-2v-2l8 1 3-6 1 2c1.158-2.947 1.158-2.947 1-6zm14 1v4h2zm-268 1-1 3h3c-.11 3.563-.24 7.125-.375 10.688-.03 1.007-.062 2.014-.094 3.052l-.117 2.96-.095 2.713c-.346 2.808-1.212 4.996-2.319 7.587-.238 2.209-.238 2.209-.125 4.313L104 168h3l-.035-2.152-.028-2.786-.035-2.777C107 158 107 158 108 157c.1-1.83.13-3.664.133-5.496l.004-3.381-.012-3.56.012-3.55-.004-3.384-.004-3.123c.039-2.504.039-2.504-1.129-4.506zm29-1-2 1v4l3-1zm8 1 2 2v-2zm-124 1-2 5h2l-2 2-1 2h2c-.427 2.478-.718 3.73-2.562 5.5-1.9 1.635-1.9 1.635-1.438 5.5h2l-1 5 2 1c3.237-2.62 4.974-6.021 6-10-.264-5.539-1.568-10.655-3-16zm81 0 2 3v-3zm-77 1-1 6 2-3zm291 0v2l-3 1 1 2 4-2-1-3zm19 0-1 3 3-1zm-185 1v3l2-2zm178 0 2 2v-2zm50 0 1 2Zm-271 1 1 2Zm-53 1v4l1-4zm77 0 1 2Zm15 0v2h2v-2zm179 0-5 4 1 2-3 1 1 3h5l.375-2.25c.58-2.551 1.362-4.477 2.625-6.75zm18 0 1 2Zm-235 1-1 20c2.031-3.047 2.247-3.601 2.195-7.012l-.02-2.295-.05-2.38-.027-2.417c-.024-1.965-.06-3.93-.098-5.896zm29 0 1 2Zm-111 1-1 4 2-4zm50 1c-2.37 2.954-2.37 2.954-2 7h6c0-3.106-.54-4.353-2-7zm27 0 1 2Zm19 0 1 2Zm4 0 2 4 1-3zm203 1 5 1v-3c-1.84 0-3.396 1.172-5 2m-197 0v2l2-1zm4 0-1 4h3l1-4zm183 0 1 2Zm-288 1v3l2 1 1-3zm39 0 1 2Zm72 0-1 3h-3l1 4 4-1 1-6zm-40 1 2 2v-2zm28 0-2 1 1 3v-2l3-1zm223 0v3l4-3zm-336 1 1 2 1-2zm49 0v6l3-3-1-3zm60 0 1 2Zm23-1-2 2h3zm177 1 1 3 1-3zm5 0v3l2 1zm8 0c-.25 2.416-.25 2.416 0 5l3 2-2-7zm-277 1 1 2Zm39 0 .125 3.125c-.12 3.743-.774 6.412-2.125 9.875l3-1v-4h2l-1-8zm196 1-1 7 2 1v-8zm51 0c-.681 1.892-.681 1.892-1 4l2 2 3-6zm-18 1 1 2Zm-256 1-1 3 2 2 1-4zm74 0 1 2 2-2zm152 0 1 5 1-2zm82 0 1 3Zm-301 1 1 3Zm16 0 1 3Zm35 0 2 4 1-3zm179 0 1 2Zm5 0 1 3Zm7 0-1 3 3 3v-6zm8 0v3l3-1v-2zm-285-1 1 3-5-1c-1.718 2.252-1.718 2.252-3 5 .691 2.303.691 2.303 2 4l-2.437 2.688c-2.305 2.75-3.09 4.717-3.563 8.312-.875 2.25-.875 2.25-2 4l-3 1v3l6 2 1-1 3 2c-1 2-1 2-3.375 3.188C31 183 31 183 28 182h-5c-2.201 2.44-2.201 2.44-4 5l-4-1-1-5h-1v6h-2l1-5-2-1c-2.608 4.845-2.608 4.845-2 10l3 2H8v5h2c1.625 1.5 1.625 1.5 3 3l.813-2.312C14.96 196.09 15.946 194.875 18 193l1-2 1 3c1.291 3.146 1.291 3.146 4 5v-2l7 1-2-6h2l1 3 2 2c-.25 2.563-.25 2.563-1 5l-2 1v2h-6l1 3 3.125-1.062c3.855-.933 6.077-.864 9.875.062h-3c-1.108 1.883-1.108 1.883-2 4l1 2-4 2-1-3-2 4 4 1-2.062 2.813c-.64 1.051-1.28 2.103-1.938 3.187l1 3 2-1v-2h2c.73-1.977 1.394-3.98 2-6l-1-2 3 1c2.167-.875 2.167-.875 4-2l-2-2 1.563-1.25L42 209c-.257-2.03-.257-2.03-1-4v-9l-3-1 3-1-.035-1.828-.028-2.422-.035-2.39c.094-2.267.466-4.189 1.098-6.36h-2l2-1-.035-1.898-.028-2.477-.035-2.46C42 171 42 171 43 169l-2-1 1.938-2.75c1.733-2.731 2.567-4.179 3.062-7.25l.563-2.75L47 153h-2v-2h-3v3l-1-3 5-1-1-4zm325 2 1 2Zm-343 2-2 3c4.531.934 4.531.934 9 0l-1-5c-2.177 0-4.069 1.105-6 2m118-1 2 2v-2zm160 0 1 3Zm-257 1 1 2Zm10 0-1 2 3 1-1-3zm19 0 1 2Zm18 0 1 2Zm242 0v2l2-1zm-266 1 2 2v-2zm244 0v3l2 1zm-235 1-.812 2.188C76.01 156.976 74.608 159.44 73 162l-2.375-.5c-2.507-.562-2.507-.562-4.625-.5l-1 3a264 264 0 0 0 3 5l-1 2c-3.571-1.88-5.547-3.17-7-7-2.592 2.592-2.562 4.42-3 8v3l3 2c.188 2.625.188 2.625 0 5l4-1v-3l2.063-.25c3.927-1.003 6.56-2.477 9.937-4.75 1.602-3.105.827-5.692 0-9l2.25.75L81 165c2.335-1.834 2.335-1.834 4-4l-2-2-3 3-3-1 4-1c0-2.648-.172-4.516-1-7zm245 0-1 2h2zm-311 1v3Zm40 0 1 2Zm48 0 1 4Zm199 0 1 2Zm36 0 2 2v-2zm-279 1 1 2Zm238 0v6h4l-3-1 2-1v-3zm18 0 1 5-3-1-3 3c.919 2.207.919 2.207 3.313 3.75 2.93 2.454 4.596 5.078 6.687 8.25h2v2l2.438.938C324 177 324 177 325 178l2 1.375c2 1.625 2 1.625 3 4.625l3-2v-2q1.454-3.52 3-7l-1.5-1.312C333 170 333 170 333 167c-3.125-.337-3.125-.337-5.187 2L326 171l-2-1c-.562-1.875-.562-1.875-1-4l-1-3c-2.169.506-4 1-6 2v-2l3-1c-1.784-3.823-3.432-5.621-7-8m9 0v2l2-1zm19 0 1 2Zm-323 1 2 2v-2zm308 0 1 2Zm-273 1a337 337 0 0 0-1.562 4.313l-.88 2.425c-.807 2.405-.807 2.405.442 5.262h2a71 71 0 0 1-3.625 6.625c-1.542 2.206-1.542 2.206-1.375 4.375l5-2-1-4 3-1v-15zm287 0-2 2v3l4-2-1-3zm49 0 1 2Zm-375 0-3 2v3l4-2zm73 1 2 2v-2zm6.75 2L91 161l5 1v-3h3v-2c-4.003-.443-4.003-.443-6.25 2M302 157l1 2 2-1zm-288 2-1 2c1.925 2.224 1.925 2.224 5 3l-1-5zm49 0 1 2 1-2zm278 0c-2.414 2.51-2.983 3.711-3.187 7.25L338 169l3 1 2 1c1.369-4.517.47-7.588-1-12zm-255.062 3.875c-2.163 1.892-2.163 1.892-1.938 4.125l5 1 2-3-2-4c-1.341-.112-1.341-.112-3.062 1.875M320 161l3 2 1-2zm-309 1-2 4 3 1 2-4zm16 0c-.681 1.892-.681 1.892-1 4l2 2 2-3zm65 0-1 3h2l1-3zm201 0v2h4v-2zm12-1-2 2c-2.625-.375-2.625-.375-5-1 3.025 4.26 3.025 4.26 7.313 6.875L307 169c.783-1.792.783-1.792 1-4-1.352-2.248-1.352-2.248-3-4m20 1 1 3v-3zm24 0 1 3Zm-255 1 1 2 5-1 1 3v-4zm-16 2v3l2-3zm19 0v2h2v-2zm196 0v2l4-1zm31 0 1 2Zm-282 1v2h2v-2zm308 0-1 2 2 2zm-335 1-2 5 2 2 2-5zm-13 1 1 2Zm7 0 1 2 1-2zm75 0v3h2l-1-3zm3 0 1 3v-3zm20 0-2 6 3 1v-7zm-86 1 1 3v-3zm28 0-1 2h2zm55 0 1 2Zm84 0v2h3v-2zm119 0-3 4 4-2zm-63.625 2.375c-1.59 1.525-1.59 1.525-1.375 3.625 2.1.215 2.1.215 3.625-1.375 1.59-1.525 1.59-1.525 1.375-3.625-2.1-.215-2.1-.215-3.625 1.375M86 171v3l2-2zm8 0c-1.906 3.212-2.223 5.539-2.125 9.25l.055 2.703L92 185c2.793-2.341 3.462-3.959 3.813-7.562l.269-2.38c.142-2.286.142-2.286-2.082-4.058m199 0 1 2Zm4 0-1 3 5 3c-1.119-3.726-1.119-3.726-4-6m42 0 1 3 5-1v-2l-1.875.563C341 172 341 172 339 171M2 172l1 3Zm18 0 1 2Zm3 0-2 2 1 3h3l1-4zm97.125 1.5L119 175c3.38 1.04 6.478 1.08 10 1v-3c-1.105-1.32-1.105-1.32-3.875-1.25-3.116-.044-3.116-.044-5 1.75M8 173l1 2Zm184 0-2 4 2.266.184 2.984.254 2.953.246c4.793.542 7.668 1.839 11.797 4.316 2.191.696 2.191.696 4 1v-2c-7.64-4.825-7.64-4.825-16.25-5.875L195 176v-2zm54 0v3l2-3zm91 0 2 2v-2zm-239 1 1 2Zm33 0 3 4v-3zm8 0 2 2v-2zm57 0 4 1Zm63.375 1.5L258 177c4.672 1.206 9.215 1.094 14 1v-2h-8l-1-2c-2.124-.226-2.124-.226-3.625 1.5M306 174v3Zm-292 1 1 2 1-2zm72 0 1 2 1-2zm18 0 1 2 1-2zm12-1-2 1 1 3 4-3zm67 0v3l-1-2c-3.777 1.813-7.373 3.907-11 6 1.747.794 1.747.794 4 1a114 114 0 0 0 5-3l2.625-.437c2.552-.363 2.552-.363 4.188-2.625L188 174zm67 3 1 2c3.726-1.119 3.726-1.119 6-4-3.106 0-4.353.54-7 2m46-2 1 2Zm43 0 2 2v-2zm3 0v2l3-1zM1 176l1 2Zm141 0 1 2Zm99 0 1 2 1-2zm57 0v3l2-1zm-193 1-1 2h2zm2 0 1 2Zm4 0 1 2 1-2zm25 0 1 2Zm138 0-2 2c1.892.681 1.892.681 4 1l2-2c-1.892-.681-1.892-.681-4-1m67 0 1 2Zm-286 1-.77 1.645-1.042 2.167-1.02 2.145c-1.175 2.055-2.507 3.382-4.168 5.043.097 3.004 1.018 4.02 3.063 6.25L53 197l2-2v-3l-2-1 .91-2.082 1.153-2.73 1.16-2.708c1.072-2.572 1.072-2.572-.223-5.48zm4 0 1 3Zm20 0 2 4-1-4zm4 0 1 2Zm231 0-3 3 6 1v-3zm29 0-2 4 2 3 3-1-1-6zM8 179l-1 3 3-1zm98 0-2 4 1 1c.16 3.028.26 6.036.316 9.066l.063 2.754q.097 4.37.183 8.743l.131 5.912q.161 7.262.307 14.525h2v-45zm170 2 7 1-1-3c-3.185-.277-3.185-.277-6 2m21-2 2 4-1-4zm3 0 1 2Zm5 0 1 2Zm3 0 1 2Zm-261 1 1 3 2-1zm24.75 1.125c-2 1.773-2 1.773-2.062 4.5.06 2.326.06 2.326 1.312 3.375l2 3 5-4-1-1 3-2h-3l1-4c-2.683-1.054-3.619-1.19-6.25.125M110 184a82 82 0 0 0-.328 8.918l.006 2.699q.01 2.834.04 5.666c.032 2.875.042 5.75.048 8.625l.03 5.51.014 2.59A94 94 0 0 0 111 232c.025 2.307-.058 4.583-.16 6.887.185 2.444.946 4.004 2.16 6.113l1-4 22-1 1-8 3 2c.754-4.98.754-4.98 1-10l1.438-2.125c1.545-2.843 1.787-4.127 2-7.25.413-4.863 1.703-7.654 4.562-11.625 2.563-1.812 2.563-1.812 5-3l3-2a155 155 0 0 1 5-2v-2h5l1-3v3c7.985 7.985 21.307 6.956 31.762 7.016L202 201c4 0 4 0 6.25 1.063 3.894 1.327 6.715.62 10.75-.063v2l3.438.188c4.537.523 7.698 2.386 11.484 4.851 2.048 1.18 2.048 1.18 4.344.61L240 209l.625 2.438L242 214c4.08 1.207 4.08 1.207 8 0v2l3.25 1.938c5.035 3.37 6.17 8.459 7.75 14.062h2l-1 3c.955 5.247 3.305 9.636 6.188 14.063 2.997 4.776 3.261 7.37 2.812 12.937.235 2.687.618 5.328 1 8l4 1 .313-1.937L277 267l3-1q.253-2.625.5-5.25l.281-2.953c.466-4.53.466-4.53-.781-8.797l2-1c0-1.604-.027-3.209-.062-4.812.056-2.893.454-5.374 1.062-8.188v-3l.035-1.973c.17-4.144.17-4.144-1.035-8.027a166 166 0 0 1-.062-6.871l.011-2.055c.016-2.904.044-5.809.072-8.713q.026-3.179.041-6.357l.036-3.85c.052-3.182.052-3.182-1.098-6.154l2 2c.014-1.94.014-1.94-1-4-2.98-1.605-2.98-1.605-6.625-2.75l-3.664-1.297c-3.735-.96-6.874-1.13-10.711-.953l-1 2-1-2h-2l-1 2h-4a69 69 0 0 0-4 1v2c-2 1-2 1-4 1q-3.504 1.493-7 3c-3.483 1.119-6.791 1.166-10.437 1.188l-3.372.042c-3.182-.23-5.292-.976-8.191-2.23-2-.038-4-.045-6 0l-1-1 4-1c-4.186-3.19-6.706-4.504-12-4l-1-2c-9.469-2.25-17.443.518-25.812 5-5.051 2.553-9.561 4.354-15.188 5l-2.46.285c-8.555.513-13.938-3.32-20.54-8.285-8.488-5.794-16.53-4.646-25 1m226-4c.348 1.975.348 1.975 1 4l2 1v-5zm-277 2 1 2Zm157 0-1 3 4-2zm27 0 1 2 1-2zm69 0-2 3 4 1 2-3zm13 0 1 3v-3zM7 183l1 3Zm12 0 1 2Zm28 0 1 2Zm32 0 2 2 1-2zm21 0-1 4 2-1zm44 0-1 2c1.892.681 1.892.681 4 1l2-2zm21 0-2 2 4 1 1-3zm4 0 1 2Zm-107 1 1 2Zm42 0q-.037 9.207-.055 18.414-.008 3.13-.02 6.26c-.013 3.005-.018 6.011-.023 9.017l-.015 2.807c0 4.946.368 9.602 1.113 14.502-.437 3.438-.437 3.438-1 6l3 2h-2v5h4q-.211-4.157-.437-8.312l-.12-2.381-.127-2.295-.11-2.11c-.274-2.534-1.071-4.632-2.206-6.902a63 63 0 0 1-.205-4.083l-.06-2.547-.051-2.753-.063-2.816q-.097-4.462-.183-8.926l-.131-6.043q-.161-7.416-.307-14.832zm55 0-1 2 1 2 4-2zm76 0-1 3 5-1v-2zm82 0-1 4 5 1-1-3 1-1zm-162 1-1 3h4l-1-3zm65-1-2 2c3.98 1.17 7.916 2.257 12 3l1-4h-4l-3-1-3 2zm85 1 1 2Zm-158 1c2.842 1.573 2.842 1.573 6 2v-2zm146 0 1 4 2-1zm9 0-1 3 3 1zm-235 1 1 2Zm31 0-3 4 4-1zm215 0 1 2 2-1zm27-1-2 2c-.105 2.21-.105 2.21 1 5l3 2c1.51-3.386 1.51-3.386 2-7zm-283 2 1 3Zm43 0 1 2Zm224 0 1 2Zm6 1 1 2Zm-272 2-1 3c2.233 4.388 4.874 7.5 9.375 9.5L69 204l2-2c-2.472-2.602-5.12-4.859-8-7h-2l-2-4zm10 0-1 2h2zm32 0 1 2Zm193 0 2 2 1-2zm31 0-1 2h2zm9 0a105 105 0 0 0-4 5l3 3c2.624-3.061 3-3.732 3-8zm-51 1v24h1v-24zm-202 1-1 2h3l1 2 1-4zm19 0 1 4v-4zm210 0-2 3 3 1v-2h2l-1-2zm37 0 1 2Zm-300 1 1 2Zm45 0 1 4 1-3zm222 0v3l2-2zm-240 1 1 3v-3zm265 0v2l3-1zm-39 1-1 3 3 1v-4zm18 0 1 2Zm27 0 1 2Zm-298 1 1 2Zm8 0 1 2 1-2zm39 0 1 2Zm7 0-1 3h2zm236 0v2h2v-2zm10 0 1 2Zm-290 1 1 2Zm103.707 2.078c-1.89.81-1.89.81-2.707 2.922l-2.312.813c-3.314 1.464-4.68 3.213-6.688 6.187v2l3 2h-2v2h-2l-1.125 3.813-.633 2.144c-.503 2.354-.503 2.354 1.758 5.043l-1 1c-.072 2.02-.084 4.042-.062 6.063l.027 3.347L146 240c3.135.984 3.135.984 6.25.063L154 239v-2l3-1 2-2 .148 2.012c.4 4.709.878 8.645 2.852 12.988v3h2c.8-3.287 1.097-4.71 0-8l6 1 2-3-3-2 4-5 5 2c-.573-2.867-.861-3.861-3-6l-1-3 1.828.945 2.422 1.18 2.39 1.195c2.372.94 2.372.94 4.657-.203L187 230v-2q.47-2.007 1-4l-4-1v-6l3 1h4l-.062-2.812C191 212 191 212 192 209c-3.228-2.152-4.284-2.2-8-2-1.298 2.224-1.298 2.224-1 6l-2 1c-.652 2.025-.652 2.025-1 4h-3c-1.688 1.438-1.688 1.438-3 3-1.333-2.667-.671-4.167 0-7l1.938-.375L178 213l1-2c-1.192-2.626-1.192-2.626-3-5l-3-1 1-2q-1.47-1.53-3-3h-1l-1.562-1.187c-3.435-1.145-5.453-.024-8.731 1.265M325 198l4 4 1-4zM9 199l-2 4h3l1-2zm80 0 1 2Zm253 0 1 3Zm-296 1 1 2Zm24 0 1 2h2v-2zm248.25 1.438L317 203l1 2 7-1-1-3c-2.636-1.23-3.452-1.45-5.75.438M337 200l1 5 1-4zm-289 1-1 4 4-1v-3zm298-1-2 1v2l-2 1 4-1zm-273 2 1 2Zm105 0 1 2 2-2zm174 0 1 5-2 1 .625 1.75C352 212 352 212 351 213.875c-1.392 2.958-.708 5.01 0 8.125l7-4-2-1v-13zm-337 1-1 2h2zm8 0-3 2 1 3h2v-2l2-2zm30 1 1 2Zm24 0 1 2Zm117 0 2 3v-3zm3 0 1 2Zm2 0c-1.125 1.833-1.125 1.833-2 4l1 3 1 3c-1.544 1.544-3.085 3.078-4.687 4.563-1.538 1.359-1.538 1.359-1.313 3.437l-2 1v4c-.501 3.886-2.528 6.05-5 9v1l-3 2 1 1-7 1 2 2c2.603-.32 2.603-.32 5-1v2l-3 1c-1.34.651-2.676 1.315-4 2q2.685.542 5.375 1.063l3.023.597c2.58.584 2.58.584 4.602-.66l.75 1.938L192 252l1.813.438c3.303.85 4.924 3.11 7.187 5.562l3-1c2.188.438 2.188.438 4 1l-2 4 5-1v-2l2-1c.85-3.557 1.17-5.493 0-9a278 278 0 0 1-1-4l4-1-1 3c1.372 2.19 1.372 2.19 3 4l7-3 1 3 1-2-.125 3.188c.118 3.604.24 5.76 2.125 8.812 2.548.894 2.548.894 5 1l1 4h3l1 4h3v3h2c1 3 1 3 1 6l1 2.5c1.387 4.853 1.16 9.486 1 14.5l7 3c1.618-1.13 1.618-1.13 3-3 .288-2.805.288-2.805.063-5.875-.214-4.372.223-7.117 1.937-11.125-.295-2.734-.295-2.734-1-5h-1c-1.512-6.468-2.214-12.356-2-19h-2l1.125-1.625c1.256-3.41.223-5.037-1.125-8.375a745 745 0 0 1-1.562-4.125c-.25-.642-.498-1.284-.754-1.945-.694-1.957-1.212-3.91-1.684-5.93l5 1v2l4-1c0-2.698-.324-4.61-1-7.187L256 224h-2l-.812-1.937c-1.075-2.394-1.075-2.394-4.188-3.063l-12-4-2 1-.687-2.375c-1.058-2.776-1.058-2.776-3.524-3.719-2.91-.945-5.707-1.541-8.726-2.031l-3.028-.508c-3.061-.433-3.061-.433-6.273-.36-2.925-.007-4.27-.583-6.762-2.007h-2v2l-2-1v-2zm106 0-2 3 3-1zm9 0 1 2Zm-266 1 2 2v-2zm35 0 1 2Zm4 1 1 7 4-3h-3l3-2-1-3c-2.075-.15-2.075-.15-4 1m221-1 1 2Zm37-1-3 2 4 1zM7 206l1 2 1-2zm58 0 2 2v-2zm116 0 1 2Zm10 0 1 2Zm107 0-1 3h2zm14 0-1 3 3-1v-2zm13 0 1 2 1-2zm-246 1 1 2 1-2zm221 0v2l2-1zm19 0-1 2h2zm-264 1-2 6 4-1v-5zm13 1 5 2-.977 6.055L72 219l2 2c2.956-5.203 2.956-5.203 3-11-3.516-3.399-4.86-3.76-9-1m235-1v2l-2 1 4 3v-6zm4 0v2h2v-2zm56 0 1 5 5 1 1-2h-2l-2-4-1 2zm-316 1v2h2v-2zm33 0 1 2Zm4 0 1 3Zm16 0 1 2Zm95 0-1 6h4v-3h-2zm121 0c-1.219 1.02-1.219 1.02-1.312 3.125.556 5.124 3.926 10.028 7.312 13.875h2c-.645-3.483-1.982-6.094-4-9h-2l.563-1.75c.477-2.457.194-3.894-.563-6.25zm35 0 1 2Zm9 0 1 2Zm10 0-1 2h2zM7 210l1 3v-3zm59 0 1 2Zm171 0 1 2 2-1zm74 0v2h2v-2zm8 0 1 2Zm17 0-1 2 3-1zm-303 1-1 2h2zm66 0 1 3Zm224 0v2l2-1zm7 0c-1.316 3.62-2 6.096-2 10l4 1-.562-1.75c-.484-2.487-.061-3.836.562-6.25l-1-3zm15 0-1 2h2zm16 0 1 3 2-1zm-314 1 1 2Zm22 0v2l2-1zm25 0 1 3v-3zm53 0 1 2Zm161 0 1 2Zm-287 1 1 2Zm5 0 2 2v-2zm34 0c-2.277 2.815-2.277 2.815-2 6h3c2.201-2.44 2.201-2.44 4-5zm20 0 1 2Zm7 0 1 2Zm209 0 1 4 1-3zm15 0 1 5 1-4zm26 0c-1.296 1.066-1.296 1.066-1.062 3.563L336 219h3l-1-6zM8 216c-.34 3.234.153 5.894 1 9a447 447 0 0 1 1 6h1l1-4-.105 2.746c-.146 6.538-.116 12.114 2.312 18.223.827 2.118 1.354 4.19 1.855 6.406.742 3.688.742 3.688 2.938 6.625v-2h2v2h2v4l-3-1 3 9 1-2 .375 1.625c1.139 4.327 2.5 8.428 4.625 12.375h2l.375 2.25c1.114 4.904 2.638 6.792 6.625 9.75l1 3c1.636 4.78 3.783 8.707 8.25 11.313L49 312c2.255-2.255 2.977-4.005 4-7v-3a263 263 0 0 1 4-5v-6h2v-2l3.313-.25c3.72-.387 3.72-.387 5.624-2.812L69 284l-1-2h-2l-.348-1.75c-.706-2.436-1.699-4.137-3.09-6.25-1.704-2.604-3.215-5.193-4.562-8l-5 1-.187 1.875C52 271 52 271 49.563 272.125L47 273l-2 2-3 1 2 5-1 1-1-3-1 2-3-2c-2.07-.027-2.07-.027-4.187.375L30 280c-2.12-6.64-3-13.028-3-20l2-1h-2c-1.15-3.862-2.15-7.672-2.937-11.625-.773-3.634-2.034-6.24-4.063-9.375v-6a257 257 0 0 0-2-7l-4-1 1-8h-2v-2c-2.324-.185-2.324-.185-5 2m8-1 1 4Zm25 0v3l2 2-1-5zm13 0-1 2h2zm25 0 1 3Zm7 0c-.692 1.847-.692 1.847-1 4l2 3-3 3 1 3c1.999-.58 1.999-.58 4-2 1.292-3.042 1.292-3.042 2-6l-3-2zm93 0 1 2Zm-142 1c-1.333 2.892-1.333 2.892-.062 5.188L38 223h3c-.27-2.437-.27-2.437-1-5zm268 0-4 5h2l1 2 3-5zm-243 1 2 2 1-2zm6 0 1 2Zm32 0 1 4Zm223 0 1 2Zm10 0 1 2Zm-312 1 3 3-1-3zm29 0 1 2Zm5-1-2 2h3zm43 1 1 2Zm184 0 1 4Zm62 0 1 2Zm14 0v3l2-1zm-343 1 1 5 2-1v-3zm279 0 1 2Zm38 0 1 2Zm28 0 2 2v-2zm-301 1 2 2v-2zm18 0v2h2v-2zm233 0 1 2Zm4 0 1 5 2-2zm-244 1-2 4 2 2 2-5zm11 0 1 4Zm3 0v2l2-1zm15 0-1 2h2zm194 0v5l2-3zm13 0 1 2Zm-230 1c-5.242 6.246-5.242 6.246-6.625 13.75L70 238c3.94-4.756 7.11-8.776 8-15zm274 0v3h3c-.833-2.167-.833-2.167-3-3m-314 1-1.25 2.313c-1.709 2.624-3.16 3.99-5.75 5.687 3.326 1.76 4.592 2.108 8.313 1.125L40 231l1-6zm5 0v8l2-1c.407-2.322.744-4.657 1-7zm12 0 1 3Zm43 0c-1.257 2.906-2 4.796-2 8v4h3l-1.25 1.563c-1.01 2.36-1.01 2.36.008 4.261 1.021 1.761 2.128 3.472 3.242 5.176l2-1-.93-1.95c-1.378-3.928-1.773-7.737-2.195-11.863l-.262-2.388Q97.3 225.9 97 223zm242 0v3l2-1v-2zm5 0 1 2Zm-282 1 3 2 1-2zm38 0v9h1v-9zm229 0-1 2h2zm-273 1v3l2 1 2-2zm25 0v2l2-1zm65 0 1 2Zm150 0-2 2c.323 3.597.323 3.597 1 7l5 1c.296-5.322.296-5.322-2-10zm12 0 1 2 1-2zm4 0v3l2-1zm6 0 1 4-2 1c2.39 3.243 4.205 5.509 8 7-1.192-5.526-2.6-8.178-7-12m18 0-1 2 2 2v-4zm7 0 1 2Zm7 0-1 6 2-2c-.319-2.108-.319-2.108-1-4m-282 1v2l2-1zm248 0 1 2Zm9 0v3Zm-264 1v2l-2 1 5 2v-3zm81 0 1 3Zm187 2 1 3c2.882-.882 2.882-.882 5-2v-3c-3.185-.277-3.185-.277-6 2m13-2-1 2 2 2 1-3zm-318 1v3l3 1-2-4zm28 0v2l2-1zm250 0 1 2Zm56 0-1 3 3 2v-4zm9 0-2 2c.32 2.603.32 2.603 1 5l1-2-1-2 3-1zm6 0v2l2-1zm-328 1-1 3 2 1zm49 0 1 2Zm258 0 1 2Zm-298 1-2 2 4 2-1-4zm32 2 1 4h3l1-6c-1.84 0-3.396 1.172-5 2m251-1 1 3c2.015.733 2.015.733 4 1l1-2-2-2zm13 0 1 2Zm-325 1 1 2Zm39 0v2l2-1zm19 0-1 2h2zm22 0 1 2Zm38 0-1 2 3-1zm163 0-1 3h-3l1 2c2.025.652 2.025.652 4 1l1-6zm4 0v18l-6 2-1 3 3 2v-2l4 1v-2l3 1 2-2v-4l3-1c1.105-1.75 1.105-1.75 1-4-1.778-2.619-1.778-2.619-4-5-2-3-2-3-2-6zm38 0 1 2Zm9 0 1 2Zm-266 1 1 2Zm237 0v3Zm23 0-2 4 2 1v-3l4-1zm-339 1 1 2Zm31-2-5 2 1 3v-2l3 2-.562 1.938L40 241l1 1-1.937 1.313c-2.33 1.6-2.33 1.6-3.063 4.687l-2 1-1-2h-3v4c2.947 1.158 2.947 1.158 6 1 3.248-1.722 3.248-1.722 4-5h3l2-4 3 2v-4l-3-1v-2l2-1-2-3h-2zm38 2c-3.8 4.13-4 8.563-4 14a104 104 0 0 0 2 5l2-3-1-2 4-1-.562-1.75c-.486-2.498-.046-3.819.562-6.25-.228-2.163-.228-2.163-1-4zm20 0-1 4h2zm37 0 1 4 1-3zm3 0 1 3Zm153 0 1 2Zm62 0-1 2h2zm3 0v3q2.183.794 4.375 1.563l2.46.878c2.193.819 2.193.819 4.165-.441-1.418-2.836-3.048-2.994-6-4a104 104 0 0 0-5-1m-324 1-2 6 3 1 1-3 1-2h-2zm26 0 3 3-1-3zm122 0-1 3h2zm2 0 1 2Zm135 0 1 3v-3zm62 0-1 4 2-4zm-329 1v2l2-1zm16 0 1 3Zm36 0 1 3Zm153 0 2 2v-2zm37 0v3l4-1v-2zm45 0 1 2 1-2zm-254 1v5l2-4zm237 0-1 4h3l-1-4zm48 0 2 3v-3zm-344 1 1 4 1-2zm28 0c-.167 2.917-.167 2.917 0 6l2 2c1.21-3.105 1.21-3.105 1-7zm292 0-1 3 1 2h2l-1-5zm2 0 1 2Zm-279 1v3l2-2zm31 0v2l2-1zm235 0-1.437 1.938c-1.939 2.558-3.984 4.148-6.563 6.062l2 4h3l2-3c2.125-1.187 2.125-1.187 4-2-.575-3.93-.575-3.93-3-7m34 0 1 2Zm-75 1-1 5 3-4zm78 0 1 2Zm-315 1 .063 2.25C57 246 57 246 56.375 248.188L56 250l2 2 1 3h2l.875-1.875C63 251 63 251 65 249l-2-4h-2l-2-4zm31 0v3l3-1-1-2zm194 0 1 2Zm56 0 1 2Zm32 0 1 2Zm-230 1 1 2Zm116 0 1 3 1-3zm45 0 2 2v-2zm-168 1v2h2v-2zm18 0-1 2 1 2 3-1zm4 0 1 2Zm189 0 1 3 2-1zm8 1 2 2h-2l1 5h6v2l2-1c.652-2.025.652-2.025 1-4h-2l1.75-.375c2.276-.632 4.158-1.544 6.25-2.625-1.912-.56-3.83-1.097-5.75-1.625l-3.234-.914c-3.235-.494-4.355-.257-7.016 1.539m-324 0 1 2Zm46 0 1 2Zm11 0 1 3Zm5 0-1 5 4-1-1-4zm32 0 1 2Zm136 0v3Zm42 0c-.772 1.837-.772 1.837-1 4 1.354 1.772 1.354 1.772 3 3l2-2v-3l-2-1zm6 0 1 2Zm-258 1 1 3v-3zm53 0 1 2Zm191 0 1 2Zm-180 1 2 2v-2zm37 0v2l2-1zm147 0 1 2Zm47 0 1 3v-3zm-243 1v4l2-1zm51 4-3 2 2 2v-2c1.813.5 1.813.5 4 2 1.262 2.586 2.156 5.252 3 8-2-1-2-1-3-3l-3 1 .105 1.723c.224 6.38-.444 11.221-4.792 16.214L145 280l1 3 6-2v-3l4-1v-3l2-2c2.135-5.445 1.93-8.53 0-14v-2l2 1v-5l-3 1v-2h2v-4c-3.28 0-5.368 2.174-8 4m107-4-1 2h3v-2zm88 0 1 2Zm-264 1v3Zm24 0-1 2 2 2zm229 0-1 3h-2l2 4 3-7zm28 0 1 2Zm-318 1 1 8 3 1-1 3h-2v2l-3 1v2l-3-1v3c2.423.862 3.593 1.155 6.035.223l2.028-1.16C50.788 265.519 51.777 265 55 265l2-2-4-8h-2l-2-6zm125 0-.687 2.563c-1.163 3.043-1.991 4.36-4 6.75-2.317 3.02-2.563 4.855-2.125 8.625.242 1.359.504 2.716.812 4.062l2-2c.043 2 .04 4 0 6l-1 1-.375-1.937L164 272l-2-1-1.172 2.082-1.578 2.73-1.547 2.708c-3.328 4.847-6.884 6.125-12.469 7.183-4.02.534-6.786.4-10.086-2.113a104 104 0 0 1-3.632-3.313c-1.44-1.492-1.44-1.492-3.516-1.277l1-3a110 110 0 0 0-3-7h-2l-3-6 2-1-1-5-4 2-3-3-1 5h3l1 7-2 1 2 7 1-3c1.063 1.75 1.063 1.75 2 4l-.586 1.824c-.582 3.058.448 4.529 1.898 7.238l1.364 2.598c1.032 1.825 2.161 3.595 3.324 5.34l1 2h2l2 6h2l.813 1.938c1.074 2.393 1.074 2.393 4.187 3.062v2h2l1 3c1.85 1.05 1.85 1.05 4 2 1.351.976 2.69 1.97 4 3l2-2c2.125-.625 2.125-.625 4-1l1 2-2 1 3 1 .688 2c1.098 2.18 1.098 2.18 3.18 2.414L168 323l1 2c3.03.658 3.03.658 6 1v1l3.938-.062A59 59 0 0 1 183 327l1 1c11.437 1.376 23.578 2.448 34-3 2.408-.166 4.735-.129 7.145-.008L227 325l1-1c2.982-1.04 5.985-1.995 9-2.937 3.153-1.117 6.04-2.512 9-4.063v-2l1.688-.187c3.262-1.147 4.999-3.307 7.312-5.813l-2-3h-4l-2 5-5-3 3-2-1.937-2.187c-3.884-5.296-3.007-9.625-2.063-15.813h2l-1-3c-3.871 3.27-5.09 6.41-6.625 11.188-.74 2.288-1.52 4.564-2.375 6.812l-2 1-1 2v-2l-2.062.625c-3.862.493-6.354-.137-9.938-1.625-1.437-2.625-1.437-2.625-2-5h2l-1-8 2 4q.57-2.988 1-6l-1-1h1l.148-1.934.227-2.503c.07-.824.14-1.648.21-2.497L221 278l2-1c1.09-2.974 1.039-3.884 0-7a129 129 0 0 0-6-1l-1 1-1-2h-3c-1.6 4.002-.293 7.046 1 11h-3c-1.733 5.198-2.38 10.083-2.754 15.547C207 297 207 297 206 300v1l-2.187-.062c-2.732.06-5.156.455-7.813 1.062l-1-2a85 85 0 0 0-7 2c-2.687-.937-2.687-.937-5-2l-2 2-3-2-2 2c-3.44-1.147-4.266-1.88-6-5 .25-2.437.25-2.437 1-5 .967-4.006.967-4.006 0-8h-2l.496-2.105c.545-3.13.601-6.033.566-9.207l-.027-3.239L170 267h2c.857-2.8.857-2.8 1-6-1.813-2.398-1.813-2.398-4-4h2l1 3 2-2-3-4h2l-2-5zm174 0 2 2v-2zm-275 1 1 2 1-2zm19 1c2.647 1.46 3.894 2 7 2l-2-4c-1.84 0-3.396 1.172-5 2m25-1 1 3Zm52 0 1 2Zm11 0 1 2Zm3 0-3 4h3v2l-3-1-.148 2.922-.227 3.828-.21 3.797c-.377 3.139-1.006 4.733-2.415 7.453l1 3c.697 2.66 1.343 5.33 2 8h-2v2h2l-1 2.188c-1.006 2.829-1.17 4.841-1 7.812 5.097 1.127 5.097 1.127 9.938-.437L186 294l-.465-1.547c-.704-3.228-.884-6.407-1.097-9.703l-.254-3.828L184 276l2-1c.674-2.089 1-3.804 1-6l.563-2.5c.69-2.489.69-2.489-.563-4.5h-3c1-2 1-2 3-3v-2q.476-2.505 1-5zm41 0v2h2v-2zm38 0 1 4h-1q-.062 3.5 0 7l1 1c-.437 2.063-.437 2.063-1 4l4 2 1-3 2 1c-.629-3.605-1.588-6.85-2.937-10.25l-1.028-2.64c-.849-2.27-.849-2.27-3.035-3.11m60 0-1 3 4-2zm-244 1 1 2Zm34 0-2 3 1 3 3-1v-5zm9 0 1 2Zm2 0v3h6v-1h-5zm4 0 3 1v2h3v-2zm10-1-2 1 1 2 2-1zm161 1 1 2Zm49 0-3 6 4 1c1.106-2.39 1.106-2.39 2-5l-1-2zm-278 1-1 2 3-1zm15 0-1 4 4-2-1-2zm137 0c-1.042 4.615-1.042 4.615 0 9h-2v2h2v2l7-1v2l3-1-1.242-1.828-1.633-2.422-1.617-2.39A56 56 0 0 1 219 252zm81 0 1 2 1-2zm65 0-1 2h2zm-277 1 1 2Zm2 0v2l2-1zm12 0 1 3h2v-3zm63 0 1 2 1-2zm58 0 1 3Zm4 0 1 5 1-2zm41 0-1 4 3-1zm-132 3 1 3c.04 2 .044 4 0 6h-2c.553 3.315 1.075 6.208 3 9 3.332 1.754 5.153 2 9 2 2.48-3.719 2.074-5.589 2-10l.688-3.625c.572-3.377.572-3.377-.875-6.312L145 254c-4.084 0-7.123.807-11 2m213-2-1 4 5 1v-2l-2-1v-2zm17 0 2 2v-2zm18 0 1 2Zm-343 1v2h2v2l3-1-1-3zm37 0 1 2Zm8 0 3 4v-3zm11 0-1 2 2 3 1.813-.562C100 259 100 259 103 260v-3c-2.906-1.257-4.796-2-8-2m96 0 2 4 1-3zm100 0 1 2Zm1 3 3 2 1 3h1l1-9c-2.221 0-4.359 2.653-6 4m40-3v2l2-1zm-266 1 1 2 1-2zm14 0v5h1v-5zm9 0 1 3v-3zm42 0 1 2Zm21 0v4l2-1v-3zm149 0 2 4-1-4zm24 0-1 2h2zm-292 1 1 2Zm27 0 1 2Zm47 0v2l4 1-1-3zm16 0 1 4 1-4zm182 0 1 2Zm6 0 2 2v-2zm57 0 1 2Zm-322 1 1 2Zm21 0 2 2v-2zm65 0-1 4h3l-1-4zm62 0v2l-3-1 .563 1.875C192 263 192 263 191 265l1 2 3 1-.254 1.863-.309 2.45-.316 2.425c-.269 2.43-.269 2.43.879 5.262-.437 2.688-.437 2.688-1 5h4v2h-4c-1.947 5.476-1.947 5.476-1 11l3-4 3 2 1-1 3-1c2.327-4.784 2.424-9.873 2.754-15.098.23-2.703.659-5.256 1.246-7.902l-4-1 4-1c-.154-1.952-.154-1.952-1-4-2.045-1.244-2.045-1.244-4.5-2.062-2.469-.91-2.469-.91-4.5-1.938l-1-3zm8 0 1 2 3-2zm64 0 2 3v-3zm92 0-1 4c3.185.277 3.185.277 6-2zm-271 1v2h2v-2zm217 0v3Zm43 0 3 2v-2zm-256 1v3Zm6 0c-1.816 4.538-1.816 4.538-1 9h-2l1 4-1.937 1.375c-2.16 1.464-2.16 1.464-3.063 3.625l-2 1c1.714 1.234 1.714 1.234 4 2 3.364-.738 4.7-1.63 6.875-4.312 1.305-3.117 1.096-4.51.125-7.688v-4c-.31-1.671-.64-3.339-1-5zm10 0 1 3Zm194 0 1 3Zm14 0 1 2Zm26 0 1 2Zm14 0 1 3Zm-336 1 1 2Zm90 0c-1.03 4.534-1.178 5.645 1 10l1-10zm6 0v2l2-1zm44 0 1 2Zm151 1-1 3 4-2zm-274 1 1 3Zm31 0v3Zm15 0 1 2Zm6 0-1 2h2zm38 0 1 2Zm168 0-2 3 1 3v-2l4-2-1-2zm8 0-1 3 2 2 2-2zm-200 1 1 2Zm13 0 2 3v-3zm112 0 1 3-2 1 3 4-2 4 2 3-4-1c-2.428 5.827-2.617 11.776-3 18l2 1h-3c1.392 2.784 3.156 2.979 6 4l1-3c2.063-.687 2.063-.687 4-1 1.002-3.583 1.002-3.583 0-7l2-1a78 78 0 0 0 2-5h-2v-2l3-1-1-3 4-1-2-4-1 3-2-2-1 2 2-5-2.437-2.437L230 265zm96 0 1 2 1-2zm20 0-1 2 6 2c-1.722-3.248-1.722-3.248-5-4m-32 1 2 2v-2zm5 0 1 2Zm63 0-1 2h2zm-348 1-1 4 2 1 1-3zm45 0 1 2Zm3 0 1 2 1-2zm33 0-1 4 2-4zm16 0 1 2Zm220 0 2 3 2-2zm-138 1-1 3 2 1zm53 0-.375 1.938L262 271l-2 1 4 7-1.5 1.5c-2.212 3.686-1.844 6.232-1.5 10.5l2 2 2-3 2 4h2c2.35-4.518 4.39-9.169 6-14l1.063-2c1.15-2.085 1.15-2.085.937-5l-3.312.25C270 273 270 273 268.125 271.063L267 269c-1.15-1.298-1.15-1.298-4-2m33 0-1 4 4 1-2-5zm-258 1 1 2Zm42 0-1 2 3 1-1-3zm7 0 2 2v-2zm42 0 1 2Zm18 0 1 2Zm41 0v3Zm4 0 2 4 1-3zm67 0 1 2Zm18 0 1 3 1-3zm48 0 1 2 1-2zm-258 1 1 3Zm19 0 1 2Zm17 0 1 4Zm190 0c-1.276 3.828-.623 5.367 1 9 2.001 1.42 2.001 1.42 4 2 .688-2.354.688-2.354 1-5l-2-3h-2zm12 0 2 4-1-4zm5 0c-1.217 1.765-1.217 1.765-2 4 .783 2.235.783 2.235 2 4 1.198-2.329 1.198-2.329 2-5zm-236 1 2 2v-2zm56 0v3l2-1zm186 0-1 2 3-1zm-284 1v3l3-2zm37 0 1 2Zm13 0v2h-2c.833 2.167.833 2.167 3 3l2-1-1-3zm31 0 1 2Zm176 0v5h1v-5zm-79 1v5h1v-5zm114-1-5 2v2l-1.437 1.375c-1.784 1.855-2.132 3.126-2.563 5.625h4l-1-5 4 1c1.628-1.81 1.628-1.81 3-4zm-253 2-1 4 5 2v2l3-1-1.375-1.25c-1.685-1.814-2.618-3.503-3.625-5.75zm39 0 1 2Zm189 0 1 2Zm-197 1 1 3Zm10 0c-.874 1.736-.874 1.736-1 4 1.852 2.753 1.852 2.753 4 5 .81-2.915 1.218-4.461.063-7.312L114 274zm19 0 2 2v-2zm59 1c-2.154 2.622-3.4 4.644-4 8 3.064-.68 3.064-.68 4.25-2.875 1.044-2.266 1.044-2.266-.25-5.125m-84 1-.812 2.438L104 281l-3 1 2 4 4-1 1-8zm27 0v2h2l1 2 2-2zm157 0 1 2Zm11 0-1 3 5 1 1-2zm-129 1 2 4v-4zm34 0 1 2Zm-122 1c-.34 3.246-.34 3.246 2.5 5.688L89 286c0-3.204-.743-5.094-2-8zm203 0 1 2Zm20 0v3l2-1v-2zm56 0 1 2Zm2 0 1 3Zm-225 1-2 3c1.125 1.356 1.125 1.356 4.063 1.063L145 283c-1.363-2.04-1.363-2.04-3-4zm3 0 1 2Zm229 0 1 2Zm-256 2-2 5h5l-2-5zm58 0 1 2Zm16 0 2 4-1-4zm51 0 1 2Zm47-1-2 2 2 3h2l1-3zm-213 2 1 2Zm2 0 1 3v-3zm31 0v3h2v-3zm196 0-1 2h3v-2zm10 0 1 2Zm-232 1 1 2Zm163 0v5l2-1zm40 0v2l2-1zm-187 1a141 141 0 0 0-5 5v2c3.366-1.443 5.51-3.333 8-6zm91-1-3 2 4 5c.692-1.847.692-1.847 1-4zm104 1-1 3 3 1 1-2-1-2zm9 0-2 3 1.813.313c2.47.776 3.51 1.758 5.187 3.687 2.352-.599 4.686-1.27 7-2l1-2c-3.623-1.208-4.641-.543-8 1v-2zm11 0 1 2Zm-222 1v2l2-1zm166 0 1 3Zm40 0-1 4h3v-4zm18 0 1 2Zm-236 1c-.224 2.925-.224 2.925 1 5 2.167-.833 2.167-.833 3-3zm7 0-1 2 2 2v-2l2-1zm-19 1-1 2 1 2 1 2-1 2 5 1v-2h2v-2l-3-1 2-1-2-3-2 1-1-1zm17 1-1 3h2zm19 0v1h6v-1zm-39 1 1 2Zm52 0c2.152 5.254 4.255 9.67 8 14 1.378 1.973 2.686 3.983 4 6l3-2c-1.368-3.818-3.13-6.841-5.5-10.125l-1.844-2.57L122 292l-2-3zm129 0 1 3Zm-185.625 2.375C57.785 292.9 57.785 292.9 58 295c2.1.215 2.1.215 3.625-1.375C63.215 292.1 63.215 292.1 63 290c-2.1-.215-2.1-.215-3.625 1.375M311 290l1 2Zm-219 1 1 2Zm144 0 1 2Zm28 0-2 3h-2c-.167 3.417-.167 3.417 0 7l2 2c1.904-2.218 3.651-4.399 5-7-.51-2.91-.51-2.91-2-5zm21 0-2 2h2v2l4 1-1 6-6 1v3h3l2-2h3c2.15-.95 2.15-.95 4-2l-1-3v-4c-1.667-2.333-1.667-2.333-4-4zm-224 3 1 2 5-2-1-2c-2.324-.185-2.324-.185-5 2m44-3-1 4 5 1v-2l4 1 1-3-2.812.063C108 292 108 292 105 291m136 1v5h1v-5zm40 0 1 3v-3zm-206 1-2 4 3 2 2-3zm224 0 1 2Zm-208 1-3 3 3 1 2-3zm11 0v2l-3 1 1 4c2.51-1.255 2.871-2.5 4-5zm68 0 1 2Zm33 0 1 3Zm42 0 1 3Zm56 0-1 3 3-1zm-191 1 2 2v-2zm3 0 1 2 1-2zm168 0-1 2h2zm-186 1 1 2Zm104 0-1 2h2zm101 2 1 2h3c1.705-1.94 1.705-1.94 3-4-2.647 0-4.58.981-7 2m-222-1c-1.101 3.266-.922 5.016.375 8.188l.836 2.105c.666 1.7.666 1.7 1.789 2.707h-2c-1.21 3.105-1.21 3.105-1 7l-1.812.813c-2.16 1.172-3.546 2.38-5.188 4.187l-1-1c-2.468 1.152-4.048 2.048-6 4l-6-5-2 3a819 819 0 0 0 5.313 5.5l1.513 1.59c1.335 1.361 2.75 2.641 4.174 3.91h3c2.2 1.867 3.736 3.456 5 6.063 1.28 2.479 2.711 3.329 5 4.937a475 475 0 0 1 5.414 4.793c1.52 1.409 1.52 1.409 3.586 1.207 1.625-1.458 1.625-1.458 3-3v2l4 2-1 1-1-2-2 1 1 3c2.477.908 4.336 1 7 1l1 4 2.938.375L107 361l1 2h3c2.043.875 2.043.875 4.188 2l2.167 1.125L119 367v2l3.75.25c4.072.48 5.449 1.755 8.25 4.75 2.668.335 2.668.335 5 0v2c2.858.685 2.858.685 6 1l3-2v3c2 .043 4 .04 6 0l1-1 1 3c3.287.8 4.71 1.097 8 0v2l5-1 1 2h4v-5l3-1-1.75-1.75L170 373l-2.312-1.937L166 369c.313-2.687.313-2.687 1-5l-1-1c.125-1.937.125-1.937 1-4q2.491-1.021 5-2c1.452-1.902 1.452-1.902 2-4l-1-2h-4v-3l-3.562.063c-9.313 0-9.313 0-13.438-2.063l-2 2-1-1q-3.5-.062-7 0l1.5-1.375c1.726-1.501 1.726-1.501 1.5-3.625q-3.34-1.477-6.687-2.937l-1.897-.842c-3.467-1.507-6.71-2.535-10.416-3.221a102 102 0 0 1-3-3 134 134 0 0 0-6-3v2l-7-7-1 2c-4-4-4-4-5.625-5.75-1.312-1.474-1.312-1.474-3.375-1.25l-1-3-3 1v-3a83 83 0 0 0-4-3l-2-3h-2v3c-5.875-4.75-5.875-4.75-7-7h3c-.791-2-.791-2-2-4l-3-1zm36 0c0 3.633 1.08 4.971 3 8a174 174 0 0 1 2 4c.348-4.877-.583-7.77-3-12zm-77 1 2 2v-2zm27 0 1 2Zm249 0a116 116 0 0 0-8.312 8.938c-4.276 4.949-9.279 8.456-14.688 12.062v3l-3-1c-2.827 1.817-4.653 3.04-5.812 6.25L281 329l3 1 3-2 5 3-3 3q1.433 2.19 2.875 4.375l1.617 2.46c1.467 2.24 1.467 2.24 3.508 4.165 3.694.201 6.48.174 10-1v5c5.825-3.432 10.862-7.492 15.813-12.062l1.668-1.535c3.137-2.941 5.913-5.965 8.519-9.403-1.165-1.666-1.165-1.666-3-3-2.655.23-2.655.23-5 1v-2c-1.947.842-1.947.842-3 2l-1-3h-2l-1-3h-3c-1.417-3.307-2.631-6.406-3-10 .813-2 .813-2 2-4 .68-1.661 1.35-3.327 2-5zm12 0-1 2c.892 2.117.892 2.117 2 4 .681-1.892.681-1.892 1-4zm-234 1v3l2 1-1-4zm186 0 1 2Zm55 0 1 2Zm-262 1-1 2 3-1zm294 0 1 2Zm-299 0-2 2h3zm34 1 1 3 2-1zm5 0-1 5c2.892 1.333 2.892 1.333 5.188.063L110 305l-1-3zm195 0v2l2-1zm-225 1-2 3 4-1zm243 0v3l2-2zm18 0v3l2-1v-2zm-280 1 1 2Zm2 0v2h2v-2zm36 0v2l2-1zm205 0 1 2Zm-214 2 3 3-1-3zm163 1-1 4 2-4zm27 0 1 2Zm-198 1 1 2Zm27 0-1 4 3-3zm177 0 1 2Zm36 0v3l3-2zm20 0 1 2 1-2zm-300 1 1 2Zm18 0v2l3-1zm20 0 1 2Zm57 0-2 2 6 6 4-2c-3.477-3.78-3.477-3.78-8-6m151 0-1 2h2zm6 0 1 5 3-1-1-3zm-165 1 1 2 1-2zm154 0 1 2Zm-169 1 1 3v-3zm6 0 1 2 1-2zm169 0v3Zm-180 1 1 2Zm15 0 1 2Zm195 0 1 2Zm-256 1v2l2-1zm17 0v3h2l-1-3zm203 0 1 3 2-2zm41 0-1 3 3-1zm16 0 1 3h2l-1-3zm-284 0-2 2 4 3 1-5zm233 1 1 2Zm47 0 1 2Zm-212 1a318 318 0 0 0-5 6 510 510 0 0 0 10.25 6.75l2.016 1.297c1.696 1.114 1.696 1.114 3.734.953l1-4-2.687-1c-3.852-2.325-5.19-4.508-7.333-8.355L119 314zm7 0 1 3 4-1-2-2zm148 0 1 8c3.93-.575 3.93-.575 7-3l-2.875-1.375C275 316 275 316 273 314m-164 1 1 2Zm29 0 2 2 3-1zm146 0 1 2Zm47 0v3l2 1zm8 0 1 2Zm-273 1 1 2Zm3 0 1 2 2-1zm74 1-1 4h3c1.34.306 2.675.635 4 1l-1-3c-2.504-1.219-2.504-1.219-5-2m184 0 1 2Zm-195 1 2 3v-3zm-5 2 2 2v-2zm143 0v4l2 1 2-2zm64 1v2l3-1zm-182 1v2l4 1q-1.47-1.53-3-3zm115 1-5 3 3 3 5-3-2-1zm66 1 1 2 1-2zm-81 1 2 2v-2zm-114 1 1 2Zm6 0v4h3v-2h-2zm10 0c3.203 2.834 5.78 3.52 10 4l-1-3zm105 0v3Zm-144 2 1 2Zm128 1 1 3 6-2-1-3c-3.185-.277-3.185-.277-6 2m19-1 1 2Zm-120 1-1 2h2zm7 0v2l3-1zm16 2 8-1v2l3-1c-1.813-2.232-1.813-2.232-4.375-2.25-2.694.257-4.317.882-6.625 2.25m112-3-2 2 4 4 4-2c-1.392-2.784-3.156-2.979-6-4m-137 3-1 3 2 1 1-3zm13-1v2l-10-1 2 3c3.584.25 3.584.25 7 0l-1 4c2.947 1.158 2.947 1.158 6 1h2l1 2c8.109 2.922 19.637 5.788 28 3v-2h-3v-2l2.375.563c2.596.697 2.596.697 4.625-.563v2l-2 1c1.759 2.17 1.759 2.17 3.91 2.23 3.857.308 3.857.308 7.09-1.23l2 2 2-2 1.625.438c3.596.851 6.733.108 10.375-.438v-2h2v2l2.813-.875c4.125-1.193 8.302-1.883 12.539-2.562 2.743-.583 5.117-1.355 7.648-2.563l1-2-1-2 3-1-3-1v-2l-3 1c-2.683.795-5.289 1.148-8.062 1.438-3.981.28-3.981.28-6.938 2.562l-1 3c-2.944 1.178-3.9 1.033-7 0v-2c-6.28-.25-6.28-.25-12 2l-3-1v2h2v2l5-1v2c-5.75-.875-5.75-.875-8-2v-2l-9-1v2l-8.187-1.437-2.33-.409c-11.07-1.948-11.07-1.948-13.483-3.154v2h-3v-2c-3.622-1.491-7.276-2.787-11-4m95 1v2l5 2-2-5c-1.224-.075-1.224-.075-3 1m26-1q-2.194 1.144-4.375 2.313l-2.46 1.3c-2.433 1.355-2.433 1.355-4.165 4.387l-1-2-5 3 2 1 2-1v2l-5 1v-2q-2.126.428-4.25.875l-2.39.492c-2.328.625-4.25 1.481-6.36 2.633l1 2 5.957-.098C252 346 252 346 255 347l1.188-1.437c2.262-1.95 3.896-1.993 6.812-2.563a132 132 0 0 0 5.313-2.062l2.675-1.098L273 339l-1-2 6-2zm-21 2 4 1Zm-111 2 1 2Zm7 0 1 2 1-2zm97 0 4 2v-2zm-102 1 4 3 2-1c-2.815-2.277-2.815-2.277-6-2m73 0v2h7l-1-3c-2.156 0-3.924.447-6 1m27 0 1 2 2-1zm-173 2 2 2v-2zm213-1-3 3 2 2 4-2zm-10 6 1 3 2-2zm-128 1-1 3h6l1-2zm87.313 2.813-2.387.457L229 347l-1 3h2v-2l4.813 1.438 2.707.808A215 215 0 0 1 243 352c2.19-1.372 2.19-1.372 4-3l-5-2v-2c-3.157 0-5.64.193-8.687.813M276 345v4l2-1v-3zm11 0-.687 1.938C285 349 285 349 282.5 349.563L280 350c-2.277 2.815-2.277 2.815-2 6l-2.875-.625L272 355l-2 2a126 126 0 0 1-6 2l-4-4-2 1c.195 1.95.195 1.95 1 4 1.984 1.284 1.984 1.284 4 2l-2 6 4 1v3c4.321-1.296 8.186-3.016 12.168-5.098C279 366 279 366 282 365l2-2h1l3-2 3-1 2.563-2.062C296 356 296 356 298 356v-2l4-1 1-5c-3.211 0-5.21.556-8 2.125-2 .875-2 .875-5-.125l1-4zm-43 3 5 2 2-2v-2c-3.955-.348-3.955-.348-7 2m24-3-2 2 1 2h3zm-97 4 2 2c2.108-.319 2.108-.319 4-1zm134-1-2 2h4zm-81 0-2 1v2h-2v-2c-4.13.567-4.13.567-8 2q-3.511-.421-7-1l-.875 1.938C203 354 203 354 201 355c4.282 3.263 6.657 4.243 12 4l2 2v-4l1 3 2 2 2 3-3 4c.959 2.33.959 2.33 4 4l-4 4-4-2c-1.234 1.714-1.234 1.714-2 4 .787 2.72.787 2.72 2 5l5-2-1-2h-3v-2l2.75 1.563c3.028 1.676 3.028 1.676 5.625 1.125L224 380v-2l-4-1h14l1 2h-2v2q2.126-.214 4.25-.437l2.39-.247c3.276-.439 6.226-1.271 9.36-2.316v-2c2-1 2-1 5-2v2l2-1-1-3 2.875 1.063c2.996 1.287 2.996 1.287 5.125-.063v-2h-2c-1.125-3.75-1.125-3.75 0-6-3.868-1.875-3.868-1.875-8-1v5l-1.875-.625L249 368l-2 2-3 2v2h-2l-1-3a150 150 0 0 0-6-4l-2-2c.354-2.263.975-3.95 2-6l-3.875-.375c-3.875-.375-3.875-.375-6.125-2.625l2.875-.375c3.212-.342 3.212-.342 5.125-2.625l3 1 3-3c-4.183-1.367-6.78-2.164-11-1a89 89 0 0 1-4-2m-47 3c-1.297 2.49-1.297 2.49-2 5l2.875-.062C181 356 181 356 183 357l-1 2 5-1 .375-1.812C188 354 188 354 190 351a380 380 0 0 0-4.25-.562l-2.39-.317c-2.416-.124-4.106.009-6.36.879m24 0 1 2Zm-26 1 1 2Zm78 0-3 2 1 4 4-5zm-156 4 2 2v-2zm76 0 3 3-1-3zm5 0-1 2h5zm14 0-1 3 4-1zm49.375 1.5L240 359l4 2 1-5c-2.124-.226-2.124-.226-3.625 1.5M264 357l1 2Zm-88 2v8l4-2c-1.152-2.468-2.048-4.048-4-6m75 0 1 2 1-2zm2 2v3l2-2zm-67 2-1 5 2 1v-6zm7 0c-.91 3.073-1.089 5.801-1 9l3 1-.75-1.687C194 369 194 369 195.938 366.25L198 364zm18 0v2l2-1zm-7 0-2 2h3zm36 2 1 2Zm2 0c2.052 2.248 3.007 3.002 6 4v-4zm-29 2v2l-2 1h3l1-3zm-11 1 1 4h3v-4zm13 1 1 2Zm66 2-1 2h2zm-69 1v3l2-1v-2zm-20 1 1 2Zm-8-4 1 5-2 1c0 1.854.017 3.709.063 5.563C183 383 183 383 182 385h3v-2h2l1 2 1-1 1.625.438c3.15.746 6.15.624 9.375.562.86-3.263.86-3.263 1-7-1.79-2.929-1.79-2.929-4-5l-3 1v2h-2v3l-4-2-1 1-1-9zm19 3-2 2 3 2c1.188 2.125 1.188 2.125 2 4l1-3c-1.3-2.695-1.3-2.695-3-5zm74 1 4 2-1-2zm-101 1v2l3-1zm32 3-3 7 2 1 1-3 3-2zm18 0-1 2c3.623 1.208 4.641.543 8-1v-1zm-24 1v7h2l1-3c-1.372-2.19-1.372-2.19-3-4m27 2 1 2 2-2zm-93 1 1 2Zm37 0 1 2Zm49 0-1 2 3-1zm-14 1 1 3h2v-3zm11 0-1 2h2z"/>
        <path d="M164 96c6.675.899 6.675.899 8.902 1.594 2.709.524 4.721.05 7.41-.531 4.32-.858 8.27-1.243 12.688-1.063h17l1 2 1.688-.07c5.488-.13 10.041.537 15.312 2.07.882 3.038 1.126 5.746 1.13 8.905l.009 2.942-.006 3.157.003 3.257q0 3.405-.006 6.811c-.005 3.48 0 6.961.007 10.442q0 3.308-.004 6.615l.006 3.163-.01 2.933-.002 2.58C229 153 229 153 228 156a278 278 0 0 0-1 4q-12.439.106-24.878.155-5.775.022-11.552.071-5.572.048-11.146.059-2.127.008-4.254.032c-1.985.022-3.97.023-5.954.024l-3.426.02c-2.79-.361-2.79-.361-4.688-1.7C160 157 160 157 160.145 154.082l.667-3.27.645-3.292L162 145l-3-1v-3l3-1-1-3v-1l-4 1-3-5 8 1v-3l-2-1 .5-3c.752-5.294 1.216-10.853-.5-16h2l-.562-3.375C161 103 161 103 162 101l-2-1 3-2 2 2zm4 2-1 3 4-2zm17 2 3 3 2-1zm5 0 1 3 2-2zm8 0v3h3v-2zm-18 1-1 2 3-1zm29 0 1 2Zm-16 1 1 3Zm18 0 2 2v-2zm5 1 3 3 2-1-2-2zm-49 1v3l3-1v-2zm15 0 1 4h2l1-4zm5 0 1 2 2-1zm40 0v48h1v-48zm-51 1-1 4c2.49 1.245 3.41.777 6 0v-4zm15 0v2l-5-1c1.67 3.224 1.67 3.224 4.625 3.688L193 110l1-3zm17-2-1.75 1c-2.25 1-2.25 1-6.25 1-2.2.933-2.2.933-4 2 4.12 2.06 6.543 1.891 11 1l2 1 2-2h-2zm8 2-5 3 1 2h3l1 2 4-1v-2l-2-1zm-44 2 1 2Zm-4 1-2 4 3 2 2-2 2-2zm54 1 2 4v-4zm-26 2v5l3-1 1 4 4 1v-2l1.875-.375c2.316-.497 2.316-.497 4.125-2.625 2.125.375 2.125.375 4 1-2.54-3.76-2.54-3.76-6.437-5.812-4.091-.3-7.602-.362-11.563.812m16 0v2l3-1zm8 0 1 2 1-2zm-30 0-2 2 3 1 3-2c-1.892-.681-1.892-.681-4-1m-10-1-1 1a132 132 0 0 1-4.562 1.563l-2.504.816L170 114l1 2c5.041.378 9.606-.452 14-3l1-3c-2.503-1.251-3.403-.838-6 0m37 3-3 2c1.165 1.666 1.165 1.666 3 3 2.627-.075 2.627-.075 5-1l1-2-3-1-2 1zm-48 3 1 2Zm14 0c.64 2.032.64 2.032 2 4a76 76 0 0 0 5 1c2.313 1.563 2.313 1.563 4 3 .418-2.373.418-2.373 0-5-2.861-2.242-4.34-3-8-3zm-7 1-1 2 2 2v-2l6 1-1-2c-3.03-.658-3.03-.658-6-1m20 0 2 2v-2zm16 0 1 2Zm-5 1-2 2 5 1 1-2c-1.892-.681-1.892-.681-4-1m6 1-1 2 2 2 1-3zm-44 1c-1.542 1.375-1.542 1.375-3 3v2c1.94-.276 1.94-.276 4-1l2-3zm5-1-2 2 3 1zm41 2 1 3 6 1v-4c-3.583-1.002-3.583-1.002-7 0m-15 0c-2.195 2.285-2.195 2.285-4 5l1 3 5-4 4 2a318 318 0 0 0-5-6zm-22 3h-3a257 257 0 0 0-7 2l2 4v-3l3 3 1-2c2.328-.414 2.328-.414 5.25-.625l2.89-.227c8.032-.416 8.032-.416 11.86 1.852l-1-5-4 1-1-3c-5.587-.604-5.587-.604-10 2m26-2 4 7 1-2 2-1-2-4zm9 2-1 4 3-1zm4 2-2 3c3.51 1.686 3.51 1.686 7.313 1.625L224 130l-2-1-1-2c-2.025-.652-2.025-.652-4-1m-17 2v4l2 1 1-5zm4 0-1 3 2 2 2-4zm-25 3 3.188.438c2.219.327 4.434.7 6.625 1.187 2.223.603 2.223.603 4.187-.625l1 3c-.106-2.452-.106-2.452-1-5-5.206-3.037-9.496-3.003-14 1m-12-1 2 2v-2zm44 0v3l4 1v-3zm-4 1 1 2Zm10 1-1 3c3.287.8 4.71 1.097 8 0l-1-2-2 1-1-2zm-50 1v2l3-1zm33 0 1 5c2.167-.833 2.167-.833 3-3zm-27.75-2.125L170 132l2 2h4l-1 3-6 1 2 1 1 2v-2l2.188.563c3.015.469 4.868.155 7.812-.563q2.998-.51 6-1l1 2h4l-1 4h2v-6h-2l-1-2c-2.305-1.306-4.476-2.159-7-3a72 72 0 0 0-4 3h-2l-1-3 2-1c-2.729-1.82-3.536-2.148-6.75-1.125M199 135l1 2Zm9 0 1 2 1-2zm3 0-1 3c3.924 1.665 7.891 2.872 12 4l2-2c-4.397-3.109-4.397-3.109-9.437-3.75L213 137v-2zm-13 2-2 3 3-1zm9 1 2 2 1-2zm-2 2 1 2Zm-31 2v2l5 1 1-3c-3.05-1.011-3.05-1.011-6 0m8 0 1 3h2v-2h2v2l1.938.875C191 147 191 147 192 149l2-1v-3l-2.437-.875C189 143 189 143 188 141c-3.776-.298-3.776-.298-6 1m14-1 1 2Zm20 0 1 2Zm-20 3 4 3 2-1c2.04-.07 4.083-.084 6.125-.062l3.32.027L214 146c-.834-2.002-.834-2.002-2-4-3.147-.994-5.666-1-9-1-2.372 0-4.929 1.942-7 3m-24-2-2 2h3zm43 1v3l2-1zm5 0-1 2h2zm-53 1-1 3h2l-1.062 1.813c-1.271 2.295-1.271 2.295.062 5.187l2.313-.937A111 111 0 0 1 175 151l-2-3-4 1 1-4zm8 1v3l4 1v-2h-2v-2zm21 1 1 3 1-3zm24 0 2 2v-2zm-40 1v3l-3 1h6l-2-1 1-3zm17 3c1.752 1.648 1.752 1.648 4 3 2.208-.217 2.208-.217 4-1v-2l2 .438c3.656.685 7.306 1.124 11 1.562-.669-3.113-.669-3.113-3.062-4.187-6.923-1.915-11.705-.93-17.938 2.187m-12-3-3 2h4zm2 1-3 2 1 2 2.313-.125C190 152 190 152 193 154l1-4c-3.343-1.194-3.343-1.194-7-2m31 2c2.052 2.248 3.007 3.002 6 4l-1-4zm13-47h1c.197 4.27.38 8.541.563 12.813l.17 3.681.146 3.526.143 3.253C233 129 233 129 232 132h4c.21-3.895.21-3.895-1-7 2-3 2-3 5-4l-.187-2.812c.187-3.188.187-3.188 1.5-5.063C243 112 243 112 246 112l-1 4 4-2v-2h6v3l2-1-1-2 2.125.563c2.931.602 2.931.602 6.063-.126L267 112l2 2-.062 3.5.062 3.5 3 2c.188 2.625.188 2.625 0 5l6 1a159 159 0 0 1-5 6h-2l.563 3.25c.367 3.154.482 4.848-.563 7.75l-2-2 .125 2.875C269 150 269 150 267 152l-3-1-2 2-1-3-.75 1.938C259 154 259 154 256.875 154.75L255 155v2h6l-3 1-1 2v-2c-3.448.653-3.448.653-6.812 1.625-3.485.597-6.704-.102-10.188-.625l4-4h-2v2l-2-1 1-2h2c-.113-1.959-.113-1.959-1-4-2.858-1.492-2.858-1.492-6-2a280 280 0 0 1-4-1l1 5-3 2q-.037-10.654-.055-21.307-.008-3.628-.02-7.255c-.013-3.468-.018-6.935-.023-10.403l-.015-3.298v-3.034l-.007-2.685C230 104 230 104 231 103m21 12-1 2 3-1zm13 0 2 4-1-4zm-6 3 1 2Zm-2 1-1 2 3-1zm-9 1v3l2-3zm12 0-.437 2.375C259 125 259 125 258 127l4-1v-4zm-16 1 1 2Zm6 0 1 3 1-3zm5 0-1 2h2zm2 1 1 2Zm-11 1-1 2 3-1zm5 1 1 3v-3zm-2 3 1 2Zm13 1 1 3 2-1zm4 1-2 4 4 1 2-3zm-12 0-2 1 1 3 4-2h-2zm-22 4 1 2Zm9 1-2 2h3zm2 1-1 2h2zm4 0 1 2 1-2zm12 0 1 2Zm-27 2 2 2v-2zm13 0 1 2Zm-10 1v2l-3 1 1 5 5-1 1-6zm26 1-1 4h2l1 2 2-2h-2l1-3zm-14 1v3l2 1-1 2 4 1 2-3c-3.262-2.652-3.262-2.652-7-4m5 0v2l3-1zm5 0 2 3v-3zm-18 8 4 1 1 4 2-1-2-7c-1.968 0-3.505 1.843-5 3m18-1 1 3Zm-7 5-2 3 4-2zm5 0v2l2-1zm-2 1-2 3 3-1zm-8 1 1 2 2-1zM105 326c4.978 1.149 7.538 2.3 11 6 2.138.787 2.138.787 4 1 0 3 0 3-1 6 4.1 3.137 4.1 3.137 9 4v2h5l1 2c1.663.353 3.33.68 5 1 2.698.93 5.34 1.963 8 3l-1-1 3-1 1 3 4-2v2l2.438 1.375C159 355 159 355 159.938 357c.062 2 .062 2-1.938 5l-2-2c-1.217 1.765-1.217 1.765-2 4 .783 2.235.783 2.235 2 4l-4-1v6c-3.653-1.25-4.78-1.671-7-5q-3.438.463-6.875.938l-3.867.527c-3.134.35-3.134.35-5.258 1.535l.977-6.055L130 363c-1.925-2.224-1.925-2.224-5-3-3-1-3-1-5-3l-2-1v-2h-2l1 5-4 3-.875-1.812c-1.172-2.381-1.172-2.381-3.125-5.188 1-3 1-3 3-6l-5 1-1.875-3-2.125-3h-2l-2 3-2 3h-2c-1.187-2.223-1.187-2.223-2-5 1.188-2.246 1.188-2.246 3-4.437 1.74-2.26 1.74-2.26 3-4.563-.41-3.497-.41-3.497-2-6h2l1-2h4zm2 6 1 2Zm5 2-2 2h4zm5 1 1 2Zm-8 6 1 2 3-1zm11 5 1 3v-3zm-1 3 2 2v-2zm-1 1 1 2Zm12 1 1 3 4-2zm-11 1 1 3Zm7 1v3Zm19 3v11h2l.375-3.312C148 360 148 360 150 357zm-11 3-1 3h2zm2 0 1 2 1-2zm4 2-1 2 3-1zm216-201c2.229-.054 4.458-.093 6.688-.125l3.761-.07c4.144.228 6.904 1.372 10.551 3.195-.164 6.727-1.143 10.259-6 15l-3 2h3l2-2 3 1v15l-5-1c-2.025 0-4.024.595-6 1l-.375-1.937L364 190l-2-1 2-3h-3l-1 4v-4h-2l-2 4c-.823-3.908-1.28-6.158 0-10l2-1h-2c-1.496-5.103-2.467-8.743-1-14l2-3zm9 5v2l-6 2 2 4c3.374.334 3.374.334 7 0 1.982-1.861 1.982-1.861 3-4a91 91 0 0 0-4-4zm-5 13 1 2Zm10 8-1 4 3-1zM321 67c2.125-.437 2.125-.437 5 0 2.279 2.123 4.102 4.54 6 7l2 2c-.375 2.625-.375 2.625-1 5h-4v2c-2.187.75-2.187.75-5 1-2.812-1.937-2.812-1.937-5-4v2l2 2 2 3-4 3-1.426-1.312L315.687 87l-1.863-1.687C311.97 83.708 311.97 83.708 309 84a93 93 0 0 1-4-1l2-3 2 1v-2l-2-1 1-3 3.313.25c3.721.161 3.721.161 5.625-2.25L318 71l-3-1c3-1 3-1 5-1zm3 7-1 2h2zm2 1v4l2-3zm-16 2 1 2 2-2z"/>
        <path d="m307 51 5 1v3l3-1 1 2-1 1 1 3h3v2l1.938.875C323 64 323 64 324 66c-3.668 1.962-6.872 3.393-11 4l1 4-1.812-.687L310 73c-1.772 1.354-1.772 1.354-3 3-2.878-1.29-5.09-2.454-7-5-.687-3.187-.687-3.187-1-6h3v-2h2l-1-3h2l.438-2.25c.464-2.27.98-4.508 1.562-6.75m4 7 2 2 1-2zm-1 3-1 4 3 1 3-3-1-2-2 1 1 2h-2zm-2 5 1 2 1-2zm-42-39 5 2c0 4.89-1.101 7.135-4 11-.705 2.147-.705 2.147-1 4l4 1c2.456-3.686 2.456-3.686 3-8 2.5-2.687 2.5-2.687 5-5 2 1 2 1 3.266 2.75.734 2.25.734 2.25-.094 4.688L279.75 42l-1.39 2.563L277 47a349 349 0 0 0-2 4l-2-1-3 2-3 1v-3l-2.25-.25c-3.362-.917-4.715-1.932-6.75-4.75.108-4.122 2.087-7.413 4-11l1-2q1.491-2.505 3-5m-7 15 1 2Zm-95 170c1.47 8.327 1.47 8.327 0 12-2.312 1.188-2.312 1.188-5 2l-2.062 1.063c-1.966.95-3.808 1.48-5.938 1.937v-4l-5-1 1-2 3 1 1-2h2l1 3 .402-1.863.536-2.45.527-2.425C156 215 156 215 157 212c2.944-1.178 3.9-1.033 7 0m-6 1-1 2 4-2zm-6 13 1 2Zm139 93h5v10c-5 0-5 0-7.312-2L287 325l5-4zm2 4-2 4h4v-4zm-49-115h12c0 6 0 6-1.5 7.875L253 217l-2.25-2.937c-1.723-2.087-2.489-2.964-5.062-3.938L244 210zm7 1 2 4h2v-4zm-11 47c.125 5.75.125 5.75-1 8-4.419-1.35-6.343-3.261-9-7 3.38-1.04 6.478-1.08 10-1m-5 1 2 4h2v-4zm135-122 .75 1.875c1.055 2.293 1.055 2.293 3.313 2.938L376 141c.75 3.625.75 3.625 1 7h-3l-1.25-3.437c-1.317-3.658-1.317-3.658-3.937-4.5L367 140v-2h2zM198 263l4 2h-3v6l6 1-1 5c-2.902-.3-3.857-.838-5.812-3.062-1.648-4.077-.988-6.647-.188-10.938m2 10v2h2v-2zM72 32l9 1c-1.584 3.167-2.453 4.733-5.687 6.313L73 40c-1.354-2.709-1.065-5.01-1-8m1 1v4l4-2v-2zm131 78 1 2 3 1-1 3c-3.062 1.188-3.062 1.188-6 2 0-3.278.633-5.633 3-8m0 2 1 2Zm-96-80v2l-4 1 1 2-8 1c0-3 0-3 2-5 6.553-2.223 6.553-2.223 9-1m57 339c2.438.75 2.438.75 5 2 .813 2.125.813 2.125 1 4-3.378.845-5.675 1.108-9 0h2c1.108-1.883 1.108-1.883 2-4zm76-108h2l.813 1.938c1.074 2.393 1.074 2.393 4.187 3.062v2l-4 2-1-4-4-1c1-3 1-3 2-4m9-15h1c1.232 6.159.73 11.787 0 18-3.563-5.345-2.014-11.917-1-18M1 236c2 2 2 2 2.125 4.625L3 243l3-2 1 7-2-3-4 1zM80 82h4c.75 1.688.75 1.688 1 4-2.134 3.277-3.25 4.75-7 6v-2l3-2-2-2c.375-2.125.375-2.125 1-4m1 1 2 3v-3zm-56 5h7c-2.75 4.875-2.75 4.875-5 6l-1-2-2 1zm3 1-1 2h2zm360 147 1 2h2c.37 6.523.37 6.523-1.5 8.938L388 248l-1-3h2zM292 82c3.265 1.804 4.89 2.834 7 6h-3l-1 1-5-5h2zM176 321l8 1v3l-7 1 4-2h-6zm-54-141c2.375.313 2.375.313 5 1l2 3h-10l2-1zm1 1 2 2v-2zm111 187 1.813 1.375A124 124 0 0 0 241 373l-2 1c-2.625-1.437-2.625-1.437-5-3l-1 4h-1v-6zm79-209h2l1 3-2 1 2 2-1 3-5-6 3-1zm36-26h2v2l3 1-6 4-2-1 1-4 2 1zm-21-70 1 2 3-1c4.429 5.143 4.429 5.143 5 9-3-1-3-1-4.437-3.437-1.659-2.72-2.647-3.457-5.563-4.563zm-13 256h2v4l2.375.438C322 324 322 324 324 325v2c-6.818-1.97-6.818-1.97-9-5zm-87.312-118.562 2.449.308L232 201v1h-7l1 2c-2.867-.573-3.861-.861-6-3 3.095-1.032 4.526-.975 7.688-.562M98 109c1.283 3.85 1.066 6.947 1 11h-2a758 758 0 0 1-.062-4.937l-.036-2.778C97 110 97 110 98 109m113 211q2.687-.079 5.375-.125l3.023-.07C222 320 222 320 224 322c-4.944 1.206-8.209.63-13-1zM90 66l2 1c.625 2.063.625 2.063 1 4h2c-.312 1.938-.312 1.938-1 4l-3 1v-2h2l-4-7zm-74 38 6 1a56.5 56.5 0 0 1-4 7v-6h-2zm56-13c2.063.438 2.063.438 4 1-.312 1.938-.312 1.938-1 4l-3 1a88 88 0 0 1-1-5zm-7-50h7c-.812 1.938-.812 1.938-2 4l-3 1v-2h2v-2l-5 1zm0 303 1.75 2.438c2.231 2.54 2.995 3.213 6.25 3.562l-1 2h-4c-2.312-2.312-2.312-2.312-4-5zm-13-13c3.817 1.555 6.192 4.036 9 7l-1 2q-2.004-1.966-4-3.937l-2.25-2.215C52 332 52 332 52 331M9 258c1.563 1.188 1.563 1.188 3 3-.312 2.688-.312 2.688-1 5l-3-2c-.25-2.562-.25-2.562 0-5zm0 2 1 3Zm232-41h5v2l2 1h-8zM60 173h9c-2.386 1.892-4.072 3.024-7 4v-2h-2zM226 12l7 2-1 2h-8v-2h2zM123 269l.813 1.75c1.204 2.283 2.595 4.224 4.187 6.25l-4-1-.375-2.437L123 271l-2-1zm-17-157h1v16h-1zm134-21h3v2l4-1 1 2-6 1z"/>
        <path d="M271 26c3.367 1.393 4.986 2.979 7 6l-2 1v-2h-3zm4 335 3 1-2 2 1 2c-1.937-.375-1.937-.375-4-1l-1-2zM97 334l1 4-5 1v-3zm252-15c2 1 2 1 2.75 2.875C352 324 352 324 350 327h-2l.5-2.312c.591-2.724.591-2.724.5-5.688m-308 1 1.813 2.375c2.098 2.77 2.098 2.77 5.187 4.625l-4 1c-2.062-2.312-2.062-2.312-4-5zm189-12h2l-1 4-7-1 3-2 3 1zm101-20 5 5-2 3-1.312-2.375c-1.58-2.842-1.58-2.842-4.688-4.625zm-64-15 9 1v2c-2.788 1.033-3.868 1.045-6.75.063L267 275zm-94-66v3c-2.5 2.188-2.5 2.188-5 4 .25-2.375.25-2.375 1-5 2.063-1.312 2.063-1.312 4-2m86-160c2.51 1.255 2.871 2.5 4 5l-3 1v-2l-2-1-1-2zm-31 287 1 2 2 1c-1.812 1.563-1.812 1.563-4 3l-3-1 4-1-1-3zm8 0 4 2-1 2c-3.062.625-3.062.625-6 1l1-2h3zM45 306h5l-1 4-4-1zm104-74h2v2l2 1-3 1-2 2zm21-16 1 2-1 3h-2l1 3-3-1zm3-5h5c-2.156 2.156-4.371 3.478-7 5v-3h2zm156-41h2v8l-2-1c-.687-3-.687-3-1-6zm-91 176c2 1 2 1 5 3v2c-2.915-1.074-4.778-1.778-7-4zm85-17 5 1-1 2h-4l-2 1zm-256-2 3 1-1 5-2-1zm151-57 3 1h-2l1 5h-3a100 100 0 0 1 0-5zM18 240l2 1-1 6 2 1h-3c-1.125-5.75-1.125-5.75 0-8m-7-25 2 1-1 8c-1.62-2.572-2.044-3.677-1.625-6.75zm365-58 3 1v8h-1zm-332-2 1 2-3 3-3-1 1-3h3zm342-11h3v8c-1.414-2.639-2.372-5.071-3-8M68 93h2l2 5-6 1 1-2h2zm76-1v1l-9 1c2.014-4.029 5.276-2.906 9-2m86-10h10l-1 2-9-1zm51-54 3 1c-.375 1.938-.375 1.938-1 4l-2 1a88 88 0 0 1-1-5zM103 353h2l-1 5h-3l2-2zm231-79 2 3-1 3-3-1zm-68-3c0 3 0 3-1 5h-2l-1-4zm-36-20 2 1-2 5h-1a100 100 0 0 1 0-5zm41-9h1l-1 8-2-1zm-134-18 2 2c-.375 2.625-.375 2.625-1 5-1.062-1.812-1.062-1.812-2-4zm15-13 3 1-1 3h2l-1 2h-2zm209-20h2c1.125 3.75 1.125 3.75 0 6h-2l1-4-2-1zm-225-35-1 2c-2.437.75-2.437.75-5 1l-2-2c5.75-2.125 5.75-2.125 8-1m218-62 2 4-3 1-2-1 1-3zM224 79h6l1 2c-4.75 1.125-4.75 1.125-7 0zm-93-32 6 1-1 3h-3v-2h-2zm192-4 1 2c2.017 1.134 2.017 1.134 4 2h-4l-2-3zm1-3 4 1-1 4c-1.5-1.375-1.5-1.375-3-3zM212 28l4 1v2l-5 1zM107 355h2v6l-3-1zm61-4 3 4-6-1v-2zm-8-2h8l-1 2h-7zm-57-4c1.563 1.813 1.563 1.813 3 4l-1 3-2-1zm197-31 2 1c-1.312 1.5-1.312 1.5-3 3h-3zM47 282l1 2-4 4-2-1zm297-6 9 1-1 2-8-1zm-189-10-1 7-2-3h2v-2l-2-1c2-1 2-1 3-1m219-33h3l-1 6c-2-3-2-3-2-6m-192-11 3 4-1 2-4-4zm-6-1c0 3 0 3-1 6l-1-2-2-1zm-38-5 2 1-1 6c-1.062-1.812-1.062-1.812-2-4zm88-5 3 1-2 3h-3zm-73-18 4 2-1 3c-1.5-1.375-1.5-1.375-3-3zm72-17c3 0 3 0 5 1v2l-6-1zm-49-5 2 1-7 4c.813-1.937.813-1.937 2-4zm184-2h9v2c-3.375.125-3.375.125-7 0zm20-9c1.945 2.918 2.453 4.625 3 8l-2-1a109 109 0 0 1-1-7m1-40c1.5 1.188 1.5 1.188 3 3 .188 2.688.188 2.688 0 5-1.414-2.639-2.372-5.071-3-8m-46-5 4 2-2 4v-2l-2-1zm-305-1 1 3c-1.937 2.688-1.937 2.688-4 5 .547-3.375 1.055-5.082 3-8m216-31 8 2v1l-8-1zm94-9 4 3-1 4c-3-4.75-3-4.75-3-7M41 66l2 2-1 2h2l-1 2-3-2zm304-2 3 4-1 2-4-5zM165.625 39.875 169 40v1l-9 1c2-2 2-2 5.625-2.125M113 26h2l-1 6c-1.062-1.875-1.062-1.875-2-4zm162-2 5 5h-3v-2h-2zM89 24l5 1-1 2h-4zm153-11 8 2v1c-2.875.188-2.875.188-6 0zm-10-1c2.375.313 2.375.313 5 1l2 3h-3v-2zM132 381v1l-8 2v-2c2.709-1.354 5.01-1.065 8-1m-22-7h6l-1 2h-5zm47-23c1.938.375 1.938.375 4 1l1 2-5-1zm162-3h2v4l-4-1 2-1zm-182-5 3 2-6 2 1-2h2zm131-9 2 1-1 3-4-2zm-109-1c1 3 1 3 0 6v-2h-2v-3zm57-8c-4.625 2.125-4.625 2.125-8 1 3.067-1.862 4.597-2.215 8-1M25 296l3 4-1 2-3-2zm340-2h3l-1 5-2-2zm-10-4 1 2-3 4-1-4zm-34 0 2 1-1 3-3 1c.875-3.875.875-3.875 2-5m53-73 1 4-3 1c0-3 0-3 2-5"/>
        <path d="m151 215 4 2-2 4c-2-3-2-3-2-6m8-11 1 3h-2v2l-3-1 4-2zM13 188l5 1-3 3zm139-11h8c-3 2-3 2-5.687 1.625L152 178zm169-6 3 1v3l-4-1zm1 1 1 2Zm-249-2 1 3-3 1v-2l-2-1c2-1 2-1 4-1m305-19 2 1c.625 2.563.625 2.563 1 5h-2zm-228-11c1.938.375 1.938.375 4 1l1 2-4-1-1 2zm-58-10 3 1-1 3-3 1zm177-16 3 1-1 3h-2zM99 94h1v10h-1zM50 76l2 4-3 2a100 100 0 0 1 0-5zm234-14h3l2 4c-1.937-.312-1.937-.312-4-1zM60 48l2 1-5 5c.573-2.867.861-3.861 3-6m56-22h6l1 2h-7zm96 327 4 1h-3v2l-4-1h3zm-91-13 6 1v2l-6-2zm120-28 3 1-1 3-3-1zm-152 0 2 1-1 4-2-1zm214-2h5l-1.937.875c-2.215.953-2.215.953-3.063 3.125zm-67-12 4 4-3 1zm-158 1 3 1-1 4zm135-14 4 1-1 2-3-1zm-56-4h2l-2 4h-2v-2h2zm108-5 7 1v1h-6zm91-33h2l1 5-4-2h2zm-147 0 2 3-1 3v-2h-2zm103 1h3v3h-4zm-126-36h1v6l-2-2c.375-2.125.375-2.125 1-4m181-14 3 2c-3 1-3 1-6 0zm-152-4 4 2h-7zm144-39h9v1h-9zM11 122l3 2-2 2h-2zm347-18 3 1-1 3-4-2h2zM69 99l2 1-3 5-1-2c.938-2.125.938-2.125 2-4m39-16-7 2c1-2 1-2 2.938-2.687C106 82 106 82 108 83m74-16 2 1-1 3-3-1zm141-11 5 5c-1.937-.812-1.937-.812-4-2zm-215-8 5 1v2l-5-1zm48-8 3 1v2l-4-1zm161-7h2l1 4-3-1zm-60-1 2 1-1 4-2-4zm-45-9h2v4l-4 1 1-2h2zm-76-3v2h-6c3-2 3-2 6-2m147-2 5 1-1 2-4-2zM121 9h3v2l-4 1zm135 357 3 2v2h-2v-2l-2-1zm46-2 2 2-1 2h-2zm-124-12h5v2h-5zm14-10h8v1h-8zm-56-1v3l-3 1v-2zm-4-3c2 2 2 2 2 4l-4-2h2zm-38 1c0 3 0 3-2 6 .875-4.875.875-4.875 2-6m72-2 2 1-3 2-3-1c1.875-1.062 1.875-1.062 4-2m-12-3 2 2-4 2zm193-12 1 3-4 1v-2zm-272-2 2 2-2 2-3-1zm251-31 1 3-4 2zm-129-1 2 1-2 4-1-3zm-38-4v3l-4 1zm52-4c1.125 3.75 1.125 3.75 0 6l-2-1zM57 270l2 2-3 4zm309-1 2 2-3 3zM9 267h2l1 4h-2zm147-3 2 1v5c-2-3-2-3-2-6m39-1 2 1-1 3-3-3zm-145-4 2 1-1 3-3-2zm203-3h1v8h-1zm-73-4h5v2l-5-1zM14 233l3 1-2 1-1 3zm145-4h-2l-1 2-3-2c3-1 3-1 6 0m122-5h1v8h-1zm98 0h2l-1 6h-1zM0 217h1v8H0zm59-23 5 3-2 1-3-2zm118-2h2v3l-4-1h2zm-149 0-1 3-4-2c3-1 3-1 5-1m144-2h2l-1 3-3-1zm-11-14h6l1 2-7-1zm21-7-4 2-2-2c3.75-1.125 3.75-1.125 6 0m168-16 2 3-3 3zm-45-10 3 1-3 4zm-223-4h3l1 3-4-1zM9 126l2 3-2 4zm16-5 3 3-2 1-2-2zm290-30 5 2-2 2-3-2zm-2-4 2 3-2 1-2-1c1-2 1-2 2-3m-110-2v2h-6c3.75-2 3.75-2 6-2M89 76l2 1-5 2v-2zm265-3h2l-1 5-2-2zm-15-1 1 2-2 3-1-4zm-11-4 4 1-1 4-1-3zm-31-2h2l-1 3-3-1zM51 59l4 1-4 3zm267-7 2 1-1 2-4-2zM88 43l5 1-4 2zm98-8 3 3h-3zm-97-8 4 2-2 1-3-2zm89-9 4 1-4 2zm60-17h5l-3 1v2l-2-1zm-73-1 3 1c-1 1-1 1-3.562 1.063L162 2zm20 378 2 3-3 2zm-65-2 4 2-3 1zm121-2 3 1v2h-3zm-4 0h2v3l-3-1zm-92-2h4v2h-4zm19-3 1 3-3 1v-2h2zm-31 1h2v2l-4 1zm90-7 1 3-3 1v-2h2zm49-5 3 3-4-1zm-68-6 3 3h-3zm-19-1 3 1-3 2zm141-6 2 3-3 1zm-258-1 4 4-4-1zm8-6 3 1v2l-4-1zm218-9 2 2-4 2zm-244-2h2l-1 3-3-1h2zm262-3 4 1-1 3zm-191-2 4 2-2 2z"/>
        <path d="m78 320 1 4h-3zm-34 0 4 4-4-1zm96-13 3 1 1 3h-2zm-12-3 2 1v2h-3zm183 0h2v2h-2l-1 2zm2-5 2 1-2 3-2-1zm-112-11 3 2-3 2zm-166 0 2 1-2 4zm178-8 3 1c-1 2-1 2-3 3zm-11-2 2 3-1 3zm-77 2 2 1-2 4zm72-8 2 3-1 2-2-3zm-33-11 4 1-2 2zm-141-5 1 2 2 1h-2l-1 2zm-6-21h1v5l-3-2h2zm246-15 1 3-2 2zm80-40h2l-1 4zM71 164l4 1-2 3v-3zm319-2c1.063 1.875 1.063 1.875 2 4l-1 2c-1-1-1-1-1.062-3.562zm-349-2 1 3h-3c1-2 1-2 2-3m331 0h5l-1 2-4-1zM14 147l3 1-1 2h-2zm-14-3h1v7H0zm23-20 1 2h2l-1 3v-2h-2zm92-36 3 2-2 1-3-2zm229-7v3h-3zm-50-12 1 4-3-1zM59 69l2 2-4 2zm-14-3 2 2-3 2zm14 0v3h-3zm211-11 3 1-1 2h-2zm-154-2h3l1 4-2-1v-2zm-36-5 3 3h-3zm165-4 3 1-5 1zm-112 0 3 1-1 2h-3zm11-3 5 2-3 1-2-1zm113-21 4 1v2l-4-2zM164 9l4 1-4 1zm104 373 4 2h-4zm-107-9 4 2-3 1zm0-6h3v2l-4-1zm1-6h1v6h-1zm114-4h2l-1 3-2-1zm47-8h2v3h-2zm-222-5 2 1-3 3zm-15 1 4 2h-3zm166-3 3 1-5 1zm-81-1 4 1-3 1zm49-1 4 1-5 1zm-157 0 2 1-3 3zm-5 0 3 1-2 3zm71-3h2l-1 3-2-1zm166-2 1 3-3-1zm-175-2 1 2 2 1-4-1zm-70-2 2 1-1 2-3-2zm233-6h3l-1 3zm29-7c2 2 2 2 2 4h-2zm-234-1 2 1-4 2v-2zm14-4 4 3-4-1zm78-13 2 2-4 1zm-38-2 3 1-2 2zm129-2h4v2l-4-1zm27-4 3 1-1 2-3-2zm-249 0 1 4-2-1zm130-3 1 3-2 1zm-43-4 2 3h-3zm5-2 4 2h-3zm36-7h2l-1 4zm63-6h2v4l-2-1zm22-6 2 3-1 2zm-230 3 3 1v2h-2zm163-2 1 3-2 1zm88-1 3 1v2l-3-1zm-28 0 3 3h-3zm-28-6h2l1 4q-1.53-1.47-3-3zm112-11 2 4-3-3zm-62-4 2 1-1 3zm-103-3 4 1-4 1zm26-6 2 3-4-2zm-155-7 3 2h-2l-1 2zm142-4 2 1v2l-3-1zm63 0h6v1h-6zm-85-13h6v1h-6zm34-2 1 4-2-1zm-34-4 2 2-4 1zm165-3h2v3l-3-1zm47-4 2 4-2 1zm-7 1h5l-3 2zm9-1h3c-1 2-1 2-3 3zm-194-1h5l-1 2zm17-15 2 3-4-1h2zm113-18 1 3-3 1v-2h2zm48-1 2 2-2 3zM0 162h1v6H0zm270-13 2 1-4 2zm-186-4 2 2-1 3zm217-6h2l1 3-2 1zm-145 1 3 3-4-2zm217-4 3 3h-3zm-217 1v3l-3-1zm143-7 1 4-1-2-2-1zm-187-7 3 1v2l-3-1zm257 0v3l-2 1zm-75-2 3 1-2 2zm-238-1 2 3h-3zm61-19 3 1-3 2zm207-3v3l-2 1zm-102-2 2 1v2l-3-1zm-84-2h6v1h-6zm117-1v3l-3-1zM76 87l2 3-2 1-1-3zm270-5 2 3-2 2zm13-6h1v5l-2-2zm-69-10 4 2h-3zm51-8v3h-2v-2zm-76-5 4 2h-3zM75 51l4 1h-2l-1 2zm257-1h2l-1 3-2-1zm-75-13h3l-1 3-2-1zM123 25l4 2h-4zm54-2h2v2l-3 1zm-17-8h6v1h-6zm67-5 5 1-4 1zm-21-1h2v5c-2-3.875-2-3.875-2-5m-4-1 4 2h-3zm-48 379 3 1-3 1zm104-4h5v1h-5zm-68-3 1 2-4-1zm-69 0 3 1-3 1zm125-9 2 2h-3zm-23-4v3l-2-2zm73-3 4 1-2 1zm6-4 2 3-3-1zm-218-2 3 2-4-1zm62-1h2l-1 3zm143-2 2 1-3 2zm9-5 2 3-3-1zm-234-1 3 3-3-1zm259-4 2 1-3 2zm-15-1 4 1-3 1zm21-2 3 1-4 1zm-201-1 3 1-3 1zm53-2h3l-1 3v-2zm-13-1h5v1h-5zm167-2 1 2-2 2zm2-2 3 1-4 1zm-65-2 2 1-4 1zm71-4 1 2-2 2zm-303-3 3 3-3-1zm39 0v3l-2-1zm90-3 4 1-2 1zm39-2 2 1-2 3zm-37 0h5v1h-5zm-130-3 2 2-3 1zm301-8 1 3-2 1zm0-8 2 1-3 2zm-291-1 1 2-2 2zm289-3h2l1 3h-2zm-7-9 3 1-1 2zm-101-6 2 4-2-1zm-216-3 2 1v2h-2zm97-2 2 1-1 3zm86 0h2l-1 3zm-50 0v3l-2-1zm107-1 2 1-2 3zm-95-1h2l-1 3zm54-3h1v5h-1zm-96-7 2 2-2 2zm27-5 1 4-2-3zm-93-1 2 4-2-1zm92-2 1 3-2 1zm46-9 4 1-4 1zm-170-4 2 1v2h-2zm228-1 1 2-2 2zm62-2 2 1-3 2zm-43 0h2l-1 3zm-190-1h1v5h-1zm92-9 2 1-1 2-2-2zm148-1h3l-1 3v-2zm-301-2 1 3h-2zm373-2 2 1v2h-2zm-208 1 1 2-4-1zm193-2 2 1-1 3zm-300 0 1 2-2 2zm122-5h3l-1 3v-2zm-165-2 1 3h-2zm135-2 1 3-2 1zm187-6 1 3-2 1zm-319 0 4 1-2 1zm129-2h4l-1 2zm-1-17 4 1-2 1zm-21-1 4 1-2 1zm-5 0 4 1-2 1zm139-1 4 1-4 1zm-224-3v3l-2-1zm222-1h3v2l-3-1zm-159-3 4 1-3 1zm34-5 2 1-4 1zm-56 0h2l-1 3zm30-4h5v1h-5zm46-1 2 1-3 2zm-109-4 2 3-2 1zm306-1 3 1-3 1zm-224-12 1 2-3 1v-2zM1 152h2l-1 3zm348-3 1 4-2-2zm-261-4 1 3-2 1zm-85-1h2l-1 3zm230-3 3 1h-2l-1 2zm-144-2 2 1-4 1zm264-2 2 1-1 2-2-2zm-2-5 4 1-3 1zm15-4h2v3l-2-1zm-132 0 2 1-2 2zm114-4 3 1-4 1zm-294-1v3l-2-1zm293-1 2 1-4 1zM60 112l3 2-4-1zm-3 1v3l-2-1zm200-19 4 2-4-1zm-132 0 4 1-3 1zm239-2 2 1-1 3zm-6-10 2 2h-3zm-258 0v3l-2-1zm-45-6 2 1-3 2zm127-5 2 2-4-1zm23-5 2 1-3 2zm-97-4 2 3-3-1zm124-2 2 2h-3zm90-1 3 3-3-1zm-89-1 3 2h-3zm-20-2 2 4-2-1zm108-1 1 4-2-1zm-40-1 1 4-2-1zM74 56v3l-2-2zm81-4 1 3h-2zm70-3 2 1-4 1zM63 48l2 2h-3zm19-2 2 1v2h-2zm211-4h2l-1 3zm28-1 2 1-3 2zm-65-2 2 1v2h-2zM91 40l1 2-3 1v-2zm200-8 3 3-3-1zm12-8v3l-2-1zm-89-5 2 1v2h-2zm70-3h4l-1 2zm-123-3h5v1h-5zm83 374h2v2h-2zm-94 0h2v2h-2zm111-7 3 1h-3zm8-3 2 1h-3zm-113-1 4 1Zm-51-1 4 1Zm143-2v3Zm38-2 2 1h-3zm-32-1 1 2-3-1zm-35-1 3 1h-3zm77-3 2 2-3-1zm-202 0 3 1h-3zm65-3 2 1-1 2zm-66 0 3 1h-3zm-4 0h2v2h-2zm1-2 3 1h-3zm188-1 3 1h-3zm-57 0 3 1h-3zm40-3 1 4Zm12-1 2 1-1 2zm18 0 3 1-3 1zm-208 0 2 1h-3zm100-2h2v2h-2zm110-1 3 1-3 1zm-7-4 2 2-2 1zm-187-1v3Zm-15-3 2 2-3-1zm229-5 2 2-3-1zm-135 1 4 1Zm-40 0h2v2h-2zm29-1 3 1-3 1zm148-3 2 1h-3zm-154 0 3 1-3 1zm159-2 1 3-2-1zm-41-4 3 1-3 1zm39-5 3 2h-3zm-36 1h2v2h-2zm48-1 2 1h-3zm-258 0h3l-1 2zm-15-4 3 1h-3zm245-5 2 1h-3zm-167-6 1 3-2-1zm114-1 1 3-2-1zm109-3v3Zm-14-1 1 2-3-1zm-311 0v3Zm150-4 2 1h-3zm-154-3 2 1-1 2zm93 0 3 1h-3zm-72-1v3Zm240-2 2 1-1 2zm-263 0 2 1-1 2zm48-1v3Zm281-2v3Zm2-3v3Zm-190-5 2 3h-2zm158-1 2 1-1 2zm-124 0 1 4Zm-50 1h3l-1 2zm-136-2 1 4Zm358 0v3Zm-176 0h2v2h-2zm2-2 2 1-1 2zm-71-1 2 1-1 2zm137-1 4 1Zm-50-1 2 2-2 1zm-93-1 1 3-2-1zm234 0v3Zm-27-1h2l-1 3zm-314 0h2v2h-2zm159-5 1 4Zm160-1 1 4Zm46-3 2 1-1 2zm-133 1h3l-1 2zm-81-1h2l-1 3zm37-1 2 1-2 2zm-180-2 2 3h-2zm359-1v3Zm-166-2 2 1-1 2zm-47 0 1 4Zm91-1 2 1-1 2zm-52-8 2 1-2 2zm101-2 3 2h-3zm-263 1h2v2h-2zm150-1 3 1h-3zm32-2 3 1h-3zm143-1 4 1Zm-313-1 2 2-2 1zm314-2 3 1h-3zm-38-2 2 1-1 2zm-166-6 2 1h-3zm-99-3 2 1-2 2zm77-3 1 4Zm4 0h2v2h-2zm-2-2 2 2-3-1zm147-2v3Zm-125-1v3Zm-1-4 3 2h-3zm90-3 2 1-1 2zm-3 0 2 1-1 2zm-77 1h2v2h-2zm-141 0v3Zm102-3 2 3h-2zm210 0 2 2-2 1zm-94 0h3l-1 2zm-69-2 2 1-1 2zm-114-1h2v2h-2zm95-8v3Zm43-5 4 1Zm128-10 3 1h-3zm18-2 1 4Zm-219 0 3 1h-3zm-117-2 2 1h-3zm243-3 4 1Zm-70-1 3 1h-3zm-65 0h2v2h-2zm-56 0 2 1-2 2zm114-1h2v2h-2zm-34-1 4 1Zm219-4 3 2h-3zm-20 0 2 1-1 2zm-121 0 2 1h-3zm-202-3 1 2-3-1zm106-3 3 1h-3zm69-2h3l-1 2zm-135-3v3Zm-33-3 1 4Zm-3 1h2v2h-2zm107-5h2v2h-2zm-2 0 1 2-3-1zm90-2h2v2h-2zm-201-5 3 1h-3zm119-1 2 1h-3zm24-1 3 1h-3zm-59-8 3 1-3 1zm192-1 3 1h-3zm-192-2 3 2h-3zm-20 0 2 2-2 1zm-74 0 1 4Zm72-3 2 1-1 2zm184-1 2 2-3-1zm-87 1 2 1h-3zm-135-5 2 2-2 1zm-5 0v3Zm106-2h2v2h-2zm200-7 3 1h-3zm-17 0v3Zm-66-2 2 2-3-1zm-35 1v3Zm-44-2v3Zm-166-1v3Zm296-1 2 1-1 2zm13 0v3Zm-1-2v3Zm-305-3 2 1-1 2zm27-3v3Zm-39 0 1 4Zm35-1h2v2h-2zm276-1v3Zm-228-1 1 4Zm-35 0 2 1-1 2zm-3-3 3 1h-3zm4-3 2 2-2 1zm164 0h2v2h-2zm-1-2 1 2-3-1zM25 93l2 1-1 2zm337-4 2 1-1 2zM42 89l3 1-3 1zm4-7 2 1-1 2zm244-3 2 3h-2zm-80 0h2v2h-2zm-35-1v3Zm164-1h2v2h-2zm18-2 1 4ZM52 73h2v2h-2zm87-5v3Zm211-2h2l-1 3zm-161-1 2 1-1 2zm136-3 3 1-3 1zm17-2h2l-1 3zm-63-2 2 1-1 2zm-134 1 2 1h-3zm130-1 3 1h-3zm42-2 2 1-1 2zm-197 1 1 2-3-1zm-8-5 2 3h-2zm160 0 1 2-3-1zm41-1h2v2h-2zm-60-2 4 1Zm-69 0 2 1h-3zM84 49l3 1-3 1zm245-1h3l-1 2zM66 47l2 1h-3zm245-1v3ZM83 44l3 1-3 1zm66-4 2 2-3-1zm146-1 1 2-3-1zm-24-1h2v2h-2zm-79-1 1 2-3-1zm120-3 4 1Zm-5-1 3 1h-3zm-180 0 1 2-3-1zm-18-4h2l-1 3zm189-2 3 1h-3zm-42-5 3 2h-3zm-126 1 4 1Zm126-6 3 1-3 1zm-97-6 4 1Zm-35-3 4 1Zm141 373 3 1Zm-141-2 3 1Zm89-3 1 2-2-1zm46-5 2 2h-2zm-10-1 2 2h-2zm-27 1h2l-1 2zm-116 0 3 1Zm166-5h2l-1 2zm-181-1 3 1Zm103-1 2 1-2 1zm-17-2 2 2h-2zm43 0h2l-1 2zm-60-3 2 2h-2zm145 0 3 1Zm-196-1 2 2h-2zm-29-1 2 2h-2zm85-1 2 1-2 1zm-1-2 1 2-2-1zm69-3 3 1Zm-78-2 3 1Zm-69-2 2 2h-2zm4-2h2l-1 2zm242-5 2 1-2 1zm-69-1 2 1-2 1zm-139 0 3 1Zm207-1 1 2-2-1zm-156 0 1 2-2-1zm-54 0 3 1Zm219-6 2 1-2 1zm-1-2 1 2-2-1zm-95-1 3 1Zm-174 0h2l-1 2zm257-2 2 2h-2zm-64-1h2l-1 2zm63-1 2 1-2 1zm-201 0 2 1-2 1zm-56 0h2l-1 2zm-9-1 2 2h-2zm152-2 3 1Zm-98-3h2l-1 2zm-22 0 3 1Zm5-1 1 2-2-1zm61-1h2l-1 2zm-40-1 1 2-2-1zm35-4 3 1Zm98-3 3 1Zm57-1 2 1-2 1zm-1-2 1 2-2-1zm-170-2 2 2h-2zm5 0h2l-1 2zm-97 0h2l-1 2zm140-1 3 1Zm-77 0 1 2-2-1zm96-1h2l-1 2zm57-3 2 2h-2zm77-1h2l-1 2zm-286-2 1 2-2-1zm-6-10 2 1-2 1zm19-4 1 2-2-1zm57-1 2 1-2 1zm149-2h2l-1 2zm-212-2h2l-1 2zm35-2 2 1-2 1zm48-2 1 2-2-1zm-4-1 2 2h-2zm-41 1 1 2-2-1zm22-3 2 2h-2zm-22 1h2l-1 2zm154-1 1 2-2-1zm-23-2h2l-1 2zm-28-1 3 1Zm-79 0h2l-1 2zm-64 0 1 2-2-1zm311-2h2l-1 2zm-216-2 2 2h-2zm-106 0 1 2-2-1zm-22-2h2l-1 2zm197-1h2l-1 2zm-11-5 1 2-2-1zm133-2 2 1-2 1zm-146 0h2l-1 2zm111-1 2 1-2 1zm-152-3 2 1-2 1zm156-1 1 2-2-1zm-234-2 2 1-2 1zm281-2 2 1-2 1zm-148-3 1 2-2-1zm165-1 3 1Zm-189-1 3 1Zm176-3 2 2h-2zm-267-4 1 2-2-1zm-82-2 2 2h-2zm1-4 1 2-2-1zm237-4 1 2-2-1zm-58-1 1 2-2-1zm125-2 2 2h-2zm35-4 1 2-2-1zm-111-3 3 1Zm-82-4h2l-1 2zm192-1 2 1-2 1zm-136-7 3 1Zm110-1h2l-1 2zm-265 0h2l-1 2zm-26 0 3 1Zm144-1 3 1Zm2-2h2l-1 2zm190-1 3 1Zm-359-2 1 2-2-1zm227-3 2 2h-2zm-220 0 3 1Zm152-2 3 1Zm-99-2 3 1Zm-39-4 1 2-2-1zm279-2 3 1Zm-162-1 3 1Zm82-1 3 1Zm94-1h2l-1 2zm-109-1 1 2-2-1zm-4-3h2l-1 2zm-121 0 2 1-2 1zm-31-2 3 1Zm256-2 2 2h-2zm-178 0 2 2h-2zm30 0h2l-1 2zm39-1 3 1Zm-16 0 3 1Zm-56 0 3 1Zm-78-2 2 1-2 1zm28-1h2l-1 2zm229-6 2 2h-2zm23-2 1 2-2-1zm-77-2 1 2-2-1zm114-2 2 2h-2zm-116 0 2 1-2 1zm-245 0 2 1-2 1zm10-2 2 1-2 1zm209-2 3 1Zm-31 0 1 2-2-1zm98-6 2 2h-2zm-215 0 1 2-2-1zm222-3 2 1-2 1zm11-2 2 2h-2zm-160-1 2 2h-2zm-77-1 2 2h-2zm-3-1 2 2h-2zm-35 0 2 2h-2zm48 0h2l-1 2zm251-2 2 2h-2zm-64 1 1 2-2-1zm-248-1 2 2h-2zm265 0h2l-1 2zm-20-1 1 2-2-1zm-102 0 3 1Zm-111-1 2 2h-2zm204 0 2 1-2 1zm62-1 2 1-2 1zm-144-1 1 2-2-1zm-9-4 2 2h-2zm-36 1 2 1-2 1zm67-3 2 1-2 1zm13-1h2l-1 2zm-167-1 1 2-2-1zm243-2 2 1-2 1zm69-3 1 2-2-1zm-3-2 2 1-2 1zm-335 0 1 2-2-1zm243-2h2l-1 2zm-253 0 1 2-2-1zm311-4 2 2h-2zm-300 1h2l-1 2zm187-1h2l-1 2zm144-7 2 2h-2zm-6-1 2 1-2 1zm4-1h2l-1 2zM72 98l2 1-2 1zm104-2 3 1Zm-71-2 2 1-2 1zm147-2 1 2-2-1zm-121 0 2 1-2 1zm164-2 3 1ZM92 88l2 2h-2zm-30 1h2l-1 2zm163-2 3 1Zm-18-1 2 2h-2zm-37 1 3 1Zm-93-2 2 1-2 1zm-44-2 2 1-2 1zm77-1 1 2-2-1zm219-1h2l-1 2zm-10-1 2 2h-2zM84 81l3 1Zm17-1 2 1-2 1zm206-1h2l-1 2zm-55-3 3 1ZM92 76l2 1-2 1zm241-3h2l-1 2zm-38-2h2l-1 2zm55-1h2l-1 2zm-157-4 2 2h-2zm50-1 2 2h-2zm-143 1 1 2-2-1zm-25 0 2 1-2 1zm273-2 1 2-2-1zM42 64l3 1Zm138-2 3 1Zm-96-3 2 2h-2zm-13 1 2 1-2 1zm-23-1 2 2h-2zm205 0 3 1ZM69 59l2 1-2 1zm31-1 2 1-2 1zm-49-2h2l-1 2zm63-1h2l-1 2zm-55-2 1 2-2-1zm135-4 3 1Zm139-1 3 1Zm-188-2 3 1Zm155-2 2 2h-2zm-1-4 2 2h-2zm-73 1 3 1Zm42-2 2 2h-2zm-35 1 3 1Zm64-1 2 1-2 1zm-1-2 2 1-2 1zM80 35l2 2h-2zm191 0h2l-1 2zm2-1h2l-1 2zm-2-2h2l-1 2zm-159 0 1 2-2-1zm184-8 3 1Zm-29-2 3 1Zm-56-2 2 2h-2zm49-1 3 1Zm-131 0 3 1Zm83-2 2 2h-2zm-108 0 2 2h-2zm41-2 3 1Zm54-7 2 2h-2zm72 0 1 2-2-1zM148 389l2 1Zm0-3 2 1Zm-2-1 2 1Zm-7-2 2 1Zm-12 0 2 1Zm132-2 2 1Zm9-1 2 1Zm2-1 2 1Zm-114 0 2 1Zm88-2 2 1Zm41-2 2 1Zm-11 0 2 1Zm-29 0 2 1Zm-96-1 2 1Zm-42-1 2 1Zm2-1 2 1Zm158-3 2 1Zm-142-1 2 1Zm165-1 2 1Zm-199 0 2 1Zm154-1 2 1Zm-148 0 2 1Zm-8 0 2 1Zm165-1 2 1Zm-136-1 2 1Zm-2-1 2 1Zm168-3 2 1Zm25-1 2 1Zm-41 0 2 1Zm-43 0 2 1Zm-58-4 2 1Zm60-1 2 1Zm-2-1 2 1Zm-128 0 2 1Zm73-1 2 1Zm-8 0 2 1Zm153-1 2 1Zm-15 0 2 1Zm26-1 2 1Zm-110 0 2 1Zm-107 0 2 1Zm35-2 2 1Zm143-2 2 1Zm-205-2 2 1Zm250-1 2 1Zm-192 0 2 1Zm120-1 2 1Zm55-2 2 1Zm-99 0 2 1Zm-82 0 2 1Zm160-1 2 1Zm-64 0 2 1Zm35-1 2 1Zm-4 0 2 1Zm-136-1 2 1Zm-48 0 2 1Zm240-1 2 1Zm-4 0 2 1Zm-223 0 2 1Zm-15 0 2 1Zm265-1 2 1Zm-107 0 2 1Zm-185 0 2 1Zm245-1 2 1Zm-138-1 2 1Zm-2-1 2 1Zm124-2 2 1Zm-212 0 2 1Zm285-3 2 1Zm-4 0 2 1Zm-22 0 2 1Zm-259-1 2 1Zm2-2 2 1Zm155-1 2 1Zm12-3 2 1Zm-5 0 2 1Zm-5 0 2 1Zm-45 0 2 1Zm-14 0 2 1Zm-4 0 2 1Zm-42 0 2 1Zm-30-1 2 1Zm37-4 2 1Zm118-1 2 1Zm-97-1 2 1Zm98-1 2 1Zm63-1 2 1Zm-65 0 2 1Zm-112-2 2 1Zm120-2 2 1Zm-27 0 2 1Zm17-2 2 1Zm-102-1 2 1Zm53-1 2 1Zm-19 0 2 1Zm-3 0 2 1Zm-141 0 2 1Zm85-5 2 1Zm110-1 2 1Zm-105-3 2 1Zm-14 0 2 1Zm180-2 2 1Zm72-4 2 1Zm-300 0 2 1Zm154-1 2 1Zm-60 0 2 1Zm-6 0 2 1Zm-4 0 2 1Zm-9 0 2 1Zm-3 0 2 1Zm-112 0 2 1Zm118-1 2 1Zm-37-1 2 1Zm4-3 2 1Zm251-3 2 1Zm-3 0 2 1Zm-5 0 2 1Zm-284 0 2 1Zm-16 0 2 1Zm0-2 2 1Zm-2-1 2 1Zm303-1 2 1Zm-194 0 2 1Zm168-2 2 1Zm61-2 2 1Zm-118 0 2 1Zm72-4 2 1Zm-292-1 2 1Zm159-1 2 1Zm75-1 2 1Zm-69-4 2 1Zm-42-1 2 1Zm129-3 2 1Zm8-2 2 1Zm-149-1 2 1Zm-2-1 2 1Zm205-3 2 1Zm-162 0 2 1Zm22-1 2 1Zm113-2 2 1Zm-269 0 2 1Zm153-4 2 1Zm-173-3 2 1Zm298-6 2 1Zm-183-1 2 1Zm-139 0 2 1Zm160-5 2 1Zm72-5 2 1Zm-72-2 2 1Zm55-5 2 1Zm84-1 2 1Zm-86 0 2 1Zm-170 0 2 1Zm170-2 2 1Zm16-1 2 1Zm-82-1 2 1Zm-11-2 2 1Zm-82 0 2 1Zm159-3 2 1Zm-193-1 2 1Zm11-2 2 1Zm160-2 2 1Zm-35-5 2 1Zm-16 0 2 1Zm14-1 2 1Zm2-1 2 1Zm8-1 2 1Zm-26 0 2 1Zm-122 0 2 1Zm321-1 2 1Zm-75 0 2 1Zm-7 0 2 1Zm-63-1 2 1Zm-159 0 2 1Zm120-1 2 1Zm-98 0 2 1Zm202-1 2 1Zm-200 0 2 1Zm81-2 2 1Zm4-1 2 1Zm6-1 2 1Zm-20 0 2 1Zm108-1 2 1Zm-125-2 2 1Zm151-1 2 1Zm90-1 2 1Zm-162 0 2 1Zm67-1 2 1Zm-23-1 2 1Zm-30 0 2 1Zm-74-1 2 1Zm-80-1 2 1Zm53-1 2 1Zm-51 0 2 1Zm182-4 2 1Zm-77 0 2 1Zm146-1 2 1Zm-67 0 2 1Zm-4 0 2 1Zm-47 0 2 1Zm67-1 2 1Zm-18 0 2 1Zm-10 0 2 1Zm-68 0 2 1Zm-56 0 2 1Zm-4 0 2 1Zm188-4 2 1Zm-235-1 2 1Zm194-4 2 1Zm-127 0 2 1Zm-54-1 2 1Zm-3 0 2 1Zm181-3 2 1Zm-119 0 2 1Zm102-3 2 1Zm115-1 2 1Zm-188 0 2 1Zm2-1 2 1Zm18-1 2 1Zm25-1 2 1Zm38-3 2 1Zm0-2 2 1Zm-40 0 2 1Zm-4 0 2 1Zm-7 0 2 1Zm-22 0 2 1Zm-22 0 2 1Zm81-1 2 1Zm-28 0 2 1Zm-120 0 2 1Zm-60-1 2 1Zm187-4 2 1Zm-119-2 2 1Zm259-2 2 1Zm-233 0 2 1Zm233-2 2 1Zm-61 0 2 1Zm-41 0 2 1Zm-97 0 2 1Zm-4 0 2 1Zm36-1 2 1Zm-7 0 2 1Zm39-1 2 1Zm-63 0 2 1Zm188-3 2 1Zm-112-2 2 1Zm-120-2 2 1Zm105-1 2 1Zm-80 0 2 1Zm211-1 2 1Zm-236 0 2 1Zm94-1 2 1Zm12-3 2 1Zm-175 0 2 1Zm131-2 2 1Zm24-1 2 1Zm130-1 2 1Zm-70 0 2 1Zm-116 0 2 1Zm57-1 2 1Zm-33 0 2 1Zm24-4 2 1Zm-14 0 2 1Zm24-1 2 1Zm-96-3 2 1Zm110-6 2 1Zm-42 0 2 1Zm45-1 2 1Zm-6 0 2 1Zm-18 0 2 1Zm52-1 2 1Zm-6 0 2 1Zm-104 0 2 1Zm-6 0 2 1Zm-8 0 2 1Zm10-1 2 1Zm186-3 2 1Zm-2-1 2 1Zm-16 0 2 1Zm66-2 2 1Zm-3 0 2 1Zm-48 0 2 1Zm-43 0 2 1Zm-2-1 2 1Zm-49 0 2 1Zm-10 0 2 1Zm-8 0 2 1Zm-27 0 2 1Zm92-1 2 1Zm-14 0 2 1Zm-76 0 2 1Zm-79 0 2 1Zm-3-1 2 1Zm158-1 2 1Zm-147 0 2 1Zm144-1 2 1Zm37-1 2 1Zm-180-1 2 1Zm-72-1 2 1Zm143-1 2 1Zm126-1 2 1Zm-135 0 2 1Zm34-1 2 1Zm107-3 2 1ZM82 74l2 1Zm-26 0 2 1Zm302-1 2 1Zm-225 0 2 1Zm223-1 2 1Zm-205-1 2 1Zm48-1 2 1Zm-7-1 2 1Zm3-1 2 1Zm54-1 2 1Zm-2-1 2 1Zm-56-1 2 1Zm-90 0 2 1Zm148-1 2 1Zm-52-2 2 1Zm-93 0 2 1Zm224-1 2 1Zm-193 0 2 1Zm-22-2 2 1Zm2-1 2 1Zm-4 0 2 1Zm166-1 2 1Zm-4 0 2 1Zm-160 0 2 1Zm227-1 2 1Zm-3 0 2 1Zm-62 0 2 1Zm-2-1 2 1Zm-115 0 2 1Zm12-1 2 1Zm-93 0 2 1Zm80-1 2 1Zm50-1 2 1Zm56-2 2 1Zm64-1 2 1ZM88 47l2 1Zm-3 0 2 1Zm218-3 2 1Zm-5-1 2 1ZM93 43l2 1Zm208-1 2 1Zm-5 0 2 1ZM93 41l2 1Zm-18-1 2 1Zm243-1 2 1ZM94 38l2 1Zm-3 0 2 1Zm202-1 2 1Zm-90 0 2 1Zm92-2 2 1Zm-191 0 2 1Zm178-1 2 1Zm2-1 2 1Zm31-1 2 1Zm-5 0 2 1Zm-132-1 2 1Zm-85-4 2 1Zm203-1 2 1Zm-119 0 2 1Zm92-1 2 1Zm-4 0 2 1Zm35-1 2 1Zm-33 0 2 1ZM94 24l2 1Zm171-1 2 1Zm-3 0 2 1Zm-141 0 2 1Zm150-1 2 1Zm-6-1 2 1Zm-3 0 2 1Zm-137-1 2 1Zm8-3 2 1Zm-26 0 2 1Zm174-1 2 1Zm-68 0 2 1Zm-33 0 2 1Zm-3 0 2 1Zm-72 0 2 1Zm45-1 2 1Zm-29-2 2 1Zm117-1 2 1Zm-14-1 2 1Zm43-3 2 1ZM129 8l2 1Zm50-1 2 1Zm67-2 2 1Zm-5-2 2 1Zm2-3 2 1Zm-12 0 2 1Zm-4 0 2 1Z"/>
    </g>
</svg>
