<?xml version="1.0" encoding="UTF-8"?>
<svg data-bbox="15 4.153 180 288.695" viewBox="0 0 210 297" height="297mm" width="210mm" xmlns="http://www.w3.org/2000/svg" data-type="color">
    <g>
        <path style="line-height:normal;font-variant-ligatures:normal;font-variant-position:normal;font-variant-caps:normal;font-variant-numeric:normal;font-variant-alternates:normal;font-feature-settings:normal;text-indent:0;text-align:start;text-decoration-line:none;text-decoration-style:solid;text-decoration-color:#000;text-transform:none;text-orientation:mixed;white-space:normal;shape-padding:0;isolation:auto;mix-blend-mode:normal;solid-color:#000;solid-opacity:1" d="M0 8.305V239.82l.059.125C16.227 274.272 51.039 297 90.002 297s73.771-22.728 89.94-57.055l.058-.124V8.305h-7.799c-31.235 0-60.7 12.534-82.201 34.037A116.26 116.26 0 0 0 7.798 8.305Zm15.6 16.112C40.07 26.32 62.81 36.96 79.7 54.144a116 116 0 0 0-8.033 12.062c-20.736 35.826-20.736 80.012 0 115.838a116 116 0 0 0 8.033 12.062c-16.889 17.182-39.63 27.82-64.1 29.724v-99.706Zm148.804 0V223.83c-24.472-1.904-47.214-12.543-64.103-29.726a116 116 0 0 0 8.032-12.06c20.736-35.826 20.736-80.012 0-115.838a116 116 0 0 0-8.032-12.06c16.89-17.185 39.63-27.826 64.103-29.73M90.002 66.479a99.95 99.95 0 0 1 0 115.291 99.95 99.95 0 0 1 0-115.291M90 205.908a116.27 116.27 0 0 0 72.271 33.611c-14.661 25.42-41.822 41.882-72.27 41.882s-57.61-16.462-72.271-41.882A116.27 116.27 0 0 0 90 205.908" color="#000000" font-weight="400" font-family="sans-serif" overflow="visible" fill="#1d1f5a" transform="translate(15 -4.152)" data-color="1"/>
        <path d="M69.325 227.332h18.291v2.016h-1.553v13.582h-2.535v-8.423H80.59c.081.12.652 1.752.652 2.892 0 2.255-1.545 4.152-3.669 4.152-5.061-.133-6.855-8.808-6.855-8.808l2.115-1.392c-.081 0 1.554 8.052 4.49 8.052q1.473.002 1.473-1.884c0-2.137-2.044-5.028-2.125-5.028h6.857v-3.143H69.325zm20.496 12.827h3.017v2.892h-3.017zm4.892-12.827h14.29v2.016h-1.473v13.582h-2.615v-8.05h-4.49v2.135c0 .133 0 1.007-.732 1.007-.893-.12-3.428-3.394-3.428-4.15 0-1.13.902-1.13 1.062-1.13h7.588v-3.394H94.713zm4.659-6.168 1.793-1.5 5.794 7.668h-1.714zm12.078 18.995h3.017v2.892h-3.017zm11.184-12.827h12.98v2.016h-1.553v13.582h-2.526v-3.9c-2.777 2.016-7.429.756-7.429-3.527 0-3.515 3.35-5.148 6.117-4.152l.25 2.148s-.573-.636-1.715-.636c-2.856 0-2.775 5.16.162 5.16 1.713 0 2.615-1.764 2.615-1.885v-6.79H121.08v13.582h-2.606v-13.582h-2.124v-2.016h2.124c0-.12-.412-1.26-.412-2.388 0-2.891 2.036-4.775 5.304-4.775 4.981 0 11.916 7.163 11.916 7.163h-2.526s-6.284-5.159-9.39-5.159c-2.034 0-2.938 1.392-2.938 3.022 0 1.01.33 2.016.33 2.137h1.795zm15.104 12.827h2.938v2.892h-2.938z" fill="#1d1f5a" fill-rule="evenodd" data-color="1"/>
        <g style="line-height:1.25;-inkscape-font-specification:&quot;Nachlieli CLM Bold&quot;" aria-label="JNU" font-weight="700" font-size="85.333" font-family="Nachlieli CLM" letter-spacing="0" word-spacing="0">
            <path d="M337.228 747.65v31.647c0 3.23-1.702 4.99-4.756 4.99-3.346 0-4.755-1.643-4.755-5.577v-4.11h-8.808v4.227c0 4.463 1.057 7.222 3.582 9.57 2.466 2.232 5.754 3.406 9.805 3.406 8.749 0 13.74-4.52 13.74-12.506v-31.648z" style="-inkscape-font-specification:&quot;Nachlieli CLM Bold&quot;" font-size="64" fill="#1d1f5a" transform="translate(-69.267 -98.656)scale(.46483)" data-color="1"/>
            <path d="M380.129 790.453h8.807v-42.804h-8.807v29.123l-16.97-29.123h-9.041v42.804h8.807V760.86z" style="-inkscape-font-specification:&quot;Nachlieli CLM Bold&quot;" font-size="64" fill="#1d1f5a" transform="translate(-69.267 -98.656)scale(.46483)" data-color="1"/>
            <path d="M422.093 747.65v29.005c0 5.167-2.643 7.633-8.162 7.633s-8.161-2.466-8.161-7.633v-29.006h-8.808v29.006c0 4.814 1.292 8.22 4.17 10.803 3.111 2.819 7.632 4.345 12.8 4.345 5.166 0 9.687-1.526 12.8-4.345 2.876-2.583 4.168-5.989 4.168-10.803v-29.006z" style="-inkscape-font-specification:&quot;Nachlieli CLM Bold&quot;" font-size="64" fill="#1d1f5a" transform="translate(-69.267 -98.656)scale(.46483)" data-color="1"/>
        </g>
    </g>
</svg>
